<svg width="20" height="20" viewBox="0 0 20 20" fill="none" xmlns="http://www.w3.org/2000/svg">
<path fill-rule="evenodd" clip-rule="evenodd" d="M10 20C15.5228 20 20 15.5228 20 10C20 4.47715 15.5228 0 10 0C4.47715 0 0 4.47715 0 10C0 15.5228 4.47715 20 10 20ZM9.99512 10.7597C8.12042 10.7389 6.46162 9.07687 6.46162 6.84349C6.45186 4.74515 8.13019 3 9.99512 3C11.8698 3 13.5286 4.74515 13.5286 6.84349C13.5286 9.07687 11.8796 10.7805 9.99512 10.7597ZM9.99512 18C7.75915 18 5.4939 17.0235 4 15.3303C5.05452 13.5644 7.34906 12.5256 9.99512 12.5256C12.6216 12.5256 14.9357 13.5436 16 15.3303C14.4963 17.0235 12.2408 18 9.99512 18Z" fill="black"/>
</svg>
