<svg width="32" height="32" viewBox="0 0 32 32" fill="none" xmlns="http://www.w3.org/2000/svg">
<path d="M27.5 5.5H24.2917C24.2143 5.5 24.1401 5.46927 24.0854 5.41457C24.0307 5.35987 24 5.28569 24 5.20833V3.16667C24 2.85725 23.8771 2.5605 23.6583 2.34171C23.4395 2.12292 23.1428 2 22.8333 2C22.5239 2 22.2272 2.12292 22.0084 2.34171C21.7896 2.5605 21.6667 2.85725 21.6667 3.16667V8.70833C21.6667 8.9404 21.5745 9.16296 21.4104 9.32705C21.2463 9.49115 21.0237 9.58333 20.7917 9.58333V9.58333C20.5596 9.58333 20.337 9.49115 20.1729 9.32705C20.0089 9.16296 19.9167 8.9404 19.9167 8.70833V6.08333C19.9167 5.92862 19.8552 5.78025 19.7458 5.67085C19.6364 5.56146 19.488 5.5 19.3333 5.5H12.0417C11.9645 5.5 11.8905 5.46943 11.8358 5.41499C11.7812 5.36054 11.7503 5.28665 11.75 5.2095V3.16667C11.75 2.85725 11.6271 2.5605 11.4083 2.34171C11.1895 2.12292 10.8928 2 10.5833 2C10.2739 2 9.97717 2.12292 9.75838 2.34171C9.53958 2.5605 9.41667 2.85725 9.41667 3.16667V8.70833C9.41667 8.9404 9.32448 9.16296 9.16039 9.32705C8.99629 9.49115 8.77373 9.58333 8.54167 9.58333C8.3096 9.58333 8.08704 9.49115 7.92295 9.32705C7.75885 9.16296 7.66667 8.9404 7.66667 8.70833V6.08333C7.66667 5.92862 7.60521 5.78025 7.49581 5.67085C7.38642 5.56146 7.23804 5.5 7.08333 5.5H5.33333C4.71449 5.5 4.121 5.74583 3.68342 6.18342C3.24583 6.621 3 7.21449 3 7.83333V27.6667C3 28.2855 3.24583 28.879 3.68342 29.3166C4.121 29.7542 4.71449 30 5.33333 30H27.5C28.1188 30 28.7123 29.7542 29.1499 29.3166C29.5875 28.879 29.8333 28.2855 29.8333 27.6667V7.83333C29.8333 7.21449 29.5875 6.621 29.1499 6.18342C28.7123 5.74583 28.1188 5.5 27.5 5.5ZM26.9167 27.6667H5.91667C5.76196 27.6667 5.61358 27.6052 5.50419 27.4958C5.39479 27.3864 5.33333 27.238 5.33333 27.0833V13.0833C5.33333 12.9286 5.39479 12.7802 5.50419 12.6709C5.61358 12.5615 5.76196 12.5 5.91667 12.5H26.9167C27.0714 12.5 27.2198 12.5615 27.3291 12.6709C27.4385 12.7802 27.5 12.9286 27.5 13.0833V27.0833C27.5 27.238 27.4385 27.3864 27.3291 27.4958C27.2198 27.6052 27.0714 27.6667 26.9167 27.6667Z" fill="black"/>
</svg>
