<svg width="128" height="128" viewBox="0 0 128 128" fill="none" xmlns="http://www.w3.org/2000/svg">
<path d="M64 128C99.3462 128 128 99.3462 128 64C128 28.6538 99.3462 0 64 0C28.6538 0 0 28.6538 0 64C0 99.3462 28.6538 128 64 128Z" fill="black"/>
<path d="M57.5173 76H38.6667C38.313 76 37.9739 75.8595 37.7239 75.6095C37.4738 75.3594 37.3333 75.0203 37.3333 74.6667V52C37.3333 51.6464 37.4738 51.3072 37.7239 51.0572C37.9739 50.8071 38.313 50.6667 38.6667 50.6667H74.6667C75.0203 50.6667 75.3594 50.8071 75.6095 51.0572C75.8595 51.3072 76 51.6464 76 52V57.52C77.7693 57.2747 79.564 57.2747 81.3333 57.52V40C81.3333 39.2928 81.0524 38.6145 80.5523 38.1144C80.0522 37.6143 79.3739 37.3333 78.6667 37.3333H72C71.8232 37.3333 71.6536 37.2631 71.5286 37.1381C71.4036 37.013 71.3333 36.8435 71.3333 36.6667V34C71.3333 33.4696 71.1226 32.9609 70.7475 32.5858C70.3725 32.2107 69.8638 32 69.3333 32C68.8029 32 68.2942 32.2107 67.9191 32.5858C67.544 32.9609 67.3333 33.4696 67.3333 34V44C67.3333 44.2626 67.2816 44.5227 67.1811 44.7654C67.0806 45.008 66.9333 45.2285 66.7475 45.4142C66.5618 45.5999 66.3414 45.7472 66.0987 45.8478C65.856 45.9483 65.596 46 65.3333 46C65.0707 46 64.8106 45.9483 64.568 45.8478C64.3253 45.7472 64.1048 45.5999 63.9191 45.4142C63.7334 45.2285 63.5861 45.008 63.4856 44.7654C63.3851 44.5227 63.3333 44.2626 63.3333 44V38.6667C63.3333 38.313 63.1929 37.9739 62.9428 37.7239C62.6928 37.4738 62.3536 37.3333 62 37.3333H50.6667C50.4899 37.3333 50.3203 37.2631 50.1953 37.1381C50.0702 37.013 50 36.8435 50 36.6667V34C50 33.4696 49.7893 32.9609 49.4142 32.5858C49.0391 32.2107 48.5304 32 48 32C47.4696 32 46.9609 32.2107 46.5858 32.5858C46.2107 32.9609 46 33.4696 46 34V44C46 44.5304 45.7893 45.0391 45.4142 45.4142C45.0391 45.7893 44.5304 46 44 46C43.4696 46 42.9609 45.7893 42.5858 45.4142C42.2107 45.0391 42 44.5304 42 44V38.6667C42 38.313 41.8595 37.9739 41.6095 37.7239C41.3594 37.4738 41.0203 37.3333 40.6667 37.3333H34.6667C33.9594 37.3333 33.2811 37.6143 32.781 38.1144C32.281 38.6145 32 39.2928 32 40V76C32 77.4145 32.5619 78.771 33.5621 79.7712C34.5623 80.7714 35.9188 81.3333 37.3333 81.3333H57.5173C57.272 79.564 57.272 77.7693 57.5173 76V76Z" fill="white"/>
<path d="M78.6667 61.3333C75.2384 61.3333 71.8872 62.3499 69.0368 64.2545C66.1863 66.1591 63.9647 68.8662 62.6527 72.0335C61.3408 75.2007 60.9976 78.6859 61.6664 82.0482C62.3352 85.4106 63.986 88.4991 66.4101 90.9232C68.8342 93.3473 71.9227 94.9981 75.2851 95.6669C78.6474 96.3358 82.1326 95.9925 85.2998 94.6806C88.4671 93.3687 91.1742 91.147 93.0788 88.2966C94.9834 85.4461 96 82.0949 96 78.6667C95.9943 74.0713 94.1663 69.6658 90.9169 66.4164C87.6675 63.167 83.262 61.339 78.6667 61.3333V61.3333ZM80.6667 85.3333C80.6667 85.8638 80.4559 86.3725 80.0809 86.7475C79.7058 87.1226 79.1971 87.3333 78.6667 87.3333C78.1362 87.3333 77.6275 87.1226 77.2524 86.7475C76.8774 86.3725 76.6667 85.8638 76.6667 85.3333V81.3333C76.6667 81.1565 76.5964 80.987 76.4714 80.8619C76.3464 80.7369 76.1768 80.6667 76 80.6667H72C71.4696 80.6667 70.9608 80.456 70.5858 80.0809C70.2107 79.7058 70 79.1971 70 78.6667C70 78.1362 70.2107 77.6275 70.5858 77.2525C70.9608 76.8774 71.4696 76.6667 72 76.6667H76C76.1768 76.6667 76.3464 76.5964 76.4714 76.4714C76.5964 76.3464 76.6667 76.1768 76.6667 76V72C76.6667 71.4696 76.8774 70.9609 77.2524 70.5858C77.6275 70.2107 78.1362 70 78.6667 70C79.1971 70 79.7058 70.2107 80.0809 70.5858C80.4559 70.9609 80.6667 71.4696 80.6667 72V76C80.6667 76.1768 80.7369 76.3464 80.8619 76.4714C80.9869 76.5964 81.1565 76.6667 81.3333 76.6667H85.3333C85.8638 76.6667 86.3725 76.8774 86.7475 77.2525C87.1226 77.6275 87.3333 78.1362 87.3333 78.6667C87.3333 79.1971 87.1226 79.7058 86.7475 80.0809C86.3725 80.456 85.8638 80.6667 85.3333 80.6667H81.3333C81.1565 80.6667 80.9869 80.7369 80.8619 80.8619C80.7369 80.987 80.6667 81.1565 80.6667 81.3333V85.3333Z" fill="#FFE7D1"/>
</svg>
