<svg width="128" height="128" viewBox="0 0 128 128" fill="none" xmlns="http://www.w3.org/2000/svg">
<path d="M64 128C99.3462 128 128 99.3462 128 64C128 28.6538 99.3462 0 64 0C28.6538 0 0 28.6538 0 64C0 99.3462 28.6538 128 64 128Z" fill="black"/>
<path d="M56.488 35.2347C56.3686 34.9049 56.1853 34.6019 55.9486 34.343C55.7119 34.0842 55.4265 33.8746 55.1087 33.7262C54.7909 33.5778 54.4469 33.4936 54.0965 33.4783C53.7461 33.4631 53.3961 33.5171 53.0666 33.6373C46.1673 36.1579 40.3392 40.965 36.552 47.2587C36.1878 47.8651 36.0794 48.5914 36.2506 49.2778C36.4219 49.9642 36.8589 50.5544 37.4653 50.9187C37.7656 51.099 38.0985 51.2185 38.4449 51.2702C38.7914 51.3219 39.1446 51.3048 39.4845 51.22C40.1709 51.0487 40.7611 50.6118 41.1253 50.0053C44.2822 44.7583 49.1412 40.7509 54.8933 38.6507C55.5576 38.4089 56.0987 37.9133 56.3978 37.2728C56.6968 36.6322 56.7292 35.8991 56.488 35.2347V35.2347Z" fill="white"/>
<path d="M86.5893 47.6693C87.0951 47.6683 87.5901 47.5235 88.0166 47.2518C88.4432 46.98 88.7837 46.5926 88.9984 46.1347C89.2131 45.6768 89.2931 45.1673 89.2292 44.6656C89.1653 44.1639 88.96 43.6908 88.6373 43.3013C83.9471 37.6464 77.4572 33.7736 70.2533 32.3307C69.5595 32.1931 68.8395 32.3368 68.2516 32.7301C67.6638 33.1235 67.2562 33.7342 67.1187 34.428C66.9811 35.1218 67.1248 35.8418 67.5181 36.4297C67.9115 37.0176 68.5222 37.4251 69.216 37.5627C75.2178 38.7663 80.6247 41.9931 84.5333 46.704C84.7838 47.0063 85.098 47.2496 85.4534 47.4165C85.8088 47.5834 86.1967 47.6697 86.5893 47.6693V47.6693Z" fill="white"/>
<path d="M72.9867 88.8373C67.2167 90.8784 60.9236 90.8935 55.144 88.88C54.8136 88.7637 54.4635 88.7137 54.1138 88.7327C53.764 88.7517 53.4214 88.8395 53.1056 88.9909C52.7898 89.1423 52.5068 89.3545 52.273 89.6152C52.0391 89.876 51.8589 90.1803 51.7427 90.5107C51.6264 90.8411 51.5763 91.1911 51.5954 91.5409C51.6144 91.8906 51.7021 92.2332 51.8535 92.5491C52.005 92.8649 52.2171 93.1478 52.4779 93.3817C52.7386 93.6155 53.0429 93.7957 53.3733 93.912C60.3067 96.3408 67.8628 96.322 74.784 93.8587C75.4479 93.6188 75.9896 93.1255 76.2904 92.487C76.5911 91.8484 76.6265 91.1166 76.3886 90.452C76.1507 89.7874 75.659 89.2442 75.0213 88.9416C74.3836 88.6389 73.6519 88.6014 72.9867 88.8373V88.8373Z" fill="white"/>
<path d="M95.6586 59.04C95.5392 58.3554 95.1572 57.7444 94.5941 57.3373C94.0309 56.9301 93.331 56.7588 92.6435 56.86C91.9559 56.9611 91.335 57.3267 90.913 57.8788C90.491 58.4309 90.3011 59.126 90.384 59.816C90.5722 61.1133 90.6667 62.4225 90.6666 63.7333C90.6602 69.8507 88.5555 75.7807 84.704 80.5333C84.2723 81.0836 84.0741 81.7813 84.152 82.4763C84.23 83.1713 84.5778 83.8078 85.1205 84.2488C85.6633 84.6898 86.3576 84.9 87.0538 84.834C87.75 84.768 88.3924 84.4311 88.8426 83.896C91.6368 80.4506 93.6854 76.4627 94.8586 72.1846C96.0319 67.9065 96.3043 63.4315 95.6586 59.0427V59.04Z" fill="white"/>
<path d="M37.3334 63.8587C37.323 63.1546 37.0388 62.4823 36.5409 61.9845C36.043 61.4866 35.3707 61.2023 34.6667 61.192C33.9618 61.1955 33.2869 61.478 32.7897 61.9777C32.2925 62.4775 32.0134 63.1537 32.0134 63.8587C32.0545 71.2045 34.618 78.3132 39.2747 83.9947C39.7297 84.5206 40.3721 84.848 41.0651 84.907C41.758 84.9661 42.4466 84.7521 42.984 84.3107C43.5214 83.8693 43.8651 83.2354 43.9418 82.5442C44.0185 81.853 43.8222 81.1592 43.3947 80.6107C39.5159 75.8853 37.3763 69.9719 37.3334 63.8587V63.8587Z" fill="white"/>
<path d="M54.6 57.2507C54.5945 58.9036 55.0523 60.525 55.9215 61.931C56.7906 63.337 58.0363 64.4713 59.5174 65.2053L65.3707 68.1387C65.8188 68.3638 66.1779 68.7335 66.39 69.188C66.6021 69.6425 66.6547 70.1552 66.5394 70.6433C66.4241 71.1313 66.1475 71.5663 65.7545 71.8778C65.3615 72.1893 64.8749 72.3592 64.3734 72.36H57.9334C57.4956 72.36 57.0622 72.4462 56.6577 72.6137C56.2533 72.7813 55.8859 73.0268 55.5763 73.3363C55.2668 73.6458 55.0213 74.0133 54.8538 74.4177C54.6862 74.8221 54.6 75.2556 54.6 75.6933C54.6 76.1311 54.6862 76.5645 54.8538 76.9689C55.0213 77.3734 55.2668 77.7408 55.5763 78.0504C55.8859 78.3599 56.2533 78.6054 56.6577 78.7729C57.0622 78.9405 57.4956 79.0267 57.9334 79.0267H59.9334C60.1102 79.0267 60.2797 79.0969 60.4048 79.2219C60.5298 79.347 60.6 79.5165 60.6 79.6933V80.192C60.6 81.0761 60.9512 81.9239 61.5763 82.549C62.2015 83.1741 63.0493 83.5253 63.9334 83.5253C64.8174 83.5253 65.6653 83.1741 66.2904 82.549C66.9155 81.9239 67.2667 81.0761 67.2667 80.192V79.0053C67.2665 78.8725 67.306 78.7427 67.3801 78.6324C67.4542 78.5222 67.5596 78.4366 67.6827 78.3867C69.2737 77.7485 70.6464 76.6642 71.6358 75.2643C72.6251 73.8644 73.1889 72.2084 73.2593 70.4956C73.3298 68.7828 72.9038 67.0862 72.0328 65.6097C71.1617 64.1333 69.8826 62.94 68.3494 62.1733L62.4987 59.24C62.0506 59.0148 61.6915 58.6451 61.4794 58.1907C61.2673 57.7362 61.2147 57.2235 61.33 56.7354C61.4453 56.2473 61.7218 55.8124 62.1149 55.5009C62.5079 55.1894 62.9945 55.0195 63.496 55.0187H69.9334C70.8174 55.0187 71.6653 54.6675 72.2904 54.0424C72.9155 53.4172 73.2667 52.5694 73.2667 51.6853C73.2667 50.8013 72.9155 49.9534 72.2904 49.3283C71.6653 48.7032 70.8174 48.352 69.9334 48.352H67.9334C67.7565 48.352 67.587 48.2818 67.462 48.1567C67.3369 48.0317 67.2667 47.8621 67.2667 47.6853V47.2C67.2667 46.3159 66.9155 45.4681 66.2904 44.843C65.6653 44.2179 64.8174 43.8667 63.9334 43.8667C63.0493 43.8667 62.2015 44.2179 61.5763 44.843C60.9512 45.4681 60.6 46.3159 60.6 47.2V48.3893C60.6 48.5225 60.5601 48.6526 60.4855 48.7628C60.4109 48.8731 60.3049 48.9585 60.1814 49.008C58.5363 49.6704 57.1264 50.8087 56.1321 52.2771C55.1378 53.7455 54.6044 55.4773 54.6 57.2507V57.2507Z" fill="#FFE7D1"/>
</svg>
