<svg width="32" height="32" viewBox="0 0 32 32" fill="none" xmlns="http://www.w3.org/2000/svg">
<path d="M9 30C10.4497 30 11.625 28.8248 11.625 27.375C11.625 25.9253 10.4497 24.75 9 24.75C7.55025 24.75 6.375 25.9253 6.375 27.375C6.375 28.8248 7.55025 30 9 30Z" fill="black"/>
<path d="M19.7917 30C21.2414 30 22.4167 28.8248 22.4167 27.375C22.4167 25.9253 21.2414 24.75 19.7917 24.75C18.3419 24.75 17.1667 25.9253 17.1667 27.375C17.1667 28.8248 18.3419 30 19.7917 30Z" fill="black"/>
<path d="M28.8333 2.00001H26.1313C25.7164 1.99872 25.3146 2.14489 24.9975 2.41243C24.6803 2.67998 24.4686 3.05148 24.4 3.46068L21.1765 21.3025C21.1626 21.3684 21.1265 21.4275 21.0743 21.47C21.0221 21.5124 20.9568 21.5357 20.8895 21.5358H7.83333C7.67862 21.5358 7.53025 21.4744 7.42085 21.365C7.31146 21.2556 7.25 21.1072 7.25 20.9525C7.25 20.7978 7.31146 20.6494 7.42085 20.54C7.53025 20.4306 7.67862 20.3692 7.83333 20.3692H16.8843C17.6579 20.3692 18.3997 20.0619 18.9467 19.5149C19.4937 18.9679 19.801 18.2261 19.801 17.4525C19.801 16.679 19.4937 15.9371 18.9467 15.3901C18.3997 14.8431 17.6579 14.5358 16.8843 14.5358H6.08333C5.92862 14.5358 5.78025 14.4744 5.67085 14.365C5.56146 14.2556 5.5 14.1072 5.5 13.9525C5.5 13.7978 5.56146 13.6494 5.67085 13.54C5.78025 13.4306 5.92862 13.3692 6.08333 13.3692H18.625C19.3985 13.3692 20.1404 13.0619 20.6874 12.5149C21.2344 11.9679 21.5417 11.2261 21.5417 10.4525C21.5417 9.67896 21.2344 8.9371 20.6874 8.39011C20.1404 7.84313 19.3985 7.53584 18.625 7.53584H3.16667C2.85725 7.53584 2.5605 7.65876 2.34171 7.87755C2.12292 8.09634 2 8.39309 2 8.70251C2 9.01193 2.12292 9.30867 2.34171 9.52747C2.5605 9.74626 2.85725 9.86918 3.16667 9.86918H18.625C18.7797 9.86918 18.9281 9.93063 19.0375 10.04C19.1469 10.1494 19.2083 10.2978 19.2083 10.4525C19.2083 10.6072 19.1469 10.7556 19.0375 10.865C18.9281 10.9744 18.7797 11.0358 18.625 11.0358H6.08333C5.30979 11.0358 4.56792 11.3431 4.02094 11.8901C3.47396 12.4371 3.16667 13.179 3.16667 13.9525C3.16667 14.7261 3.47396 15.4679 4.02094 16.0149C4.56792 16.5619 5.30979 16.8692 6.08333 16.8692H16.8843C17.039 16.8692 17.1874 16.9306 17.2968 17.04C17.4062 17.1494 17.4677 17.2978 17.4677 17.4525C17.4677 17.6072 17.4062 17.7556 17.2968 17.865C17.1874 17.9744 17.039 18.0358 16.8843 18.0358H7.83333C7.05979 18.0358 6.31792 18.3431 5.77094 18.8901C5.22396 19.4371 4.91667 20.179 4.91667 20.9525C4.91667 21.7261 5.22396 22.4679 5.77094 23.0149C6.31792 23.5619 7.05979 23.8692 7.83333 23.8692H21.6187C22.0324 23.8708 22.4333 23.7258 22.7502 23.4599C23.0672 23.194 23.2797 22.8244 23.35 22.4167L26.5735 4.57251C26.5862 4.50556 26.6218 4.4451 26.6741 4.40148C26.7265 4.35785 26.7924 4.33377 26.8605 4.33334H28.8333C29.1428 4.33334 29.4395 4.21043 29.6583 3.99163C29.8771 3.77284 30 3.47609 30 3.16668C30 2.85726 29.8771 2.56051 29.6583 2.34172C29.4395 2.12292 29.1428 2.00001 28.8333 2.00001Z" fill="black"/>
</svg>
