<svg width="24" height="24" viewBox="0 0 24 24" fill="none" xmlns="http://www.w3.org/2000/svg">
<path d="M23.366 19.266L20.966 15.128C20.9447 15.0913 20.9143 15.0607 20.8779 15.039C20.8414 15.0173 20.8 15.0052 20.7576 15.0039C20.7152 15.0026 20.6731 15.0121 20.6354 15.0315C20.5977 15.051 20.5656 15.0797 20.542 15.115C19.3217 16.9534 17.5424 18.3506 15.467 19.1C15.4323 19.1123 15.4008 19.1321 15.3747 19.1581C15.3486 19.184 15.3285 19.2154 15.316 19.25C15.3036 19.2848 15.2989 19.3219 15.3024 19.3587C15.3058 19.3955 15.3173 19.4311 15.336 19.463L17.311 22.806C17.4079 22.9688 17.549 23.1008 17.718 23.1865C17.887 23.2722 18.0769 23.3081 18.2655 23.2901C18.4541 23.2721 18.6337 23.2008 18.7834 23.0847C18.9331 22.9685 19.0467 22.8122 19.111 22.634L19.943 20.347L22.335 20.752C22.5224 20.7811 22.7141 20.7573 22.8887 20.6833C23.0633 20.6092 23.2137 20.4879 23.323 20.333C23.4295 20.1771 23.49 19.9943 23.4976 19.8057C23.5052 19.617 23.4596 19.43 23.366 19.266Z" fill="#FFE7D1"/>
<path d="M3.471 15.09C3.44772 15.0543 3.4156 15.0252 3.37775 15.0056C3.33989 14.9859 3.29761 14.9764 3.255 14.978C3.21249 14.9792 3.17099 14.9912 3.13442 15.0129C3.09785 15.0346 3.06741 15.0653 3.046 15.102L0.633998 19.267C0.538897 19.4313 0.492527 19.6193 0.500306 19.8089C0.508086 19.9986 0.569695 20.1822 0.677931 20.3381C0.786167 20.4941 0.936559 20.616 1.11153 20.6896C1.2865 20.7633 1.47881 20.7856 1.666 20.754L4.057 20.349L4.89 22.637C4.95475 22.815 5.06871 22.9709 5.21862 23.0867C5.36854 23.2024 5.54824 23.2732 5.73682 23.2908C5.92539 23.3084 6.11509 23.2721 6.28384 23.1861C6.45258 23.1001 6.59343 22.9679 6.69 22.805L8.67 19.454C8.68867 19.4223 8.70014 19.3869 8.70359 19.3502C8.70705 19.3136 8.70241 19.2766 8.69 19.242C8.67764 19.2075 8.65778 19.1761 8.63185 19.1502C8.60591 19.1242 8.57454 19.1044 8.54 19.092C6.46449 18.3368 4.68719 16.9336 3.471 15.09V15.09Z" fill="#FFE7D1"/>
<path d="M20.5 9.75001C20.5 8.01942 19.9868 6.3277 19.0254 4.88877C18.0639 3.44984 16.6973 2.32833 15.0985 1.66606C13.4996 1.00379 11.7403 0.830514 10.043 1.16813C8.34563 1.50576 6.78653 2.33911 5.56282 3.56282C4.33911 4.78653 3.50575 6.34563 3.16813 8.04297C2.83051 9.7403 3.00379 11.4996 3.66606 13.0985C4.32832 14.6973 5.44983 16.0639 6.88876 17.0254C8.32769 17.9868 10.0194 18.5 11.75 18.5C14.0698 18.4974 16.2939 17.5746 17.9343 15.9343C19.5746 14.2939 20.4974 12.0698 20.5 9.75001Z" fill="#FFE7D1"/>
<path d="M9.401 13.5004L7.21683 10.9982C7.145 10.9196 7.08885 10.8268 7.05169 10.7251C7.01452 10.6234 6.99708 10.515 7.0004 10.4061C7.00372 10.2973 7.02772 10.1902 7.07101 10.0913C7.11429 9.99231 7.17598 9.90343 7.25245 9.82984C7.32892 9.75626 7.41862 9.69947 7.51629 9.6628C7.61397 9.62613 7.71763 9.61033 7.82121 9.61632C7.92478 9.62231 8.02617 9.64997 8.11941 9.69768C8.21265 9.74539 8.29587 9.81219 8.36418 9.89414L10.4363 12.264L14.5944 6.3328C14.7168 6.15822 14.9003 6.04185 15.1045 6.00928C15.3086 5.97671 15.5167 6.03062 15.683 6.15914C15.8493 6.28767 15.9601 6.48028 15.9912 6.6946C16.0222 6.90893 15.9708 7.12741 15.8484 7.30199L11.5914 13.3778C11.4699 13.5593 11.3107 13.7093 11.1259 13.8168C10.9411 13.9242 10.7355 13.9861 10.5246 13.9979C10.3136 14.0097 10.1029 13.9711 9.90826 13.8849C9.71362 13.7987 9.54018 13.6673 9.401 13.5004Z" fill="black"/>
</svg>
