<svg width="80" height="80" viewBox="0 0 80 80" fill="none" xmlns="http://www.w3.org/2000/svg">
<path d="M40 80C62.0914 80 80 62.0914 80 40C80 17.9086 62.0914 0 40 0C17.9086 0 0 17.9086 0 40C0 62.0914 17.9086 80 40 80Z" fill="black"/>
<path d="M45.9918 35.1518C46.6301 35.1525 47.2676 35.2013 47.8986 35.2979C47.9447 35.3046 47.9916 35.3019 48.0366 35.2902C48.0816 35.2785 48.1238 35.2579 48.1608 35.2296C48.1977 35.2014 48.2287 35.166 48.2518 35.1256C48.2749 35.0852 48.2897 35.0407 48.2953 34.9945C48.3337 34.6953 48.3546 34.3942 48.358 34.0925C48.358 28.5292 42.8948 24 36.179 24C29.4631 24 24 28.5292 24 34.0925C24.0179 35.374 24.3056 36.6373 24.8442 37.8001C25.3828 38.963 26.1604 39.9994 27.1262 40.8418L24.76 44.9868C24.6879 45.1122 24.6567 45.257 24.6708 45.401C24.6848 45.545 24.7433 45.681 24.8383 45.7901C24.9332 45.8993 25.0598 45.9762 25.2004 46.0101C25.341 46.0439 25.4887 46.0332 25.6229 45.9792L31.7945 43.5086C32.442 43.7139 33.1035 43.8721 33.7738 43.9819C33.8604 43.9963 33.9492 43.9776 34.0225 43.9293C34.0958 43.881 34.1482 43.8068 34.1691 43.7216C35.3508 38.8931 40.285 35.1518 45.9918 35.1518Z" fill="#FFE7D1"/>
<path d="M45.9918 37.2396C40.5634 37.2396 35.9702 41.2162 35.9702 45.9235C35.9997 47.3738 36.392 48.7935 37.1111 50.0531C37.8303 51.3128 38.8535 52.3723 40.0874 53.1349C41.4427 54.0182 42.9927 54.5581 44.6035 54.7079C46.2142 54.8578 47.8373 54.6131 49.3323 53.9951L54.3222 55.9674C54.4622 56.0093 54.6112 56.0108 54.752 55.9718C54.8929 55.9327 55.0198 55.8546 55.1181 55.7465C55.2165 55.6383 55.2823 55.5046 55.308 55.3607C55.3336 55.2169 55.318 55.0686 55.2631 54.9332L54.1023 50.8258C55.3347 49.4911 56.0173 47.7401 56.0133 45.9235C56.0133 41.2162 51.4201 37.2396 45.9918 37.2396Z" fill="#FFE7D1"/>
</svg>
