<svg width="24" height="24" viewBox="0 0 24 24" fill="none" xmlns="http://www.w3.org/2000/svg">
<path d="M17.8063 8.42012L11.837 16.5207C11.7665 16.6142 11.6781 16.6928 11.577 16.7517C11.4758 16.8107 11.3639 16.8489 11.2478 16.8642C11.1318 16.8795 11.0138 16.8714 10.9008 16.8406C10.7879 16.8098 10.6822 16.7568 10.5899 16.6847L6.32728 13.2766C6.23784 13.2051 6.16337 13.1166 6.10813 13.0162C6.05289 12.9159 6.01796 12.8056 6.00532 12.6918C5.97981 12.4618 6.04669 12.2312 6.19124 12.0505C6.33579 11.8699 6.54618 11.7541 6.77613 11.7286C7.00607 11.703 7.23673 11.7699 7.41736 11.9145L10.9719 14.7583L16.4022 7.38846C16.4676 7.29036 16.5522 7.20654 16.6509 7.14205C16.7496 7.07756 16.8603 7.03375 16.9764 7.01327C17.0925 6.99278 17.2115 6.99605 17.3263 7.02287C17.4411 7.04969 17.5493 7.09951 17.6443 7.16931C17.7393 7.23912 17.8192 7.32746 17.8791 7.429C17.939 7.53054 17.9776 7.64317 17.9928 7.76008C18.0079 7.87699 17.9992 7.99576 17.9671 8.1092C17.9351 8.22265 17.8804 8.32842 17.8063 8.42012Z" fill="currentColor"/>
</svg>
