<svg width="20" height="20" viewBox="0 0 20 20" fill="none" xmlns="http://www.w3.org/2000/svg">
<g clip-path="url(#clip0)">
<path d="M9.98632 0.00223185C7.31454 0.0459718 4.76729 1.1394 2.89523 3.04615C1.95854 3.97872 1.21949 5.09058 0.722254 6.31526C0.225023 7.53994 -0.0201816 8.8523 0.00129856 10.1739C-0.000238381 11.4653 0.253081 12.7443 0.746739 13.9376C1.2404 15.1309 1.96469 16.215 2.87811 17.1279C3.79152 18.0408 4.87611 18.7644 6.06971 19.2574C7.2633 19.7503 8.54245 20.0029 9.83383 20.0006H10.0121C12.6847 19.9731 15.2373 18.8865 17.1097 16.9793C18.9821 15.072 20.0214 12.4999 19.9997 9.82726V9.82726C20.0027 8.52022 19.7444 7.22575 19.2399 6.01998C18.7354 4.81422 17.9949 3.7215 17.062 2.80609C16.129 1.89068 15.0225 1.17106 13.8073 0.689544C12.5922 0.20803 11.2931 -0.0256546 9.98632 0.00223185V0.00223185ZM8.75058 13.7861C8.74458 13.6227 8.7712 13.4598 8.82891 13.3068C8.88662 13.1538 8.97424 13.0139 9.08667 12.8952C9.19909 12.7765 9.33405 12.6814 9.48366 12.6155C9.63327 12.5495 9.79452 12.5141 9.95799 12.5112H9.98048C10.3093 12.5118 10.6251 12.6397 10.8617 12.8681C11.0983 13.0964 11.2373 13.4075 11.2495 13.7361C11.2557 13.8995 11.2291 14.0625 11.1715 14.2155C11.1138 14.3685 11.0262 14.5085 10.9137 14.6273C10.8013 14.746 10.6663 14.8411 10.5166 14.907C10.367 14.9729 10.2056 15.0082 10.0421 15.011H10.0196C9.69096 15.01 9.37539 14.8819 9.13889 14.6537C8.90239 14.4254 8.76327 14.1146 8.75058 13.7861V13.7861ZM9.16722 10.418V5.41846C9.16722 5.19746 9.25501 4.98552 9.41127 4.82925C9.56754 4.67298 9.77949 4.58519 10.0005 4.58519C10.2215 4.58519 10.4334 4.67298 10.5897 4.82925C10.746 4.98552 10.8337 5.19746 10.8337 5.41846V10.418C10.8337 10.639 10.746 10.851 10.5897 11.0073C10.4334 11.1635 10.2215 11.2513 10.0005 11.2513C9.77949 11.2513 9.56754 11.1635 9.41127 11.0073C9.25501 10.851 9.16722 10.639 9.16722 10.418Z" fill="#ED4F4F"/>
</g>
<defs>
<clipPath id="clip0">
<rect width="20" height="20" fill="white"/>
</clipPath>
</defs>
</svg>
