<svg width="31" height="31" viewBox="0 0 31 31" fill="none" xmlns="http://www.w3.org/2000/svg">
<path d="M15.5 31C24.0604 31 31 24.0604 31 15.5C31 6.93959 24.0604 0 15.5 0C6.93959 0 0 6.93959 0 15.5C0 24.0604 6.93959 31 15.5 31Z" fill="#FFE7D1"/>
<path d="M20.3112 13.2394C20.2898 13.2224 20.2726 13.2008 20.2607 13.1763C20.2489 13.1517 20.2427 13.1248 20.2427 13.0975C20.2427 13.0702 20.2489 13.0432 20.2607 13.0187C20.2726 12.9941 20.2898 12.9725 20.3112 12.9556L24.6686 9.47066C25.0477 9.16649 25.0215 8.88851 24.9721 8.74297C24.9226 8.59743 24.7676 8.36384 24.2815 8.36384H12.629C12.5325 8.36384 12.4399 8.40218 12.3717 8.47041C12.3035 8.53865 12.2651 8.63119 12.2651 8.72769V17.46C12.2651 17.5565 12.3035 17.649 12.3717 17.7172C12.4399 17.7855 12.5325 17.8238 12.629 17.8238H24.2815C24.7676 17.8238 24.9233 17.5873 24.9721 17.4461C25.0208 17.305 25.0448 17.0241 24.6686 16.7184L20.3112 13.2394Z" fill="black"/>
<path d="M10.0915 8C9.80204 8 9.52441 8.115 9.3197 8.3197C9.115 8.52441 9 8.80204 9 9.09153V24.373C9 24.6625 9.115 24.9401 9.3197 25.1448C9.52441 25.3495 9.80204 25.4645 10.0915 25.4645C10.381 25.4645 10.6587 25.3495 10.8634 25.1448C11.0681 24.9401 11.1831 24.6625 11.1831 24.373V9.09153C11.1831 8.80204 11.0681 8.52441 10.8634 8.3197C10.6587 8.115 10.381 8 10.0915 8Z" fill="black"/>
</svg>
