<svg width="30" height="30" viewBox="0 0 30 30" fill="none" xmlns="http://www.w3.org/2000/svg">
<path d="M15 30C23.2843 30 30 23.2843 30 15C30 6.71573 23.2843 0 15 0C6.71573 0 0 6.71573 0 15C0 23.2843 6.71573 30 15 30Z" fill="#FFE7D1"/>
<path d="M15 15.5727C13.1441 15.5747 11.3648 16.3317 10.0524 17.6777C8.74011 19.0237 8.00198 20.8486 8 22.7521C8 22.8791 8.04917 23.0008 8.13668 23.0906C8.2242 23.1803 8.3429 23.2308 8.46667 23.2308H21.5333C21.6571 23.2308 21.7758 23.1803 21.8633 23.0906C21.9508 23.0008 22 22.8791 22 22.7521C21.998 20.8486 21.2599 19.0237 19.9476 17.6777C18.6352 16.3317 16.8559 15.5747 15 15.5727Z" fill="black"/>
<path d="M15 15.094C17.4485 15.094 19.4333 13.0583 19.4333 10.547C19.4333 8.03577 17.4485 6 15 6C12.5515 6 10.5667 8.03577 10.5667 10.547C10.5667 13.0583 12.5515 15.094 15 15.094Z" fill="black"/>
</svg>
