<svg width="24" height="24" viewBox="0 0 24 24" fill="none" xmlns="http://www.w3.org/2000/svg">
<path d="M12 24C5.4 24 0 18.6 0 12C0 5.4 5.4 0 12 0C18.6 0 24 5.4 24 12C24 18.6 18.6 24 12 24ZM12 23C18.1 23 23 18.1 23 12C23 5.9 18.1 1 12 1C5.9 1 1 5.9 1 12C1 18.1 5.9 23 12 23Z" fill="black"/>
<path d="M6 12C6 12.1989 6.07902 12.3897 6.21967 12.5303C6.36032 12.671 6.55109 12.75 6.75 12.75H11.125C11.1582 12.75 11.1899 12.7632 11.2134 12.7866C11.2368 12.8101 11.25 12.8418 11.25 12.875V17.25C11.25 17.4489 11.329 17.6397 11.4697 17.7803C11.6103 17.921 11.8011 18 12 18C12.1989 18 12.3897 17.921 12.5303 17.7803C12.671 17.6397 12.75 17.4489 12.75 17.25V12.875C12.75 12.8418 12.7632 12.8101 12.7866 12.7866C12.8101 12.7632 12.8418 12.75 12.875 12.75H17.25C17.4489 12.75 17.6397 12.671 17.7803 12.5303C17.921 12.3897 18 12.1989 18 12C18 11.8011 17.921 11.6103 17.7803 11.4697C17.6397 11.329 17.4489 11.25 17.25 11.25H12.875C12.8418 11.25 12.8101 11.2368 12.7866 11.2134C12.7632 11.1899 12.75 11.1582 12.75 11.125V6.75C12.75 6.55109 12.671 6.36032 12.5303 6.21967C12.3897 6.07902 12.1989 6 12 6C11.8011 6 11.6103 6.07902 11.4697 6.21967C11.329 6.36032 11.25 6.55109 11.25 6.75V11.125C11.25 11.1582 11.2368 11.1899 11.2134 11.2134C11.1899 11.2368 11.1582 11.25 11.125 11.25H6.75C6.55109 11.25 6.36032 11.329 6.21967 11.4697C6.07902 11.6103 6 11.8011 6 12Z" fill="black"/>
</svg>
