<svg width="28" height="28" viewBox="0 0 28 28" fill="currentColor" xmlns="http://www.w3.org/2000/svg">
<path fill-rule="evenodd" clip-rule="evenodd" d="M0 14C0 6.26785 6.26785 0 14 0C21.7332 0 28 6.26785 28 14C28 21.7321 21.7332 28 14 28C6.26785 28 0 21.7321 0 14ZM13.8098 19.5733L20.774 9.72628C20.8604 9.61482 20.9243 9.48625 20.9617 9.34834C20.9991 9.21044 21.0092 9.06606 20.9916 8.92395C20.9739 8.78183 20.9288 8.64492 20.8589 8.52149C20.789 8.39806 20.6959 8.29067 20.585 8.20582C20.4742 8.12096 20.348 8.0604 20.2141 8.0278C20.0801 7.9952 19.9413 7.99123 19.8058 8.01613C19.6704 8.04103 19.5412 8.09428 19.426 8.17267C19.3109 8.25106 19.2122 8.35296 19.136 8.47221L12.8005 17.4309L8.65359 13.974C8.44285 13.7983 8.17375 13.717 7.90548 13.748C7.63721 13.779 7.39176 13.9198 7.22311 14.1394C7.05447 14.359 6.97645 14.6393 7.00621 14.9189C7.02095 15.0573 7.06171 15.1913 7.12615 15.3133C7.1906 15.4353 7.27748 15.5428 7.38183 15.6299L12.3549 19.7726C12.4625 19.8603 12.5858 19.9247 12.7176 19.9622C12.8494 19.9997 12.987 20.0094 13.1225 19.9909C13.2579 19.9723 13.3884 19.9258 13.5065 19.8541C13.6245 19.7825 13.7276 19.687 13.8098 19.5733Z" fill="currentColor"/>
</svg>
