<svg width="24" height="24" viewBox="0 0 24 24" fill="none" xmlns="http://www.w3.org/2000/svg">
<path d="M12 24C5.4 24 0 18.6 0 12C0 5.4 5.4 0 12 0C18.6 0 24 5.4 24 12C24 18.6 18.6 24 12 24ZM12 23C18.1 23 23 18.1 23 12C23 5.9 18.1 1 12 1C5.9 1 1 5.9 1 12C1 18.1 5.9 23 12 23Z" fill="black"/>
<path d="M6.86663 12.7333H17.1333C17.3278 12.7333 17.5143 12.6561 17.6518 12.5185C17.7894 12.381 17.8666 12.1945 17.8666 12C17.8666 11.8055 17.7894 11.619 17.6518 11.4815C17.5143 11.3439 17.3278 11.2667 17.1333 11.2667H6.86663C6.67214 11.2667 6.48562 11.3439 6.34809 11.4815C6.21056 11.619 6.1333 11.8055 6.1333 12C6.1333 12.1945 6.21056 12.381 6.34809 12.5185C6.48562 12.6561 6.67214 12.7333 6.86663 12.7333V12.7333Z" fill="black"/>
</svg>
