<svg width="20" height="20" viewBox="0 0 20 20" fill="none" xmlns="http://www.w3.org/2000/svg">
<g clip-path="url(#clip0)">
<path d="M10 0C8.02219 0 6.08879 0.58649 4.4443 1.6853C2.79981 2.78412 1.51809 4.3459 0.761209 6.17316C0.00433286 8.00043 -0.1937 10.0111 0.192152 11.9509C0.578004 13.8907 1.53041 15.6725 2.92894 17.0711C4.32746 18.4696 6.10929 19.422 8.0491 19.8078C9.98891 20.1937 11.9996 19.9957 13.8268 19.2388C15.6541 18.4819 17.2159 17.2002 18.3147 15.5557C19.4135 13.9112 20 11.9778 20 10C19.9971 7.34871 18.9426 4.80684 17.0679 2.9321C15.1932 1.05736 12.6513 0.00286757 10 0V0ZM14.3333 14.3508C14.1822 14.5107 13.9748 14.6056 13.7551 14.6152C13.5353 14.6248 13.3204 14.5486 13.1558 14.4025L9.02334 10.6142C8.93762 10.5364 8.86905 10.4416 8.82199 10.3359C8.77493 10.2301 8.75041 10.1157 8.75 10V5.41667C8.75 5.19565 8.8378 4.98369 8.99408 4.82741C9.15036 4.67113 9.36232 4.58333 9.58334 4.58333C9.80435 4.58333 10.0163 4.67113 10.1726 4.82741C10.3289 4.98369 10.4167 5.19565 10.4167 5.41667V9.63333L14.2783 13.1733C14.3594 13.247 14.4252 13.336 14.4718 13.4351C14.5185 13.5343 14.5451 13.6416 14.5502 13.7511C14.5553 13.8605 14.5388 13.9699 14.5016 14.073C14.4644 14.176 14.4072 14.2707 14.3333 14.3517V14.3508Z" fill="black"/>
</g>
<defs>
<clipPath id="clip0">
<rect width="20" height="20" fill="white"/>
</clipPath>
</defs>
</svg>
