<svg width="30" height="30" viewBox="0 0 30 30" fill="none" xmlns="http://www.w3.org/2000/svg">
<path d="M15 30C23.2843 30 30 23.2843 30 15C30 6.71573 23.2843 0 15 0C6.71573 0 0 6.71573 0 15C0 23.2843 6.71573 30 15 30Z" fill="#FFE7D1"/>
<path d="M21.1336 17.9617C21.0051 17.9728 20.8783 17.9787 20.7447 17.9787C20.6111 17.9787 20.4843 17.9728 20.3557 17.9617C20.2969 17.9566 20.2376 17.9639 20.1816 17.983C20.1257 18.0021 20.0744 18.0326 20.0309 18.0726C19.9874 18.1127 19.9528 18.1613 19.9291 18.2155C19.9055 18.2696 19.8934 18.3281 19.8936 18.3872V19.2553C19.8936 20.4403 19.4229 21.5768 18.5849 22.4147C17.747 23.2527 16.6105 23.7234 15.4255 23.7234C14.2405 23.7234 13.104 23.2527 12.2661 22.4147C11.4282 21.5768 10.9574 20.4403 10.9574 19.2553V16.8383C12.146 16.6364 13.2249 16.0208 14.0036 15.1005C14.7822 14.1801 15.2105 13.0141 15.2128 11.8085V9.25532C15.2108 8.51966 14.9703 7.80449 14.5272 7.2172C14.0842 6.6299 13.4626 6.20219 12.7557 5.9983C12.728 5.99035 12.7036 5.97359 12.6863 5.95056C12.6689 5.92753 12.6596 5.89947 12.6596 5.87064V5.85106C12.6596 5.62535 12.5699 5.40888 12.4103 5.24927C12.2507 5.08967 12.0342 5 11.8085 5C11.5828 5 11.3663 5.08967 11.2067 5.24927C11.0471 5.40888 10.9574 5.62535 10.9574 5.85106V7.97872C10.9574 8.20444 11.0471 8.42091 11.2067 8.58052C11.3663 8.74012 11.5828 8.82979 11.8085 8.82979C12.0342 8.82979 12.2507 8.74012 12.4103 8.58052C12.5699 8.42091 12.6596 8.20444 12.6596 7.97872C12.6595 7.95981 12.6647 7.94126 12.6747 7.92517C12.6846 7.90907 12.6988 7.89608 12.7157 7.88766C12.7326 7.87925 12.7515 7.87567 12.7703 7.87733C12.789 7.87898 12.807 7.8858 12.8221 7.89702C13.0352 8.05377 13.2084 8.25832 13.328 8.49424C13.4476 8.73015 13.5102 8.99083 13.5106 9.25532V11.8085C13.5106 12.7114 13.152 13.5773 12.5136 14.2157C11.8751 14.8541 11.0092 15.2128 10.1064 15.2128C9.20352 15.2128 8.33763 14.8541 7.69921 14.2157C7.06079 13.5773 6.70213 12.7114 6.70213 11.8085V9.25532C6.70208 8.99026 6.76437 8.7289 6.88398 8.49235C7.00358 8.25581 7.17714 8.05071 7.39064 7.89362C7.40578 7.88239 7.42373 7.87558 7.44251 7.87392C7.46128 7.87227 7.48015 7.87585 7.49702 7.88426C7.51448 7.89292 7.52907 7.90645 7.53904 7.92321C7.549 7.93996 7.55391 7.95924 7.55319 7.97872C7.55319 8.20444 7.64286 8.42091 7.80246 8.58052C7.96207 8.74012 8.17854 8.82979 8.40426 8.82979C8.62997 8.82979 8.84644 8.74012 9.00605 8.58052C9.16565 8.42091 9.25532 8.20444 9.25532 7.97872V5.85106C9.25532 5.62535 9.16565 5.40888 9.00605 5.24927C8.84644 5.08967 8.62997 5 8.40426 5C8.17854 5 7.96207 5.08967 7.80246 5.24927C7.64286 5.40888 7.55319 5.62535 7.55319 5.85106V5.87064C7.55334 5.89951 7.54401 5.92763 7.52664 5.95069C7.50927 5.97375 7.48481 5.99048 7.45702 5.9983C6.75018 6.20219 6.12857 6.6299 5.68553 7.2172C5.24249 7.80449 5.00194 8.51966 5 9.25532V11.8085C5.00224 13.0141 5.43053 14.1801 6.20919 15.1005C6.98785 16.0208 8.06677 16.6364 9.25532 16.8383V19.2553C9.25532 20.8918 9.90539 22.4612 11.0625 23.6183C12.2197 24.7755 13.7891 25.4255 15.4255 25.4255C17.062 25.4255 18.6314 24.7755 19.7885 23.6183C20.9457 22.4612 21.5957 20.8918 21.5957 19.2553V18.3864C21.596 18.3273 21.5839 18.2688 21.5602 18.2146C21.5366 18.1605 21.5019 18.1118 21.4585 18.0718C21.415 18.0317 21.3636 18.0012 21.3077 17.9821C21.2518 17.963 21.1925 17.9566 21.1336 17.9617Z" fill="black"/>
<path d="M20.7447 8.61702C19.9031 8.61702 19.0803 8.86659 18.3806 9.33417C17.6808 9.80175 17.1354 10.4663 16.8133 11.2439C16.4912 12.0215 16.4069 12.8771 16.5711 13.7025C16.7353 14.528 17.1406 15.2862 17.7357 15.8813C18.3308 16.4764 19.0891 16.8817 19.9145 17.0459C20.74 17.2101 21.5956 17.1258 22.3731 16.8037C23.1507 16.4817 23.8153 15.9363 24.2829 15.2365C24.7504 14.5367 25 13.714 25 12.8723C24.9986 11.7442 24.5499 10.6626 23.7522 9.86487C22.9544 9.06713 21.8728 8.61837 20.7447 8.61702ZM20.7447 15.4255C20.2397 15.4255 19.7461 15.2758 19.3262 14.9952C18.9063 14.7147 18.5791 14.3159 18.3858 13.8494C18.1926 13.3829 18.142 12.8695 18.2405 12.3742C18.3391 11.879 18.5822 11.424 18.9393 11.067C19.2964 10.7099 19.7513 10.4667 20.2466 10.3682C20.7418 10.2697 21.2552 10.3203 21.7217 10.5135C22.1883 10.7067 22.587 11.034 22.8676 11.4539C23.1481 11.8737 23.2979 12.3674 23.2979 12.8723C23.2979 13.5495 23.0289 14.1989 22.5501 14.6777C22.0712 15.1565 21.4218 15.4255 20.7447 15.4255Z" fill="black"/>
<path d="M20.7447 14.1489C21.4497 14.1489 22.0213 13.5774 22.0213 12.8723C22.0213 12.1673 21.4497 11.5957 20.7447 11.5957C20.0396 11.5957 19.4681 12.1673 19.4681 12.8723C19.4681 13.5774 20.0396 14.1489 20.7447 14.1489Z" fill="black"/>
</svg>
