<svg width="70" height="70" viewBox="0 0 70 70" fill="none" xmlns="http://www.w3.org/2000/svg">
<path d="M35 70C54.33 70 70 54.33 70 35C70 15.67 54.33 0 35 0C15.67 0 0 15.67 0 35C0 54.33 15.67 70 35 70Z" fill="#FFE7D1"/>
<path d="M48.7033 26.4526L34.1908 46.1467C34.0195 46.374 33.8046 46.5649 33.5587 46.7083C33.3127 46.8517 33.0407 46.9446 32.7585 46.9817C32.4763 47.0188 32.1895 46.9993 31.9148 46.9244C31.6402 46.8495 31.3833 46.7206 31.159 46.5453L20.7957 38.2597C20.5782 38.0857 20.3972 37.8705 20.2629 37.6266C20.1286 37.3826 20.0437 37.1145 20.0129 36.8377C19.9509 36.2787 20.1135 35.7179 20.4649 35.2788C20.8164 34.8396 21.3279 34.558 21.8869 34.496C22.4459 34.434 23.0067 34.5966 23.4459 34.948L32.0876 41.8618L45.2898 23.9444C45.4488 23.7059 45.6544 23.5021 45.8943 23.3453C46.1342 23.1886 46.4035 23.0821 46.6857 23.0323C46.968 22.9825 47.2574 22.9904 47.5365 23.0556C47.8156 23.1208 48.0785 23.2419 48.3095 23.4116C48.5405 23.5813 48.7346 23.7961 48.8802 24.043C49.0258 24.2898 49.1199 24.5637 49.1567 24.8479C49.1935 25.1321 49.1723 25.4209 49.0944 25.6967C49.0164 25.9725 48.8834 26.2296 48.7033 26.4526Z" fill="black"/>
</svg>
