<svg width="24" height="24" viewBox="0 0 24 24" fill="none" xmlns="http://www.w3.org/2000/svg">
<circle cx="12" cy="12" r="8" fill="black"/>
<path d="M12.1176 11.0558C12.1176 11.0558 12.1176 11.0558 12.1176 11.0558M12.1176 11.0558L12.1179 11.0561L12.1176 11.0558M12.1176 11.0558L12.1176 11.0558M12.1176 11.0558L12.1176 11.0558M16.0308 9.03053L16.031 9.0304L15.1461 8.14677L14.9694 7.96996L14.9693 7.97004C14.9692 7.97007 14.9692 7.97009 14.9692 7.97012L11.9999 10.9381L9.03049 7.97004C9.03047 7.97001 9.03044 7.96998 9.03041 7.96996C8.9608 7.90033 8.87816 7.84509 8.78721 7.8074C8.69622 7.76968 8.59869 7.75026 8.5002 7.75024C8.30128 7.75019 8.11049 7.82916 7.9698 7.96979C7.82911 8.11041 7.75005 8.30116 7.75 8.50008C7.74995 8.699 7.82893 8.88979 7.96955 9.03048L7.96958 9.03051L10.9387 12L7.96957 14.9697L7.96955 14.9698C7.89992 15.0394 7.8447 15.1221 7.80702 15.2131C7.76935 15.3041 7.74998 15.4017 7.75 15.5002C7.75005 15.6991 7.82911 15.8898 7.9698 16.0304C8.03946 16.1001 8.12216 16.1553 8.21316 16.193C8.30417 16.2306 8.40171 16.25 8.5002 16.25C8.6991 16.25 8.88984 16.1709 9.03046 16.0302C9.03047 16.0302 9.03048 16.0302 9.03049 16.0302L11.9999 13.0605L14.9693 16.0302C14.9693 16.0302 14.9693 16.0302 14.9693 16.0302C15.1099 16.1709 15.3007 16.25 15.4996 16.25C15.6985 16.25 15.8893 16.1711 16.03 16.0304C16.1707 15.8898 16.2497 15.6991 16.2498 15.5002C16.2498 15.3012 16.1708 15.1104 16.0302 14.9698L16.0302 14.9697L13.0611 12L16.0308 9.03053ZM11.8819 11.0561C11.882 11.056 11.8821 11.0559 11.8821 11.0558L11.8819 11.0561ZM12.1177 12.9427C12.1176 12.9427 12.1176 12.9427 12.1176 12.9428L12.1177 12.9427ZM11.8819 12.9425L11.8821 12.9427L11.8819 12.9425ZM11.0567 12.118C11.0566 12.1179 11.0565 12.1178 11.0565 12.1177L11.0567 12.118Z" fill="white" stroke="white" stroke-width="0.5"/>
</svg>
