<svg width="24" height="24" viewBox="0 0 24 24" fill="none" xmlns="http://www.w3.org/2000/svg">
<path d="M13.3414 12.1032C13.3278 12.0896 13.3171 12.0735 13.3097 12.0558C13.3023 12.0381 13.2986 12.0191 13.2986 11.9999C13.2986 11.9807 13.3023 11.9617 13.3097 11.944C13.3171 11.9263 13.3278 11.9102 13.3414 11.8967L18.7446 6.49405C18.9087 6.32976 19.0007 6.10702 19.0006 5.87483C19.0004 5.64265 18.908 5.42004 18.7437 5.25598C18.5794 5.09192 18.3567 4.99984 18.1245 5C17.8923 5.00017 17.6697 5.09256 17.5057 5.25685L12.103 10.6571C12.0895 10.6707 12.0734 10.6815 12.0557 10.6888C12.038 10.6962 12.019 10.7 11.9998 10.7C11.9806 10.7 11.9616 10.6962 11.9439 10.6888C11.9262 10.6815 11.9101 10.6707 11.8965 10.6571L6.49393 5.25685C6.4127 5.17558 6.31625 5.1111 6.21009 5.0671C6.10394 5.0231 5.99016 5.00044 5.87525 5.00041C5.64317 5.00036 5.42058 5.0925 5.25644 5.25656C5.0923 5.42062 5.00005 5.64317 5 5.87525C4.99995 6.10732 5.09208 6.32991 5.25615 6.49405L10.6582 11.8967C10.6718 11.9102 10.6825 11.9263 10.6899 11.944C10.6972 11.9617 10.701 11.9807 10.701 11.9999C10.701 12.0191 10.6972 12.0381 10.6899 12.0558C10.6825 12.0735 10.6718 12.0896 10.6582 12.1032L5.25615 17.5064C5.17491 17.5876 5.11048 17.6841 5.06653 17.7903C5.02258 17.8965 4.99997 18.0103 5 18.1252C5.00005 18.3572 5.0923 18.5798 5.25644 18.7439C5.33771 18.8251 5.43419 18.8895 5.54037 18.9335C5.64654 18.9774 5.76033 19 5.87525 19C6.10732 18.9999 6.32987 18.9077 6.49393 18.7436L11.8965 13.3404C11.9101 13.3268 11.9262 13.316 11.9439 13.3087C11.9616 13.3013 11.9806 13.2975 11.9998 13.2975C12.019 13.2975 12.038 13.3013 12.0557 13.3087C12.0734 13.316 12.0895 13.3268 12.103 13.3404L17.5057 18.7436C17.6697 18.9077 17.8923 18.9999 18.1243 19C18.3564 19.0001 18.579 18.9079 18.7431 18.7439C18.9073 18.5798 18.9995 18.3572 18.9996 18.1252C18.9996 17.8931 18.9075 17.6705 18.7434 17.5064L13.3414 12.1032Z" fill="currentColor"/>
</svg>
