<svg height="92" viewBox="0 0 92 92" width="92" xmlns="http://www.w3.org/2000/svg" xmlns:xlink="http://www.w3.org/1999/xlink"><linearGradient id="a" x1="102.191996%" x2="5.449078%" y1="-7.855225%" y2="117.041016%"><stop offset="0" stop-color="#ff6e26"/><stop offset="1" stop-color="#ef8e8e"/></linearGradient><linearGradient id="b" x1="50%" x2="50%" y1="0%" y2="100%"><stop offset="0" stop-color="#0a1e2d"/><stop offset="1" stop-color="#040d14"/></linearGradient><g fill="none" fill-rule="evenodd"><circle cx="46" cy="46" fill="#f3f4f5" fill-rule="nonzero" r="46"/><g transform="translate(17 24)"><path d="m13.0262857 43c-2.7761633 0-5.0262857-2.2331944-5.0262857-4.9884722v-25.0230556c0-2.7552778 2.2501224-4.9884722 5.0262857-4.9884722h37.9474286c2.7761633 0 5.0262857 2.2331944 5.0262857 4.9884722v25.0230556c0 2.7552778-2.2501224 4.9884722-5.0262857 4.9884722z" fill="url(#a)"/><path d="m42.9737143 35h-37.94742859c-2.77616326 0-5.02628571-2.2331944-5.02628571-4.9884722v-25.02305558c0-2.75527778 2.25012245-4.98847222 5.02628571-4.98847222h37.94742859c2.7761633 0 5.0262857 2.23319444 5.0262857 4.98847222v25.02305558c0 2.7552778-2.2501224 4.9884722-5.0262857 4.9884722" fill="url(#b)"/><path d="m0 14h48v-6h-48z" fill="#363d43"/><path d="m14 25.5c0 2.485-2.015 4.5-4.5 4.5s-4.5-2.015-4.5-4.5 2.015-4.5 4.5-4.5 4.5 2.015 4.5 4.5" fill="#ff781d"/><path d="m20 25.5c0 2.485-2.015 4.5-4.5 4.5s-4.5-2.015-4.5-4.5 2.015-4.5 4.5-4.5 4.5 2.015 4.5 4.5" fill="#fff"/></g></g></svg>
