<svg height="92" viewBox="0 0 92 92" width="92" xmlns="http://www.w3.org/2000/svg" xmlns:xlink="http://www.w3.org/1999/xlink"><linearGradient id="a" x1="50%" x2="50%" y1="0%" y2="100%"><stop offset="0" stop-color="#0a1e2d"/><stop offset="1" stop-color="#040d14"/></linearGradient><filter id="b" height="216.7%" width="216.7%" x="-58.3%" y="-58.3%"><feOffset dx="0" dy="2" in="SourceAlpha" result="shadowOffsetOuter1"/><feGaussianBlur in="shadowOffsetOuter1" result="shadowBlurOuter1" stdDeviation="3.5"/><feColorMatrix in="shadowBlurOuter1" result="shadowMatrixOuter1" type="matrix" values="0 0 0 0 0.0901960784   0 0 0 0 0.168627451   0 0 0 0 0.254901961  0 0 0 0.13 0"/><feMerge><feMergeNode in="shadowMatrixOuter1"/><feMergeNode in="SourceGraphic"/></feMerge></filter><g fill="none" fill-rule="evenodd"><circle cx="46" cy="46" fill="#f3f4f5" fill-rule="nonzero" r="46"/><g transform="translate(22 29)"><path d="m42.9737143 35h-37.94742859c-2.77616326 0-5.02628571-2.2331944-5.02628571-4.9884722v-25.02305558c0-2.75527778 2.25012245-4.98847222 5.02628571-4.98847222h37.94742859c2.7761633 0 5.0262857 2.23319444 5.0262857 4.98847222v25.02305558c0 2.7552778-2.2501224 4.9884722-5.0262857 4.9884722" fill="url(#a)"/><path d="m0 14h48v-6h-48z" fill="#363d43"/><path d="m14 25.5c0 2.485-2.015 4.5-4.5 4.5s-4.5-2.015-4.5-4.5 2.015-4.5 4.5-4.5 4.5 2.015 4.5 4.5" fill="#ff781d"/><path d="m20 25.5c0 2.485-2.015 4.5-4.5 4.5s-4.5-2.015-4.5-4.5 2.015-4.5 4.5-4.5 4.5 2.015 4.5 4.5" fill="#fff"/></g><g filter="url(#b)" transform="translate(52 18)"><circle cx="15" cy="15" fill="#ff781d" fill-rule="nonzero" r="15"/><text fill="#fff" font-family="Montserrat-Medium, Montserrat" font-size="17.747999" font-weight="400"><tspan x="9.792197" y="20.654">?</tspan></text></g></g></svg>
