<svg height="92" viewBox="0 0 92 92" width="92" xmlns="http://www.w3.org/2000/svg"><g fill="none" fill-rule="evenodd"><circle cx="46" cy="46" fill="#f3f4f5" fill-rule="nonzero" r="46"/><g transform="translate(23 29)"><path d="m2.166667 8.666667h35.75v27.083333h-35.75z" fill="#fff" fill-rule="nonzero"/><path d="m4 34h30v-22h-30zm30-34h-29c-2.77555556 0-5 2.22444444-5 5v29c0 2.7755556 2.22444444 5 5 5h29c2.7755556 0 5-2.2244444 5-5v-29c0-2.77555556-2.2244444-5-5-5z" fill="#ff781d"/><path d="m9 23h7v-7h-7z" fill="#172b41"/></g><g fill-rule="nonzero"><circle cx="59" cy="34" fill="#172b41" r="15"/><path d="m60 39v2h-2v-2zm0-12v9h-2v-9z" fill="#fff"/></g></g></svg>
