<svg width="24" height="24" viewBox="0 0 24 24" fill="none" xmlns="http://www.w3.org/2000/svg">
<path d="M19.6748 10.8264C19.4839 10.6613 19.2342 10.5775 18.9804 10.5934C18.7266 10.6093 18.4897 10.7235 18.3217 10.911L13.2673 16.554C13.2444 16.5792 13.2142 16.597 13.1808 16.605C13.1474 16.613 13.1122 16.6108 13.0801 16.5989C13.0479 16.5869 13.0202 16.5656 13.0005 16.5379C12.9809 16.5101 12.9703 16.4771 12.9701 16.4433V4.94138C12.9701 4.69171 12.8692 4.45227 12.6895 4.27573C12.5098 4.09918 12.266 4 12.0119 4C11.7578 4 11.514 4.09918 11.3343 4.27573C11.1547 4.45227 11.0537 4.69171 11.0537 4.94138V16.4433C11.0535 16.4771 11.0429 16.5101 11.0233 16.5379C11.0036 16.5656 10.9759 16.5869 10.9437 16.5989C10.9116 16.6108 10.8764 16.613 10.843 16.605C10.8096 16.597 10.7794 16.5792 10.7565 16.554L5.70078 10.911C5.61916 10.8131 5.51828 10.7323 5.40418 10.6736C5.29007 10.6148 5.16508 10.5792 5.03667 10.5689C4.90825 10.5587 4.77905 10.5739 4.65677 10.6138C4.53449 10.6537 4.42165 10.7174 4.32498 10.801C4.22831 10.8847 4.1498 10.9867 4.09413 11.1008C4.03846 11.215 4.00678 11.339 4.00097 11.4654C3.99517 11.5919 4.01536 11.7182 4.06035 11.8368C4.10533 11.9554 4.17418 12.0639 4.26279 12.1558L10.8128 19.4668C10.9626 19.6344 11.147 19.7686 11.3538 19.8605C11.5606 19.9524 11.7849 20 12.0119 20C12.2389 20 12.4632 19.9524 12.67 19.8605C12.8768 19.7686 13.0612 19.6344 13.211 19.4668L19.761 12.1551C19.8442 12.0623 19.9079 11.9543 19.9486 11.8373C19.9892 11.7203 20.0061 11.5966 19.9981 11.4732C19.9901 11.3498 19.9574 11.2292 19.9019 11.1182C19.8465 11.0072 19.7693 10.908 19.6748 10.8264V10.8264Z" fill="black"/>
</svg>
