<svg width="32" height="32" viewBox="0 0 32 32" fill="none" xmlns="http://www.w3.org/2000/svg">
<path d="M10.3226 17.7634C7.58576 17.7664 4.96186 18.8548 3.02663 20.7901C1.0914 22.7253 0.00291462 25.3492 0 28.086C0 28.2685 0.0725036 28.4436 0.201561 28.5726C0.330618 28.7017 0.505657 28.7742 0.688172 28.7742H19.957C20.1395 28.7742 20.3145 28.7017 20.4436 28.5726C20.5727 28.4436 20.6452 28.2685 20.6452 28.086C20.6422 25.3492 19.5538 22.7253 17.6185 20.7901C15.6833 18.8548 13.0594 17.7664 10.3226 17.7634Z" fill="black"/>
<path d="M10.3226 17.0753C13.9332 17.0753 16.8602 14.1483 16.8602 10.5376C16.8602 6.927 13.9332 4 10.3226 4C6.71194 4 3.78495 6.927 3.78495 10.5376C3.78495 14.1483 6.71194 17.0753 10.3226 17.0753Z" fill="black"/>
<path d="M24.2581 20.5161C22.2054 20.5183 20.2375 21.3347 18.7861 22.7861C17.3347 24.2375 16.5183 26.2054 16.5161 28.2581C16.5161 28.3949 16.5705 28.5262 16.6673 28.623C16.7641 28.7198 16.8954 28.7742 17.0323 28.7742H31.4839C31.6208 28.7742 31.752 28.7198 31.8488 28.623C31.9456 28.5262 32 28.3949 32 28.2581C31.9978 26.2054 31.1814 24.2375 29.73 22.7861C28.2786 21.3347 26.3107 20.5183 24.2581 20.5161Z" fill="black"/>
<path d="M24.2581 20C26.966 20 29.1613 17.8048 29.1613 15.0968C29.1613 12.3888 26.966 10.1935 24.2581 10.1935C21.5501 10.1935 19.3548 12.3888 19.3548 15.0968C19.3548 17.8048 21.5501 20 24.2581 20Z" fill="black"/>
</svg>
