<svg width="45" height="71" viewBox="0 0 45 71" fill="none" xmlns="http://www.w3.org/2000/svg">
<path fill-rule="evenodd" clip-rule="evenodd" d="M39 54C39 63.3891 31.3887 71 22 71C12.6113 71 5 63.3891 5 54C5 44.6109 12.6113 37 22 37C31.3887 37 39 44.6109 39 54Z" fill="#172B41"/>
<path d="M22.5002 0C17.5952 0.00536143 12.8929 1.9035 9.42463 5.278C5.95638 8.65249 4.00551 13.2277 4 18C4 25.8976 15.5626 45.056 20.5299 52.9288C20.7369 53.2563 21.0267 53.5267 21.3716 53.7142C21.7165 53.9016 22.105 54 22.5002 54C22.8958 54.0019 23.2851 53.9039 23.6304 53.7157C23.9757 53.5279 24.2651 53.2559 24.4705 52.9265C29.4377 45.0583 41 25.9065 41 18C40.9944 13.2277 39.0436 8.65249 35.5756 5.278C32.1073 1.9035 27.4048 0.00536143 22.5002 0ZM22.5002 25.8749C20.8994 25.8749 19.3343 25.4132 18.0035 24.5476C16.6723 23.6825 15.635 22.4524 15.0224 21.0137C14.4098 19.5746 14.2495 17.9912 14.5618 16.4637C14.8741 14.936 15.645 13.5329 16.7769 12.4315C17.9087 11.3302 19.351 10.5802 20.9212 10.2763C22.4911 9.97244 24.1184 10.1284 25.5975 10.7244C27.0762 11.3205 28.3404 12.3299 29.2296 13.6249C30.1192 14.9199 30.5937 16.4425 30.5937 18C30.5937 20.0884 29.741 22.0918 28.2231 23.5683C26.7055 25.0452 24.6465 25.8749 22.5002 25.8749Z" fill="#FFE7D1"/>
<path fill-rule="evenodd" clip-rule="evenodd" d="M31 18.5C31 23.1946 27.1946 27 22.5 27C17.8054 27 14 23.1946 14 18.5C14 13.8054 17.8054 10 22.5 10C27.1946 10 31 13.8054 31 18.5Z" fill="white"/>
</svg>
