<svg width="40" height="40" viewBox="0 0 40 40" fill="none" xmlns="http://www.w3.org/2000/svg">
  <path fill-rule="evenodd" clip-rule="evenodd" d="M36 0H4C1.8 0 0 1.8 0 4V36C0 38.2 1.8 40 4 40H36C38.2 40 40 38.2 40 36V4C40 1.8 38.2 0 36 0V0Z" fill="black"/>
  <path fill-rule="evenodd" clip-rule="evenodd" d="M28.8 11H11.2C9.99 11 9 11.99 9 13.2V26.4C9 27.61 9.99 28.6 11.2 28.6H28.8C30.01 28.6 31 27.61 31 26.4V13.2C31 11.99 30.01 11 28.8 11V11ZM28.8 15.4L20 20.9L11.2 15.4V13.2L20 18.7L28.8 13.2V15.4V15.4Z" fill="white"/>
</svg>
