<svg width="80" height="80" viewBox="0 0 80 80" fill="none" xmlns="http://www.w3.org/2000/svg">
<path d="M40 80C62.0914 80 80 62.0914 80 40C80 17.9086 62.0914 0 40 0C17.9086 0 0 17.9086 0 40C0 62.0914 17.9086 80 40 80Z" fill="black"/>
<path d="M55.8507 31.4427C55.8061 31.4237 55.7569 31.4186 55.7094 31.4278C55.6619 31.4371 55.6182 31.4604 55.584 31.4947L42.588 44.488C41.9004 45.1752 40.9681 45.5612 39.996 45.5612C39.0239 45.5612 38.0916 45.1752 37.404 44.488L24.4133 31.4947C24.3793 31.4601 24.3357 31.4366 24.2881 31.4273C24.2405 31.418 24.1912 31.4234 24.1467 31.4427C24.1029 31.4615 24.0657 31.4928 24.0396 31.5326C24.0136 31.5724 23.9998 31.6191 24 31.6667V47.6667C24 48.3739 24.281 49.0522 24.7811 49.5523C25.2811 50.0524 25.9594 50.3333 26.6667 50.3333H53.3333C54.0406 50.3333 54.7189 50.0524 55.2189 49.5523C55.719 49.0522 56 48.3739 56 47.6667V31.6667C56.0002 31.6187 55.9861 31.5718 55.9595 31.5319C55.9329 31.492 55.895 31.4609 55.8507 31.4427Z" fill="#FFE7D1"/>
<path d="M38.82 43.0747C39.1329 43.3867 39.5568 43.5619 39.9987 43.5619C40.4406 43.5619 40.8644 43.3867 41.1773 43.0747L54.092 30.16C54.1794 30.0726 54.2408 29.9625 54.2693 29.8422C54.2978 29.7219 54.2923 29.596 54.2533 29.4787C54.1067 29.04 53.6987 29 53.3333 29H26.6667C26.3 29 25.8893 29.04 25.7453 29.4787C25.7064 29.596 25.7009 29.7219 25.7294 29.8422C25.7579 29.9625 25.8192 30.0726 25.9067 30.16L38.82 43.0747Z" fill="#FFE7D1"/>
</svg>
