<svg width="22" height="19" viewBox="0 0 22 19" fill="none" xmlns="http://www.w3.org/2000/svg">
<path d="M11 11.2565C9.99009 11.2569 8.9977 10.9927 8.12167 10.4902L0.6875 6.21667C0.617893 6.17648 0.538941 6.1553 0.458565 6.15526C0.378189 6.15522 0.299216 6.17632 0.229568 6.21643C0.15992 6.25655 0.102046 6.31428 0.0617527 6.38383C0.0214592 6.45337 0.000162698 6.53229 0 6.61267V15.3833C0 15.9668 0.231785 16.5264 0.644365 16.939C1.05695 17.3515 1.61652 17.5833 2.2 17.5833H19.8C20.3835 17.5833 20.9431 17.3515 21.3556 16.939C21.7682 16.5264 22 15.9668 22 15.3833V6.61267C21.9998 6.53229 21.9785 6.45337 21.9382 6.38383C21.898 6.31428 21.8401 6.25655 21.7704 6.21643C21.7008 6.17632 21.6218 6.15522 21.5414 6.15526C21.4611 6.1553 21.3821 6.17648 21.3125 6.21667L13.8783 10.4902C13.0023 10.9927 12.0099 11.2569 11 11.2565Z" fill="black"/>
<path d="M2.20017 2C1.81094 1.9999 1.4296 2.10985 1.10017 2.31717C1.03294 2.35911 0.977727 2.41777 0.93993 2.48743C0.902134 2.55708 0.883042 2.63534 0.88452 2.71457C0.885997 2.79381 0.907993 2.8713 0.94836 2.9395C0.988727 3.00769 1.04609 3.06426 1.11484 3.10367L9.49501 7.92167C9.95337 8.18566 10.4731 8.32462 11.002 8.32462C11.531 8.32462 12.0506 8.18566 12.509 7.92167L20.8892 3.10367C20.9579 3.06426 21.0153 3.00769 21.0557 2.9395C21.096 2.8713 21.118 2.79381 21.1195 2.71457C21.121 2.63534 21.1019 2.55708 21.0641 2.48743C21.0263 2.41777 20.9711 2.35911 20.9038 2.31717C20.5744 2.10985 20.1931 1.9999 19.8038 2H2.20017Z" fill="black"/>
</svg>
