<svg width="24" height="24" viewBox="0 0 24 24" fill="none" xmlns="http://www.w3.org/2000/svg">
<g clip-path="url(#clip0)">
<path d="M10 4V6H6V18H18V14H20V18C20 19.1 19.1 20 18 20H6C4.9 20 4 19.1 4 18V6C4 4.9 4.9 4 6 4H10Z" fill="black"/>
<path d="M19.5474 12.1477C19.3806 12.1356 19.2242 12.0578 19.1127 11.9314C19.0012 11.805 18.9437 11.6404 18.9528 11.4737L19.2288 6.45937C19.2298 6.43681 19.224 6.41434 19.2121 6.39492C19.2002 6.37549 19.1827 6.36003 19.162 6.35056C19.1413 6.3411 19.1183 6.33807 19.0961 6.34189C19.0739 6.3457 19.0535 6.35617 19.0375 6.37192L13.646 11.7635C13.529 11.8805 13.3694 11.9454 13.2024 11.9439C13.0354 11.9425 12.8747 11.8747 12.7556 11.7556C12.6365 11.6365 12.5687 11.4757 12.5672 11.3087C12.5657 11.1417 12.6307 10.9822 12.7477 10.8651L18.1392 5.47361C18.155 5.45767 18.1655 5.43725 18.1693 5.41504C18.1731 5.39282 18.1701 5.36985 18.1606 5.34916C18.1511 5.32846 18.1357 5.311 18.1162 5.29909C18.0968 5.28717 18.0743 5.28135 18.0518 5.2824L13.0368 5.55769C12.9526 5.56534 12.8675 5.55591 12.7864 5.52998C12.7054 5.50405 12.6301 5.46214 12.5651 5.40676C12.5001 5.35138 12.4467 5.28366 12.4081 5.20765C12.3695 5.13163 12.3464 5.04889 12.3403 4.96435C12.3342 4.87981 12.3452 4.79522 12.3726 4.71561C12.4 4.63601 12.4433 4.56303 12.4999 4.50104C12.5564 4.43905 12.6251 4.38931 12.7018 4.3548C12.7785 4.32028 12.8616 4.3017 12.9462 4.30017L19.4436 3.94342C19.5923 3.93511 19.7417 3.95865 19.8817 4.01248C20.0217 4.06631 20.1492 4.14919 20.2556 4.25558C20.362 4.36197 20.4448 4.48943 20.4987 4.62945C20.5525 4.76948 20.576 4.91884 20.5677 5.06759L20.2107 11.5653C20.2062 11.6477 20.1854 11.7282 20.1496 11.8022C20.1139 11.8761 20.0637 11.9419 20.0021 11.996C19.9406 12.0501 19.8687 12.0913 19.7907 12.1174C19.7127 12.1434 19.63 12.1537 19.5474 12.1477V12.1477Z" fill="black" stroke="black" stroke-width="0.75"/>
</g>
<defs>
<clipPath id="clip0">
<rect width="24" height="24" fill="white"/>
</clipPath>
</defs>
</svg>
