<svg height="59" viewBox="0 0 43 59" width="43" xmlns="http://www.w3.org/2000/svg"><g fill="none" fill-rule="evenodd"><path d="m35 5h4.6199017c1.8666474 0 3.3800983 1.51498618 3.3800983 3.38408295v47.23183415c0 1.8690967-1.5134509 3.3840829-3.3800983 3.3840829h-36.24005199c-1.8666474 0-3.37984971-1.5149862-3.37984971-3.3840829v-47.23183415c0-1.86909677 1.51320231-3.38408295 3.37984971-3.38408295h4.62015029v2.95083871c0 2.62658989 2.3767514 5.04916129 5 5.04916129h17c2.6234971 0 5-2.4225714 5-5.04916129zm-6.7284445 26.020352-6.7716301-8.6387745-6.7713815 8.6387745h5.2800521v9.979648h2.991404l-.0087451-9.979648z" fill="#ff781d"/><path d="m13.2583647 10c-1.2474 0-2.2583647-.99829268-2.2583647-2.2297561v-5.5404878c0-1.23146342 1.0109647-2.2297561 2.2583647-2.2297561h16.4830235c1.2474 0 2.2586118.99829268 2.2586118 2.2297561v5.5404878c0 1.23146342-1.0112118 2.2297561-2.2586118 2.2297561zm-1.2583647 38v-3h19v3z" fill="#172b41"/></g></svg>
