<svg width="95" height="16" viewBox="0 0 95 16" fill="none" xmlns="http://www.w3.org/2000/svg">
<path d="M15.805 6.12C15.7186 5.8528 15.5592 5.61505 15.3449 5.43359C15.1306 5.25213 14.8698 5.13416 14.592 5.093L10.967 4.57L9.341 1.3C9.21659 1.05039 9.02506 0.840405 8.78791 0.693629C8.55077 0.546853 8.27739 0.469099 7.9985 0.469099C7.71961 0.469099 7.44623 0.546853 7.20909 0.693629C6.97194 0.840405 6.78041 1.05039 6.656 1.3L5.035 4.569L1.411 5.093C1.13451 5.13426 0.874902 5.25146 0.661089 5.43155C0.447277 5.61164 0.287654 5.84755 0.2 6.113C0.111973 6.37991 0.101126 6.66626 0.168709 6.93907C0.236291 7.21187 0.379554 7.46005 0.582 7.655L3.2 10.191L2.581 13.776C2.53385 14.0516 2.56466 14.3349 2.66995 14.5939C2.77525 14.8529 2.95085 15.0773 3.17692 15.2418C3.403 15.4064 3.67056 15.5044 3.9494 15.5249C4.22824 15.5455 4.50727 15.4876 4.755 15.358L8 13.662L11.248 15.362C11.4959 15.4918 11.7751 15.5497 12.0542 15.5291C12.3333 15.5085 12.601 15.4103 12.8272 15.2455C13.0533 15.0807 13.2289 14.856 13.334 14.5966C13.4391 14.3373 13.4696 14.0537 13.422 13.778L12.8 10.192L15.418 7.655C15.6192 7.46068 15.7621 7.21396 15.8305 6.94271C15.8989 6.67146 15.89 6.3865 15.805 6.12Z" fill="white"/>
<path d="M35.5561 6.12C35.4696 5.8528 35.3103 5.61505 35.096 5.43359C34.8816 5.25213 34.6209 5.13416 34.3431 5.093L30.7181 4.57L29.0921 1.3C28.9677 1.05039 28.7761 0.840405 28.539 0.693629C28.3018 0.546853 28.0285 0.469099 27.7496 0.469099C27.4707 0.469099 27.1973 0.546853 26.9601 0.693629C26.723 0.840405 26.5315 1.05039 26.4071 1.3L24.7861 4.569L21.1621 5.093C20.8856 5.13426 20.626 5.25146 20.4122 5.43155C20.1983 5.61164 20.0387 5.84755 19.9511 6.113C19.863 6.37991 19.8522 6.66626 19.9198 6.93907C19.9874 7.21187 20.1306 7.46005 20.3331 7.655L22.9511 10.191L22.3321 13.776C22.2849 14.0516 22.3157 14.3349 22.421 14.5939C22.5263 14.8529 22.7019 15.0773 22.928 15.2418C23.1541 15.4064 23.4216 15.5044 23.7005 15.5249C23.9793 15.5455 24.2583 15.4876 24.5061 15.358L27.7511 13.662L30.9991 15.362C31.247 15.4918 31.5262 15.5497 31.8053 15.5291C32.0843 15.5085 32.3521 15.4103 32.5782 15.2455C32.8044 15.0807 32.98 14.856 33.0851 14.5966C33.1902 14.3373 33.2207 14.0537 33.1731 13.778L32.5511 10.192L35.1691 7.655C35.3703 7.46068 35.5132 7.21396 35.5815 6.94271C35.6499 6.67146 35.6411 6.3865 35.5561 6.12Z" fill="white"/>
<path d="M55.3071 6.12C55.2207 5.8528 55.0614 5.61505 54.847 5.43359C54.6327 5.25213 54.3719 5.13416 54.0941 5.093L50.4691 4.57L48.8431 1.3C48.7187 1.05039 48.5272 0.840405 48.29 0.693629C48.0529 0.546853 47.7795 0.469099 47.5006 0.469099C47.2217 0.469099 46.9484 0.546853 46.7112 0.693629C46.4741 0.840405 46.2825 1.05039 46.1581 1.3L44.5371 4.569L40.9131 5.093C40.6366 5.13426 40.377 5.25146 40.1632 5.43155C39.9494 5.61164 39.7898 5.84755 39.7021 6.113C39.6141 6.37991 39.6033 6.66626 39.6708 6.93907C39.7384 7.21187 39.8817 7.46005 40.0841 7.655L42.7021 10.191L42.0831 13.776C42.036 14.0516 42.0668 14.3349 42.1721 14.5939C42.2774 14.8529 42.453 15.0773 42.6791 15.2418C42.9051 15.4064 43.1727 15.5044 43.4515 15.5249C43.7304 15.5455 44.0094 15.4876 44.2571 15.358L47.5021 13.662L50.7501 15.362C50.998 15.4918 51.2773 15.5497 51.5563 15.5291C51.8354 15.5085 52.1032 15.4103 52.3293 15.2455C52.5555 15.0807 52.731 14.856 52.8361 14.5966C52.9413 14.3373 52.9717 14.0537 52.9241 13.778L52.3021 10.192L54.9201 7.655C55.1213 7.46068 55.2642 7.21396 55.3326 6.94271C55.401 6.67146 55.3922 6.3865 55.3071 6.12Z" fill="white"/>
<path d="M75.0582 6.12C74.9718 5.8528 74.8124 5.61505 74.5981 5.43359C74.3838 5.25213 74.123 5.13416 73.8452 5.093L70.2202 4.57L68.5942 1.3C68.4698 1.05039 68.2783 0.840405 68.0411 0.693629C67.804 0.546853 67.5306 0.469099 67.2517 0.469099C66.9728 0.469099 66.6994 0.546853 66.4623 0.693629C66.2251 0.840405 66.0336 1.05039 65.9092 1.3L64.2882 4.569L60.6642 5.093C60.3877 5.13426 60.1281 5.25146 59.9143 5.43155C59.7005 5.61164 59.5408 5.84755 59.4532 6.113C59.3652 6.37991 59.3543 6.66626 59.4219 6.93907C59.4895 7.21187 59.6327 7.46005 59.8352 7.655L62.4532 10.191L61.8342 13.776C61.787 14.0516 61.8178 14.3349 61.9231 14.5939C62.0284 14.8529 62.204 15.0773 62.4301 15.2418C62.6562 15.4064 62.9237 15.5044 63.2026 15.5249C63.4814 15.5455 63.7605 15.4876 64.0082 15.358L67.2532 13.662L70.5012 15.362C70.7491 15.4918 71.0283 15.5497 71.3074 15.5291C71.5865 15.5085 71.8542 15.4103 72.0804 15.2455C72.3065 15.0807 72.4821 14.856 72.5872 14.5966C72.6923 14.3373 72.7228 14.0537 72.6752 13.778L72.0532 10.192L74.6712 7.655C74.8724 7.46068 75.0153 7.21396 75.0837 6.94271C75.1521 6.67146 75.1432 6.3865 75.0582 6.12Z" fill="white"/>
<path d="M94.8093 6.12C94.7228 5.8528 94.5635 5.61505 94.3492 5.43359C94.1348 5.25213 93.8741 5.13416 93.5963 5.093L89.9713 4.57L88.3453 1.3C88.2208 1.05039 88.0293 0.840405 87.7922 0.693629C87.555 0.546853 87.2816 0.469099 87.0028 0.469099C86.7239 0.469099 86.4505 0.546853 86.2133 0.693629C85.9762 0.840405 85.7847 1.05039 85.6603 1.3L84.0393 4.569L80.4153 5.093C80.1388 5.13426 79.8792 5.25146 79.6653 5.43155C79.4515 5.61164 79.2919 5.84755 79.2043 6.113C79.1162 6.37991 79.1054 6.66626 79.173 6.93907C79.2405 7.21187 79.3838 7.46005 79.5863 7.655L82.2043 10.191L81.5853 13.776C81.5381 14.0516 81.5689 14.3349 81.6742 14.5939C81.7795 14.8529 81.9551 15.0773 82.1812 15.2418C82.4073 15.4064 82.6748 15.5044 82.9537 15.5249C83.2325 15.5455 83.5115 15.4876 83.7593 15.358L87.0043 13.662L90.2523 15.362C90.5001 15.4918 90.7794 15.5497 91.0585 15.5291C91.3375 15.5085 91.6053 15.4103 91.8314 15.2455C92.0576 15.0807 92.2332 14.856 92.3383 14.5966C92.4434 14.3373 92.4739 14.0537 92.4263 13.778L91.8043 10.192L94.4223 7.655C94.6235 7.46068 94.7663 7.21396 94.8347 6.94271C94.9031 6.67146 94.8943 6.3865 94.8093 6.12Z" fill="white"/>
</svg>
