<svg width="128" height="128" viewBox="0 0 128 128" fill="none" xmlns="http://www.w3.org/2000/svg">
<path d="M64 128C99.3462 128 128 99.3462 128 64C128 28.6538 99.3462 0 64 0C28.6538 0 0 28.6538 0 64C0 99.3462 28.6538 128 64 128Z" fill="black"/>
<path d="M32.6801 61.6509C32.5937 61.3837 32.4343 61.146 32.22 60.9645C32.0056 60.783 31.7449 60.6651 31.4671 60.6239L27.8421 60.1009L26.2161 56.8309C26.0917 56.5813 25.9001 56.3713 25.663 56.2245C25.4258 56.0778 25.1525 56 24.8736 56C24.5947 56 24.3213 56.0778 24.0842 56.2245C23.847 56.3713 23.6555 56.5813 23.5311 56.8309L21.9101 60.0999L18.2861 60.6239C18.0096 60.6652 17.75 60.7824 17.5362 60.9624C17.3223 61.1425 17.1627 61.3784 17.0751 61.6439C16.987 61.9108 16.9762 62.1972 17.0438 62.47C17.1114 62.7428 17.2546 62.9909 17.4571 63.1859L20.0751 65.7219L19.4561 69.3069C19.4089 69.5825 19.4397 69.8658 19.545 70.1248C19.6503 70.3838 19.8259 70.6082 20.052 70.7727C20.2781 70.9373 20.5456 71.0353 20.8245 71.0558C21.1033 71.0764 21.3823 71.0185 21.6301 70.8889L24.8751 69.1929L28.1231 70.8929C28.371 71.0227 28.6502 71.0806 28.9293 71.06C29.2083 71.0394 29.4761 70.9412 29.7023 70.7764C29.9284 70.6116 30.104 70.3869 30.2091 70.1275C30.3142 69.8682 30.3447 69.5846 30.2971 69.3089L29.6751 65.7229L32.2931 63.1859C32.4943 62.9916 32.6372 62.7449 32.7055 62.4736C32.7739 62.2024 32.7651 61.9174 32.6801 61.6509Z" fill="white"/>
<path d="M52.4311 61.6509C52.3447 61.3837 52.1854 61.146 51.971 60.9645C51.7567 60.783 51.4959 60.6651 51.2181 60.6239L47.5931 60.1009L45.9671 56.8309C45.8427 56.5813 45.6512 56.3713 45.414 56.2245C45.1769 56.0778 44.9035 56 44.6246 56C44.3457 56 44.0724 56.0778 43.8352 56.2245C43.5981 56.3713 43.4065 56.5813 43.2821 56.8309L41.6611 60.0999L38.0371 60.6239C37.7606 60.6652 37.501 60.7824 37.2872 60.9624C37.0734 61.1425 36.9138 61.3784 36.8261 61.6439C36.7381 61.9108 36.7273 62.1972 36.7948 62.47C36.8624 62.7428 37.0057 62.9909 37.2081 63.1859L39.8261 65.7219L39.2071 69.3069C39.16 69.5825 39.1908 69.8658 39.2961 70.1248C39.4014 70.3838 39.577 70.6082 39.8031 70.7727C40.0291 70.9373 40.2967 71.0353 40.5755 71.0558C40.8544 71.0764 41.1334 71.0185 41.3811 70.8889L44.6261 69.1929L47.8741 70.8929C48.122 71.0227 48.4013 71.0806 48.6803 71.06C48.9594 71.0394 49.2272 70.9412 49.4533 70.7764C49.6795 70.6116 49.855 70.3869 49.9601 70.1275C50.0653 69.8682 50.0957 69.5846 50.0481 69.3089L49.4261 65.7229L52.0441 63.1859C52.2454 62.9916 52.3882 62.7449 52.4566 62.4736C52.525 62.2024 52.5162 61.9174 52.4311 61.6509Z" fill="white"/>
<path d="M72.1822 61.6509C72.0958 61.3837 71.9364 61.146 71.7221 60.9645C71.5078 60.783 71.247 60.6651 70.9692 60.6239L67.3442 60.1009L65.7182 56.8309C65.5938 56.5813 65.4023 56.3713 65.1651 56.2245C64.928 56.0778 64.6546 56 64.3757 56C64.0968 56 63.8234 56.0778 63.5863 56.2245C63.3491 56.3713 63.1576 56.5813 63.0332 56.8309L61.4122 60.0999L57.7882 60.6239C57.5117 60.6652 57.2521 60.7824 57.0383 60.9624C56.8245 61.1425 56.6648 61.3784 56.5772 61.6439C56.4892 61.9108 56.4783 62.1972 56.5459 62.47C56.6135 62.7428 56.7567 62.9909 56.9592 63.1859L59.5772 65.7219L58.9582 69.3069C58.911 69.5825 58.9419 69.8658 59.0471 70.1248C59.1524 70.3838 59.328 70.6082 59.5541 70.7727C59.7802 70.9373 60.0478 71.0353 60.3266 71.0558C60.6054 71.0764 60.8845 71.0185 61.1322 70.8889L64.3772 69.1929L67.6252 70.8929C67.8731 71.0227 68.1523 71.0806 68.4314 71.06C68.7105 71.0394 68.9782 70.9412 69.2044 70.7764C69.4305 70.6116 69.6061 70.3869 69.7112 70.1275C69.8163 69.8682 69.8468 69.5846 69.7992 69.3089L69.1772 65.7229L71.7952 63.1859C71.9964 62.9916 72.1393 62.7449 72.2077 62.4736C72.2761 62.2024 72.2672 61.9174 72.1822 61.6509Z" fill="white"/>
<path d="M91.9333 61.6509C91.8468 61.3837 91.6875 61.146 91.4732 60.9645C91.2588 60.783 90.9981 60.6651 90.7203 60.6239L87.0953 60.1009L85.4693 56.8309C85.3449 56.5813 85.1533 56.3713 84.9162 56.2245C84.679 56.0778 84.4056 56 84.1268 56C83.8479 56 83.5745 56.0778 83.3373 56.2245C83.1002 56.3713 82.9087 56.5813 82.7843 56.8309L81.1633 60.0999L77.5393 60.6239C77.2628 60.6652 77.0032 60.7824 76.7893 60.9624C76.5755 61.1425 76.4159 61.3784 76.3283 61.6439C76.2402 61.9108 76.2294 62.1972 76.297 62.47C76.3645 62.7428 76.5078 62.9909 76.7103 63.1859L79.3283 65.7219L78.7093 69.3069C78.6621 69.5825 78.6929 69.8658 78.7982 70.1248C78.9035 70.3838 79.0791 70.6082 79.3052 70.7727C79.5313 70.9373 79.7988 71.0353 80.0777 71.0558C80.3565 71.0764 80.6355 71.0185 80.8833 70.8889L84.1283 69.1929L87.3763 70.8929C87.6241 71.0227 87.9034 71.0806 88.1825 71.06C88.4615 71.0394 88.7293 70.9412 88.9554 70.7764C89.1816 70.6116 89.3572 70.3869 89.4623 70.1275C89.5674 69.8682 89.5979 69.5846 89.5503 69.3089L88.9283 65.7229L91.5463 63.1859C91.7475 62.9916 91.8904 62.7449 91.9587 62.4736C92.0271 62.2024 92.0183 61.9174 91.9333 61.6509Z" fill="white"/>
<path d="M111.684 61.6509C111.598 61.3837 111.439 61.146 111.224 60.9645C111.01 60.783 110.749 60.6651 110.471 60.6239L106.846 60.1009L105.22 56.8309C105.096 56.5813 104.904 56.3713 104.667 56.2245C104.43 56.0778 104.157 56 103.878 56C103.599 56 103.326 56.0778 103.088 56.2245C102.851 56.3713 102.66 56.5813 102.535 56.8309L100.914 60.0999L97.2903 60.6239C97.0138 60.6652 96.7542 60.7824 96.5404 60.9624C96.3266 61.1425 96.167 61.3784 96.0793 61.6439C95.9913 61.9108 95.9804 62.1972 96.048 62.47C96.1156 62.7428 96.2589 62.9909 96.4613 63.1859L99.0793 65.7219L98.4603 69.3069C98.4132 69.5825 98.444 69.8658 98.5493 70.1248C98.6546 70.3838 98.8302 70.6082 99.0562 70.7727C99.2823 70.9373 99.5499 71.0353 99.8287 71.0558C100.108 71.0764 100.387 71.0185 100.634 70.8889L103.879 69.1929L107.127 70.8929C107.375 71.0227 107.654 71.0806 107.934 71.06C108.213 71.0394 108.48 70.9412 108.707 70.7764C108.933 70.6116 109.108 70.3869 109.213 70.1275C109.318 69.8682 109.349 69.5846 109.301 69.3089L108.679 65.7229L111.297 63.1859C111.499 62.9916 111.641 62.7449 111.71 62.4736C111.778 62.2024 111.769 61.9174 111.684 61.6509Z" fill="white"/>
</svg>
