<svg height="63" viewBox="0 0 67 63" width="67" xmlns="http://www.w3.org/2000/svg"><g fill="none" fill-rule="evenodd"><path d="m10.35 32-8.0624148 23.3693183c-.90060065 2.6104366.48549531 5.4566948 3.09593197 6.3572954.52462185.1809945 1.07571586.2733863 1.63068173.2733863h48.0716022c2.1329126 0 4.0309934-1.3530275 4.7266137-3.3693183l6.9-20c.9006007-2.6104366-.4854953-5.4566948-3.095932-6.3572954-.5246218-.1809945-1.0757158-.2733863-1.6306817-.2733863z" fill="#172b41"/><path d="m0 20v38c0 2.7614237 2.23857625 5 5 5h50c2.7614237 0 5-2.2385763 5-5v-30c0-2.7614237-2.2385763-5-5-5h-30.0911164l-3.3353132-5.5690229c-.9031404-1.507987-2.5317857-2.4309771-4.2895363-2.4309771h-12.2840341c-2.76142375 0-5 2.2385763-5 5z" fill="#ff781d"/><path d="m8 54h15v-5h-15z" fill="#fff"/><path d="m32.3310353.60206826-7.3940418 6.65463759c-.41051.36945902-.4437884 1.00174886-.0743294 1.41225888.1896425.21071386.4598076.33103527.7432941.33103527h14.7880836c.5522847 0 1-.44771525 1-1 0-.28348651-.1203214-.55365167-.3310353-.74329415l-7.3940418-6.65463759c-.3803049-.34227447-.9576245-.34227447-1.3379294 0z" fill="#172b41" opacity=".2"/></g></svg>
