<svg height="32" viewBox="0 0 145 32" width="145" xmlns="http://www.w3.org/2000/svg"><defs><linearGradient id="a" x1="50.000383%" x2="50.000383%" y1=".004522%" y2="99.998073%"><stop offset="0" stop-color="#ff6e26"/><stop offset="1" stop-color="#ef8e8e"/></linearGradient></defs><g fill="none" fill-rule="evenodd"><path d="m3.50925809 26c-.73902493-.9219028-1.37810001-1.9273805-1.90079228-3h28.78306839c-.5226923 1.0726195-1.1617674 2.0780972-1.9007923 3zm1.90744433 2h21.16659518c-2.8205328 2.4894536-6.5255117 4-10.5832976 4s-7.76276477-1.5105464-10.58329758-4zm-4.61994533-7c-.31648621-.9628906-.54404767-1.9661288-.67296958-3h31.75242499c-.1289219 1.0338712-.3564834 2.0371094-.6729696 3zm-.79675709-5c0-8.836556 7.163444-16 16-16s16 7.163444 16 16zm26 0c0-5.5228475-4.4771525-10-10-10s-10 4.4771525-10 10zm-2 0h-16c0-4.418278 3.581722-8 8-8s8 3.581722 8 8z" fill="#ee7352"/><path d="m67.6592214 17.2289828h8.3031761c0-1.2093172-.380979-2.1393202-1.1433308-2.7894213-.7623517-.650101-1.7015092-.9748578-2.8174725-.9748578-1.1161601 0-2.1193063.3384678-3.0084541 1.0154035-.8893448.6773273-1.3339187 1.5938151-1.3339187 2.7488756zm9.2832863-4.5904696c1.3790061 1.1828745 2.068903 2.8123384 2.068903 4.8883918v2.0856512h-11.3521893c.0724549 1.0473306.5536501 1.8913455 1.4429948 2.5322406.888951.640895 1.9056825.9611467 3.0490132.9611467 1.8147201 0 3.193923-.5684222 4.1378059-1.7060501l1.7426589 1.8958506c-1.5613248 1.6071345-3.5936065 2.4104079-6.0984202 2.4104079-2.0326755 0-3.7613553-.6724305-5.1860395-2.0176834-1.4248811-1.3450569-2.1368294-3.1504144-2.1368294-5.4166601 0-2.265658.7255336-4.0667063 2.1775853-5.4031449 1.4518548-1.3358509 3.1624209-2.0041682 5.1318952-2.0041682 1.9688836 0 3.6434191.5917311 5.0226221 1.7740179zm10.9983219 10.4406349c.6530787 0 1.2793805-.3157465 1.8783149-.9480232l1.25221 2.1395161c-1.0708758.9574251-2.2551593 1.4355501-3.5526536 1.4355501-1.2976912 0-2.4049914-.4469812-3.3213098-1.3409437-.9165153-.8933748-1.3744777-2.0985787-1.3744777-3.6154159v-7.2312236h-1.8239738v-2.4374383h1.8239738v-4.52289359h3.0488163v4.52289359h3.811365v2.4374383h-3.811365v7.3125107c0 .6863375.1811373 1.2322344.5443964 1.6384741.3630621.4064356.871231.6095554 1.5247035.6095554zm5.4173242 2.4101141v-20.0953507h3.0490132v20.0953507zm16.0067882-5.3621684v-1.218915h-3.429993c-2.196289 0-3.294139.6863375-3.294139 2.058229 0 .7043578.2721 1.2418321.816693 1.6116395.544593.3701992 1.302023.5551029 2.273076.5551029.970857 0 1.819446-.2708918 2.54557-.8124794.725533-.5415877 1.088793-1.2729759 1.088793-2.193577zm1.429212-7.976127c1.079539.8579219 1.619801 2.207288 1.619801 4.048882v9.2894526h-2.776717v-1.9226852c-1.197672 1.42654-2.803887 2.1395161-4.818646 2.1395161-1.506393 0-2.754074-.4240641-3.743044-1.2731717-.989364-.8483241-1.4837511-1.9810552-1.4837511-3.398585 0-1.4173339.5262831-2.4781798 1.5790451-3.1823417 1.052565-.7041619 2.477446-1.0563408 4.274052-1.0563408h3.947415v-.5415876c0-1.9134792-1.071073-2.8709043-3.212431-2.8709043-1.343172 0-2.740686.4877227-4.192343 1.4625805l-1.361287-1.8960465c1.760379-1.3897159 3.756827-2.0852594 5.989344-2.0852594 1.705644 0 3.098433.4293526 4.178562 1.286491zm16.157112 9.5469271c.889148-.8667361 1.333919-1.9906529 1.333919-3.3719463s-.435714-2.5277356-1.306551-3.4393265c-.871231-.911591-1.91533-1.3679741-3.130919-1.3679741-1.21618 0-2.241574.4563831-3.076184 1.3679741-.835003.9115909-1.252407 2.0539198-1.252407 3.4258113 0 1.3722832.417404 2.4963959 1.252407 3.3717505.83461.8759421 1.851341 1.3137173 3.049013 1.3137173 1.197869 0 2.24118-.4332701 3.130722-1.3000063zm-2.667837-10.8335161c1.941713 0 3.602269.6685131 4.981866 2.0043641 1.378809 1.3364385 2.068903 3.1145697 2.068903 5.335373 0 2.2206073-.685368 4.0265524-2.055515 5.4166601-1.370539 1.3904994-2.967304 2.0854553-4.791278 2.0854553-1.823777 0-3.461888-.7944592-4.913743-2.3833775v2.1663506h-3.048816v-20.09515478h3.048816v8.20588558c1.197869-1.8233778 2.76766-2.7355564 4.709767-2.7355564zm19.246645 7.2856371c.98011.6499051 1.469968 1.6611952 1.469968 3.0332826 0 1.3722833-.499112 2.4691697-1.497139 3.2904634-.998421.8216854-2.277998 1.2324302-3.838536 1.2324302-1.052762 0-2.146476-.1898005-3.280357-.568814-1.134667-.3794051-2.137026-.9115909-3.00806-1.5979284l1.469969-2.3561512c1.687923 1.2637698 3.321309 1.8958506 4.900157 1.8958506.689503 0 1.2339-.1580691 1.633386-.4740116.399093-.3157466.598738-.717873.598738-1.2052039 0-.7219863-.961997-1.3720874-2.885596-1.9499115-.145501-.0544526-.254183-.0901014-.326638-.1083175-3.012983-.8124794-4.518982-2.1667424-4.518982-4.0623972 0-1.3362427.521557-2.4059028 1.565263-3.2095679 1.043508-.8030776 2.399872-1.205204 4.069879-1.205204 1.669613 0 3.248658.4877227 4.736937 1.4625805l-1.143331 2.2478337c-1.180148-.7760472-2.459529-1.1644625-3.838535-1.1644625-.726124 0-1.316199.1312346-1.769633.3927245-.453827.2618817-.680643.6544103-.680643 1.1779777 0 .4697024.235676.8126753.708011 1.0291145.326441.1623783.7846.3161383 1.374674.4604964.589287.1447498 1.111435.288912 1.56546.433466.453237.1445539.893676.3071282 1.320333.487331.426066.1805945.884619.4332701 1.374675.7584186zm-87.6687775.635626v-2.6597536h6.0765656l-.0496159 6.6283278c-1.7966063 1.9679318-4.3652119 2.9519956-7.7042416 2.9519956-2.8133379 0-5.1683196-.9209929-7.0641576-2.7625868-1.8968225-1.8415939-2.8450369-4.1707147-2.8450369-6.9873623s.966525-5.1635927 2.8991812-7.04161895c1.932853-1.87743861 4.2695241-2.8166476 7.0100133-2.8166476 2.7400953 0 5.0180937.7948509 6.8332075 2.38337747l-1.7148976 2.43743828c-.7446318-.6318849-1.4930045-1.06966011-2.2461025-1.31371734-.7534917-.24366548-1.6292512-.36549822-2.6270814-.36549822-1.9239931 0-3.5390684.61876146-4.8458164 1.85510916-1.3065512 1.2369353-1.9602206 2.86209-1.9602206 4.8750724 0 2.0135701.6353588 3.6289312 1.9058794 4.8476503 1.2699299 1.218915 2.8082187 1.8282746 4.6140788 1.8282746s3.3165845-.3880235 4.5329608-1.1646583v-2.6954025z" fill="#172b41"/></g></svg>
