<svg height="27" viewBox="0 0 27 27" width="27" xmlns="http://www.w3.org/2000/svg"><path d="m13.2638598.15343904v3.66308366c-5.28216953 0-9.57943262 4.272279-9.57943262 9.5237383 0 5.2516144 4.29726309 9.5238934 9.57943262 9.5238934 5.1910977 0 9.4311091-4.126229 9.5757733-9.2531484l.0038154-.270745h3.6843492c0 7.2712513-5.9501646 13.186977-13.2639379 13.186977-7.31377321 0-13.26378178-5.9157257-13.26378178-13.186977 0-7.16737632 5.78122261-13.01752899 12.95118268-13.18321348zm12.7361402 4.84656096v3.60003049c-2.4605216 0-3.7670547.78005399-5.1718145 1.83646931l-1.2820507.978976c-1.631942 1.2161483-3.7128471 2.4900797-7.1577125 2.5795235l-.3884223.0050007v-3.6000305c2.4605216 0 3.7670547-.78017205 5.1718145-1.83651179l1.2820507-.97893347c1.631942-1.21614834 3.7128471-2.49007969 7.1577125-2.57952358z" fill="#c3c3c3" fill-rule="evenodd"/></svg>