<svg height="32" viewBox="0 0 33 32" width="33" xmlns="http://www.w3.org/2000/svg"><path d="m1.68254363 23.1303014h28.80064377c-.5300772 1.0575342-1.1740572 2.0484383-1.9165179 2.9567123h-24.96738767c-.74246066-.908274-1.38644063-1.8991781-1.9167382-2.9567123zm14.40043207-23.1303014c8.8822088 0 16.0829757 7.16361644 16.0829757 16h-5.5942318c0-5.7536438-4.7052618-10.43463014-10.4887439-10.43463014s-10.48874394 4.68098634-10.48874394 10.43463014h-5.59423176c0-8.83638356 7.20076681-16 16.0829757-16zm-10.43520746 28.1740274h20.87041486c-2.8090129 2.3850959-6.4527983 3.8259726-10.4352074 3.8259726-3.9826295 0-7.62619458-1.4408767-10.43520746-3.8259726zm2.04408011-12.1740274c0-4.6029589 3.76429755-8.34783562 8.39112735-8.34783562 4.6268297 0 8.3911273 3.74487672 8.3911273 8.34783562zm-7.55569384 2.0867945h31.89364239c-.1332905 1.0189589-.363299 2.0074521-.680332 2.9564932h-30.53319881c-.31659227-.9490411-.54660085-1.9375343-.68011158-2.9564932z" fill-rule="evenodd"/></svg>
