<svg height="32" viewBox="0 0 32 32" width="32" xmlns="http://www.w3.org/2000/svg"><path d="m3.50925809 26c-.73902493-.9219028-1.37810001-1.9273805-1.90079228-3h28.78306839c-.5226923 1.0726195-1.1617674 2.0780972-1.9007923 3zm1.90744433 2h21.16659518c-2.8205328 2.4894536-6.5255117 4-10.5832976 4s-7.76276477-1.5105464-10.58329758-4zm-4.61994533-7c-.31648621-.9628906-.54404767-1.9661288-.67296958-3h31.75242499c-.1289219 1.0338712-.3564834 2.0371094-.6729696 3zm-.79675709-5c0-8.836556 7.163444-16 16-16s16 7.163444 16 16zm26 0c0-5.5228475-4.4771525-10-10-10s-10 4.4771525-10 10zm-2 0h-16c0-4.418278 3.581722-8 8-8s8 3.581722 8 8z" fill-rule="evenodd"/></svg>
