<?xml version="1.0" encoding="utf-8"?>
<!-- Generator: Adobe Illustrator 23.0.1, SVG Export Plug-In . SVG Version: 6.00 Build 0)  -->
<svg version="1.1" id="Layer_1" xmlns="http://www.w3.org/2000/svg" xmlns:xlink="http://www.w3.org/1999/xlink" x="0px" y="0px"
	 viewBox="0 0 145 32" style="enable-background:new 0 0 145 32;" xml:space="preserve">
<style type="text/css">
	.st0{fill-rule:evenodd;clip-rule:evenodd;fill:#FFFFFF;}
</style>
<g>
	<path class="st0" d="M3.5,26c-0.7-0.9-1.4-1.9-1.9-3h28.8c-0.5,1.1-1.2,2.1-1.9,3H3.5z M5.4,28h21.2c-2.8,2.5-6.5,4-10.6,4
		S8.2,30.5,5.4,28z M0.8,21c-0.3-1-0.5-2-0.7-3h31.8c-0.1,1-0.4,2-0.7,3H0.8z M0,16C0,7.2,7.2,0,16,0s16,7.2,16,16H0z M26,16
		c0-5.5-4.5-10-10-10S6,10.5,6,16H26z M24,16H8c0-4.4,3.6-8,8-8S24,11.6,24,16z"/>
	<path class="st0" d="M67.7,17.2H76c0-1.2-0.4-2.1-1.1-2.8s-1.7-1-2.8-1c-1.1,0-2.1,0.3-3,1C68.1,15.2,67.7,16.1,67.7,17.2z
		 M76.9,12.6c1.4,1.2,2.1,2.8,2.1,4.9v2.1H67.7c0.1,1,0.6,1.9,1.4,2.5c0.9,0.6,1.9,1,3,1c1.8,0,3.2-0.6,4.1-1.7l1.7,1.9
		c-1.6,1.6-3.6,2.4-6.1,2.4c-2,0-3.8-0.7-5.2-2c-1.4-1.3-2.1-3.2-2.1-5.4c0-2.3,0.7-4.1,2.2-5.4c1.5-1.3,3.2-2,5.1-2
		C73.9,10.9,75.6,11.5,76.9,12.6z M87.9,23.1c0.7,0,1.3-0.3,1.9-0.9l1.3,2.1c-1.1,1-2.3,1.4-3.6,1.4c-1.3,0-2.4-0.4-3.3-1.3
		c-0.9-0.9-1.4-2.1-1.4-3.6v-7.2H81v-2.4h1.8V6.6h3v4.5h3.8v2.4h-3.8v7.3c0,0.7,0.2,1.2,0.5,1.6C86.8,22.9,87.3,23.1,87.9,23.1z
		 M93.4,25.5V5.4h3v20.1H93.4z M109.4,20.1v-1.2h-3.4c-2.2,0-3.3,0.7-3.3,2.1c0,0.7,0.3,1.2,0.8,1.6c0.5,0.4,1.3,0.6,2.3,0.6
		c1,0,1.8-0.3,2.5-0.8C109,21.8,109.4,21,109.4,20.1z M110.8,12.2c1.1,0.9,1.6,2.2,1.6,4v9.3h-2.8v-1.9c-1.2,1.4-2.8,2.1-4.8,2.1
		c-1.5,0-2.8-0.4-3.7-1.3c-1-0.8-1.5-2-1.5-3.4c0-1.4,0.5-2.5,1.6-3.2c1.1-0.7,2.5-1.1,4.3-1.1h3.9v-0.5c0-1.9-1.1-2.9-3.2-2.9
		c-1.3,0-2.7,0.5-4.2,1.5l-1.4-1.9c1.8-1.4,3.8-2.1,6-2.1C108.3,10.9,109.7,11.3,110.8,12.2z M127,21.7c0.9-0.9,1.3-2,1.3-3.4
		s-0.4-2.5-1.3-3.4c-0.9-0.9-1.9-1.4-3.1-1.4c-1.2,0-2.2,0.5-3.1,1.4c-0.8,0.9-1.3,2.1-1.3,3.4c0,1.4,0.4,2.5,1.3,3.4
		c0.8,0.9,1.9,1.3,3,1.3C125,23,126.1,22.6,127,21.7z M124.3,10.9c1.9,0,3.6,0.7,5,2c1.4,1.3,2.1,3.1,2.1,5.3c0,2.2-0.7,4-2.1,5.4
		c-1.4,1.4-3,2.1-4.8,2.1c-1.8,0-3.5-0.8-4.9-2.4v2.2h-3V5.4h3v8.2C120.8,11.8,122.3,10.9,124.3,10.9L124.3,10.9z M143.5,18.2
		c1,0.6,1.5,1.7,1.5,3c0,1.4-0.5,2.5-1.5,3.3c-1,0.8-2.3,1.2-3.8,1.2c-1.1,0-2.1-0.2-3.3-0.6c-1.1-0.4-2.1-0.9-3-1.6l1.5-2.4
		c1.7,1.3,3.3,1.9,4.9,1.9c0.7,0,1.2-0.2,1.6-0.5c0.4-0.3,0.6-0.7,0.6-1.2c0-0.7-1-1.4-2.9-1.9c-0.1-0.1-0.3-0.1-0.3-0.1
		c-3-0.8-4.5-2.2-4.5-4.1c0-1.3,0.5-2.4,1.6-3.2c1-0.8,2.4-1.2,4.1-1.2c1.7,0,3.2,0.5,4.7,1.5l-1.1,2.2c-1.2-0.8-2.5-1.2-3.8-1.2
		c-0.7,0-1.3,0.1-1.8,0.4c-0.5,0.3-0.7,0.7-0.7,1.2c0,0.5,0.2,0.8,0.7,1c0.3,0.2,0.8,0.3,1.4,0.5c0.6,0.1,1.1,0.3,1.6,0.4
		c0.5,0.1,0.9,0.3,1.3,0.5C142.6,17.6,143,17.8,143.5,18.2L143.5,18.2z M55.9,18.8v-2.7h6.1l0,6.6c-1.8,2-4.4,3-7.7,3
		c-2.8,0-5.2-0.9-7.1-2.8c-1.9-1.8-2.8-4.2-2.8-7s1-5.2,2.9-7c1.9-1.9,4.3-2.8,7-2.8c2.7,0,5,0.8,6.8,2.4l-1.7,2.4
		c-0.7-0.6-1.5-1.1-2.2-1.3c-0.8-0.2-1.6-0.4-2.6-0.4c-1.9,0-3.5,0.6-4.8,1.9c-1.3,1.2-2,2.9-2,4.9c0,2,0.6,3.6,1.9,4.8
		c1.3,1.2,2.8,1.8,4.6,1.8s3.3-0.4,4.5-1.2v-2.7L55.9,18.8z"/>
</g>
</svg>
