<svg enable-background="new 0 0 145 32" viewBox="0 0 145 32" xmlns="http://www.w3.org/2000/svg"><g clip-rule="evenodd" fill-rule="evenodd"><path d="m3.5 26c-.7-.9-1.4-1.9-1.9-3h28.8c-.5 1.1-1.2 2.1-1.9 3zm1.9 2h21.2c-2.8 2.5-6.5 4-10.6 4s-7.8-1.5-10.6-4zm-4.6-7c-.3-1-.5-2-.7-3h31.8c-.1 1-.4 2-.7 3zm-.8-5c0-8.8 7.2-16 16-16s16 7.2 16 16zm26 0c0-5.5-4.5-10-10-10s-10 4.5-10 10zm-2 0h-16c0-4.4 3.6-8 8-8s8 3.6 8 8z"/><path d="m67.7 17.2h8.3c0-1.2-.4-2.1-1.1-2.8s-1.7-1-2.8-1-2.1.3-3 1c-1 .8-1.4 1.7-1.4 2.8zm9.2-4.6c1.4 1.2 2.1 2.8 2.1 4.9v2.1h-11.3c.1 1 .6 1.9 1.4 2.5.9.6 1.9 1 3 1 1.8 0 3.2-.6 4.1-1.7l1.7 1.9c-1.6 1.6-3.6 2.4-6.1 2.4-2 0-3.8-.7-5.2-2s-2.1-3.2-2.1-5.4c0-2.3.7-4.1 2.2-5.4s3.2-2 5.1-2c2.1 0 3.8.6 5.1 1.7zm11 10.5c.7 0 1.3-.3 1.9-.9l1.3 2.1c-1.1 1-2.3 1.4-3.6 1.4s-2.4-.4-3.3-1.3-1.4-2.1-1.4-3.6v-7.2h-1.8v-2.4h1.8v-4.6h3v4.5h3.8v2.4h-3.8v7.3c0 .7.2 1.2.5 1.6.5.5 1 .7 1.6.7zm5.5 2.4v-20.1h3v20.1zm16-5.4v-1.2h-3.4c-2.2 0-3.3.7-3.3 2.1 0 .7.3 1.2.8 1.6s1.3.6 2.3.6 1.8-.3 2.5-.8c.7-.6 1.1-1.4 1.1-2.3zm1.4-7.9c1.1.9 1.6 2.2 1.6 4v9.3h-2.8v-1.9c-1.2 1.4-2.8 2.1-4.8 2.1-1.5 0-2.8-.4-3.7-1.3-1-.8-1.5-2-1.5-3.4s.5-2.5 1.6-3.2 2.5-1.1 4.3-1.1h3.9v-.5c0-1.9-1.1-2.9-3.2-2.9-1.3 0-2.7.5-4.2 1.5l-1.4-1.9c1.8-1.4 3.8-2.1 6-2.1 1.7.1 3.1.5 4.2 1.4zm16.2 9.5c.9-.9 1.3-2 1.3-3.4s-.4-2.5-1.3-3.4-1.9-1.4-3.1-1.4-2.2.5-3.1 1.4c-.8.9-1.3 2.1-1.3 3.4 0 1.4.4 2.5 1.3 3.4.8.9 1.9 1.3 3 1.3 1.2 0 2.3-.4 3.2-1.3zm-2.7-10.8c1.9 0 3.6.7 5 2s2.1 3.1 2.1 5.3-.7 4-2.1 5.4-3 2.1-4.8 2.1-3.5-.8-4.9-2.4v2.2h-3v-20.1h3v8.2c1.2-1.8 2.7-2.7 4.7-2.7zm19.2 7.3c1 .6 1.5 1.7 1.5 3 0 1.4-.5 2.5-1.5 3.3s-2.3 1.2-3.8 1.2c-1.1 0-2.1-.2-3.3-.6-1.1-.4-2.1-.9-3-1.6l1.5-2.4c1.7 1.3 3.3 1.9 4.9 1.9.7 0 1.2-.2 1.6-.5s.6-.7.6-1.2c0-.7-1-1.4-2.9-1.9-.1-.1-.3-.1-.3-.1-3-.8-4.5-2.2-4.5-4.1 0-1.3.5-2.4 1.6-3.2 1-.8 2.4-1.2 4.1-1.2s3.2.5 4.7 1.5l-1.1 2.2c-1.2-.8-2.5-1.2-3.8-1.2-.7 0-1.3.1-1.8.4s-.7.7-.7 1.2.2.8.7 1c.3.2.8.3 1.4.5.6.1 1.1.3 1.6.4s.9.3 1.3.5c.3.3.7.5 1.2.9zm-87.6.6v-2.7h6.1v6.6c-1.8 2-4.4 3-7.7 3-2.8 0-5.2-.9-7.1-2.8-1.9-1.8-2.8-4.2-2.8-7s1-5.2 2.9-7c1.9-1.9 4.3-2.8 7-2.8s5 .8 6.8 2.4l-1.7 2.4c-.7-.6-1.5-1.1-2.2-1.3-.8-.2-1.6-.4-2.6-.4-1.9 0-3.5.6-4.8 1.9-1.3 1.2-2 2.9-2 4.9s.6 3.6 1.9 4.8 2.8 1.8 4.6 1.8 3.3-.4 4.5-1.2v-2.7z"/></g></svg>
