<svg width="36" height="36" viewBox="0 0 36 36" fill="none" xmlns="http://www.w3.org/2000/svg">
<path d="M18 36C27.9411 36 36 27.9411 36 18C36 8.05887 27.9411 0 18 0C8.05887 0 0 8.05887 0 18C0 27.9411 8.05887 36 18 36Z" fill="#FFE7D1"/>
<path d="M18.0002 7C24.0655 7 29.0001 11.9346 29.0001 17.9999C29.0001 23.9487 24.2494 28.8023 18.3438 28.9863C18.2321 28.9983 18.1152 29 18 29C17.8849 29 17.768 28.9948 17.6563 28.9863C11.7507 28.8023 7 23.9487 7 17.9999C7 11.9346 11.9346 7 17.9999 7H18.0002ZM18.8802 9.04872V12.28H21.0526C20.9203 11.907 20.7811 11.5426 20.6264 11.2213C20.0953 10.1092 19.4783 9.40798 18.8801 9.04876L18.8802 9.04872ZM17.1202 9.04872C16.522 9.40794 15.905 10.1092 15.3739 11.2212C15.2209 11.5426 15.08 11.907 14.9477 12.2799H17.1201L17.1202 9.04872ZM21.6988 9.52999C21.8844 9.82905 22.0632 10.1333 22.2213 10.465C22.486 11.0184 22.7094 11.6337 22.9088 12.28H25.2463C24.3113 11.0975 23.0996 10.1401 21.6988 9.52999V9.52999ZM14.3015 9.52999C12.9008 10.1401 11.6891 11.0975 10.7541 12.28H13.0915C13.2909 11.6337 13.5144 11.0184 13.779 10.465C13.9372 10.1333 14.1159 9.82905 14.3015 9.52999ZM26.3328 14.04H23.3491C23.5347 15.0076 23.6516 16.0423 23.6929 17.1199H27.1991C27.0943 16.0234 26.7849 14.9904 26.3329 14.04H26.3328ZM21.5479 14.04H18.8804V17.1199H21.9329C21.8847 16.0268 21.7524 14.9887 21.5479 14.04ZM17.1206 14.04H14.4531C14.2486 14.9887 14.1162 16.0268 14.0681 17.1199H17.1206V14.04ZM12.652 14.04H9.66828C9.21627 14.9904 8.90686 16.0234 8.80201 17.1199H12.3083C12.3495 16.0423 12.4664 15.0076 12.652 14.04H12.652ZM27.1992 18.8799H23.6929C23.6517 19.961 23.5365 20.9888 23.3492 21.9599H26.3467C26.7953 21.0112 27.096 19.9748 27.1992 18.8799H27.1992ZM21.9329 18.8799H18.8804V21.9599H21.5479C21.7524 21.0112 21.8847 19.9765 21.9329 18.8799ZM17.1202 18.8799H14.0677C14.1158 19.9765 14.2482 21.0112 14.4527 21.9599H17.1202V18.8799ZM12.3075 18.8799H8.80122C8.90435 19.9748 9.2034 21.0112 9.65371 21.9599H12.6512C12.4639 20.9888 12.3487 19.961 12.3074 18.8799H12.3075ZM25.2601 23.7199H22.9226C22.7215 24.373 22.4878 24.9763 22.2214 25.5349C22.065 25.8632 21.8811 26.1743 21.6989 26.4699C23.1031 25.858 24.3251 24.9076 25.2601 23.7199ZM21.0526 23.7199H18.8802V26.9649C19.4783 26.6022 20.0936 25.8769 20.6264 24.7649C20.7794 24.4435 20.9203 24.0929 21.0527 23.7199H21.0526ZM17.1202 23.7199H14.9477C15.08 24.0929 15.2192 24.4435 15.3739 24.7649C15.9067 25.8769 16.5221 26.6023 17.1202 26.9649L17.1202 23.7199ZM13.0777 23.7199H10.7402C11.6752 24.9076 12.8972 25.858 14.3015 26.4699C14.1193 26.1743 13.9354 25.8632 13.779 25.5349C13.5125 24.9763 13.2788 24.373 13.0777 23.7199Z" fill="black"/>
</svg>
