<svg height="37" viewBox="0 0 36 37" width="36" xmlns="http://www.w3.org/2000/svg"><path d="m98 0v2h-3v10c0 4.3353433 3.4474169 7.8645591 7.750797 7.9961936l.249203.0038064c4.335343 0 7.864559-3.4474169 7.996194-7.7507968l.003806-.2492032v-10h-3v-2h5v12c0 5.1853824-3.945719 9.448332-8.99883 9.9505201l-.00117 3.5494799c0 5.2467153 4.253285 9.5 9.5 9.5 5.156255 0 9.35304-4.1078841 9.496224-9.2295208l.003776-.2704792.000041-4.6114984c-2.004011-.4547129-3.500041-2.2468962-3.500041-4.3885016 0-2.4852847 2.014715-4.5 4.5-4.5s4.5 2.0147153 4.5 4.5c0 2.1412503-1.495534 3.9331944-3.499045 4.3882753l-.000955 4.6117247c0 6.3512847-5.148715 11.5-11.5 11.5-6.253573 0-11.341293-4.9915119-11.496358-11.207732l-.003642-.292268-.000172-3.5493807c-4.962359-.4926682-8.8569886-4.6121997-8.9959866-9.670693l-.0038414-.2799263v-12zm26 14c-1.380715 0-2.5 1.1192847-2.5 2.5s1.119285 2.5 2.5 2.5 2.5-1.1192847 2.5-2.5-1.119285-2.5-2.5-2.5z" fill="#fff" transform="translate(-93)"/></svg>