<svg height="38" viewBox="0 0 38 38" width="38" xmlns="http://www.w3.org/2000/svg"><path d="m139.5317 233c2.468 0 4.468 2 4.468 4.468v29.064c0 2.468-2 4.468-4.468 4.468h-29.063c-2.468 0-4.469-2-4.469-4.468v-29.064c0-2.468 2.001-4.468 4.469-4.468zm2.468 10h-34v23.532c0 1.30656 1.021133 2.379034 2.306949 2.462741l.162051.005259h29.063c1.361 0 2.468-1.107 2.468-2.468zm-24.9997 4c2.761285 0 5 2.238715 5 5s-2.238715 5-5 5-5-2.238715-5-5 2.238715-5 5-5zm0 2c-1.656715 0-3 1.343285-3 3s1.343285 3 3 3 3-1.343285 3-3-1.343285-3-3-3zm22.5317-14h-29.063c-1.361 0-2.469 1.107-2.469 2.468v3.532h34v-3.532c0-1.30656-1.020211-2.379034-2.305954-2.462741z" fill="#fff" fill-rule="evenodd" transform="translate(-106 -233)"/></svg>