<svg height="27" viewBox="0 0 51 27" width="51" xmlns="http://www.w3.org/2000/svg"><path d="m121.498837 0c.870086 0 1.703237.34117238 2.322197.9445506l.150176.15626148 9.175875 10.19567532c.499205.5551767.795653 1.2600056.845427 2.00113l.007488.2233128v6.083721c0 1.7726951-1.388618 3.2224401-3.136932 3.3203146l-.188649.0052668-2.600252.0004081c-.454607 1.9974069-2.24134 3.487964-4.376493 3.487964-2.135152 0-3.921885-1.4905571-4.376492-3.487964h-9.851666c-.454607 1.9974069-2.241341 3.487964-4.376493 3.487964s-3.921885-1.4905571-4.376492-3.487964l-1.4374612-.0004081c-1.7726952 0-3.2224401-1.3886176-3.3203147-3.1369325l-.0052667-.1886489v-16.2790698c0-1.77269514 1.3886175-3.22244011 3.1369324-3.32031468l.188649-.00526672zm-16.405814 19.4418605c-1.374459 0-2.488372 1.1139126-2.488372 2.4883721 0 1.3744594 1.113913 2.4883721 2.488372 2.4883721 1.37446 0 2.488372-1.1139127 2.488372-2.4883721 0-1.3744595-1.113912-2.4883721-2.488372-2.4883721zm18.604651 0c-1.374459 0-2.488372 1.1139126-2.488372 2.4883721 0 1.3744594 1.113913 2.4883721 2.488372 2.4883721 1.37446 0 2.488373-1.1139127 2.488373-2.4883721 0-1.3744595-1.113913-2.4883721-2.488373-2.4883721zm7.810326-6.9768605h-33.555l.0004884 7.1396512c0 .6857214.5221979 1.2507769 1.1901575 1.3187303l.1354239.0068511 1.4374282-.0002633c.454554-1.9974797 2.241321-3.4881088 4.376525-3.4881088s3.921972 1.4906291 4.376526 3.4881088h9.8516c.454554-1.9974797 2.241322-3.4881088 4.376525-3.4881088 2.135204 0 3.921972 1.4906291 4.376526 3.4881088l2.600219.0002633c.685721 0 1.250777-.522198 1.31873-1.1901576l.006851-.1354238v-6.083721c0-.2812073-.088933-.5531667-.252108-.7783428l-.087706-.1085158zm-10.009163-10.465h-22.2197672c-.6857215 0-1.250777.52219794-1.3187303 1.19015753l-.0068511.13542387-.0004884 7.1394186h31.755l-7.223299-8.0261703c-.219758-.24411065-.522079-.39700665-.84593-.43141642zm-29.1965114 6.13953488v2.00000002h-5.8139535v-2.00000002zm0-5.81395348v2h-9.3023256v-2z" fill="#fff" transform="translate(-83)"/></svg>