<svg height="38" viewBox="0 0 41 38" width="41" xmlns="http://www.w3.org/2000/svg"><path d="m102.882177 37.0591c-1.654574 0-3.0063919-1.295211-3.0976534-2.9265367l-.0049108-.1760274-.0002361-17.9626671-4.4027227 3.9860502-1.3422773-1.4826637 20.4121133-18.47938655 20.412113 18.47938655-1.342278 1.4826637-4.403948-3.9860502.000569 17.9626671c0 1.6538346-1.295477 3.0063409-2.926564 3.0976506l-.176.0049135zm11.563823-34.3441-12.666623 11.4678688.000236 19.7736671c0 .5681863.43 1.036214.982425 1.0960924l.120139.0064717 7.4102-.0002312.000056-6.3587432c0-2.2247361 1.748593-4.0407447 3.946515-4.1487629l.207331-.0050832.234826.0065525c2.194328.1227297 3.919021 1.9406647 3.919021 4.1472936l-.000749 6.3587432 7.411005.0002312c.567775 0 1.036159-.4305323 1.096087-.9825319l.006477-.1200322-.000569-19.7736671zm.000279 23.8312795c-1.189689 0-2.153846.9641565-2.153846 2.1538461l-.000433 6.3588744h4.308l.000126-6.3588744c0-1.0920225-.815015-2.0007365-1.853007-2.1353431l-.149738-.0138997z" fill="#fff" transform="translate(-94)"/></svg>