<svg width="80" height="80" viewBox="0 0 80 80" fill="none" xmlns="http://www.w3.org/2000/svg">
<path d="M40 80C62.0914 80 80 62.0914 80 40C80 17.9086 62.0914 0 40 0C17.9086 0 0 17.9086 0 40C0 62.0914 17.9086 80 40 80Z" fill="black"/>
<path d="M57.7581 39.3577C57.7569 38.4755 57.406 37.6297 56.7821 37.0058C56.1583 36.382 55.3125 36.031 54.4302 36.0298H44.482C44.4264 36.0299 44.3714 36.0174 44.3213 35.9933C44.2711 35.9692 44.2271 35.9341 44.1924 35.8906C44.1577 35.8471 44.1333 35.7963 44.1209 35.7421C44.1086 35.6878 44.1086 35.6315 44.1211 35.5772C44.6982 33.287 45.0548 30.9468 45.186 28.5886C45.25 27.3547 44.8507 26.1415 44.0664 25.1868C43.7433 24.8184 43.3458 24.5225 42.9003 24.3186C42.4547 24.1146 41.971 24.0073 41.481 24.0035C41.1027 23.9846 40.7246 24.0423 40.3692 24.1731C40.0139 24.304 39.6886 24.5053 39.413 24.765C39.1374 25.0247 38.9172 25.3375 38.7655 25.6845C38.6137 26.0314 38.5337 26.4055 38.5302 26.7842C38.5574 29.5106 37.5367 32.1435 35.6789 34.1392C33.8211 36.1349 31.2679 37.3411 28.5465 37.5089H24.1093C23.8151 37.5089 23.5329 37.6258 23.3249 37.8338C23.1169 38.0418 23 38.324 23 38.6182V51.9298C23 52.224 23.1169 52.5062 23.3249 52.7142C23.5329 52.9223 23.8151 53.0391 24.1093 53.0391C30.8124 53.0391 32.997 53.9783 34.9243 54.8037C36.6221 55.6286 38.4919 56.0377 40.3791 55.9973H49.993C50.5585 55.997 51.1145 55.8527 51.6088 55.578C52.103 55.3033 52.5192 54.9072 52.818 54.4271C53.1168 53.947 53.2883 53.3988 53.3166 52.834C53.3448 52.2693 53.2287 51.7066 52.9792 51.1992C53.7596 50.8025 54.3524 50.1145 54.6292 49.284C54.906 48.4536 54.8446 47.5475 54.4583 46.762C55.2387 46.3653 55.8314 45.6773 56.1082 44.8468C56.3851 44.0164 56.3237 43.1103 55.9374 42.3247C56.4851 42.0463 56.9451 41.6218 57.2664 41.0982C57.5878 40.5745 57.7579 39.9721 57.7581 39.3577Z" fill="#FFE7D1"/>
</svg>
