<svg width="80" height="80" viewBox="0 0 80 80" fill="none" xmlns="http://www.w3.org/2000/svg">
<path d="M40 80C62.0914 80 80 62.0914 80 40C80 17.9086 62.0914 0 40 0C17.9086 0 0 17.9086 0 40C0 62.0914 17.9086 80 40 80Z" fill="black"/>
<path d="M26.6667 47.8198C26.3131 47.8198 25.974 47.9603 25.7239 48.2103C25.4738 48.4604 25.3334 48.7995 25.3334 49.1532V51.1532C25.3332 51.197 25.3417 51.2405 25.3584 51.281C25.3751 51.3215 25.3996 51.3583 25.4306 51.3893C25.4616 51.4203 25.4984 51.4448 25.5389 51.4615C25.5795 51.4782 25.6229 51.4867 25.6667 51.4865H30.3335C30.3773 51.4867 30.4207 51.4782 30.4613 51.4615C30.5018 51.4448 30.5386 51.4203 30.5696 51.3893C30.6006 51.3583 30.6251 51.3215 30.6418 51.281C30.6585 51.2405 30.667 51.197 30.6668 51.1532V49.1532C30.6668 48.7995 30.5264 48.4604 30.2763 48.2103C30.0262 47.9603 29.6871 47.8198 29.3335 47.8198H26.6667Z" fill="#FFE7D1"/>
<path d="M34.6669 43.8197C34.3133 43.8197 33.9742 43.9602 33.7241 44.2102C33.4741 44.4603 33.3336 44.7994 33.3336 45.153V51.1532C33.3334 51.197 33.3419 51.2405 33.3586 51.281C33.3753 51.3215 33.3998 51.3583 33.4308 51.3893C33.4618 51.4203 33.4986 51.4448 33.5392 51.4615C33.5797 51.4782 33.6231 51.4867 33.6669 51.4865H38.3337C38.3775 51.4867 38.421 51.4782 38.4615 51.4615C38.502 51.4448 38.5388 51.4203 38.5698 51.3893C38.6008 51.3583 38.6254 51.3215 38.642 51.281C38.6587 51.2405 38.6672 51.197 38.6671 51.1532V45.153C38.6671 44.7994 38.5266 44.4603 38.2765 44.2102C38.0265 43.9602 37.6873 43.8197 37.3337 43.8197H34.6669Z" fill="#FFE7D1"/>
<path d="M42.6672 39.1529C42.3135 39.1529 41.9744 39.2934 41.7243 39.5434C41.4743 39.7935 41.3338 40.1326 41.3338 40.4863V51.1532C41.3336 51.197 41.3421 51.2405 41.3588 51.281C41.3755 51.3215 41.4 51.3583 41.431 51.3893C41.462 51.4203 41.4988 51.4448 41.5394 51.4615C41.5799 51.4782 41.6233 51.4867 41.6671 51.4865H46.3339C46.3777 51.4867 46.4212 51.4782 46.4617 51.4615C46.5022 51.4448 46.539 51.4203 46.57 51.3893C46.601 51.3583 46.6256 51.3215 46.6423 51.281C46.6589 51.2405 46.6674 51.197 46.6673 51.1532V40.4863C46.6673 40.1326 46.5268 39.7935 46.2767 39.5434C46.0267 39.2934 45.6875 39.1529 45.3339 39.1529H42.6672Z" fill="#FFE7D1"/>
<path d="M49.6673 51.4865H54.3341C54.378 51.4867 54.4214 51.4782 54.4619 51.4615C54.5024 51.4448 54.5392 51.4203 54.5702 51.3893C54.6012 51.3583 54.6258 51.3215 54.6425 51.281C54.6592 51.2405 54.6677 51.197 54.6675 51.1532V35.1528C54.6675 34.7992 54.527 34.46 54.2769 34.2099C54.0269 33.9599 53.6877 33.8194 53.3341 33.8194H50.6674C50.3137 33.8194 49.9746 33.9599 49.7245 34.2099C49.4745 34.46 49.334 34.7992 49.334 35.1528V51.1532C49.3338 51.197 49.3423 51.2405 49.359 51.281C49.3757 51.3215 49.4003 51.3583 49.4312 51.3893C49.4622 51.4203 49.499 51.4448 49.5396 51.4615C49.5801 51.4782 49.6235 51.4867 49.6673 51.4865Z" fill="#FFE7D1"/>
<path d="M48.0926 29.6086L48.502 30.222C48.5935 30.3586 48.7173 30.4706 48.8624 30.5481C49.0076 30.6255 49.1695 30.666 49.334 30.666H49.3673C49.5378 30.6603 49.7039 30.6112 49.85 30.5232C49.9961 30.4352 50.1173 30.3113 50.202 30.1633L52.8688 25.4965C52.9607 25.3353 53.0061 25.1516 52.9997 24.9661C52.9934 24.7805 52.9356 24.6004 52.8328 24.4458C52.7306 24.2905 52.5867 24.167 52.4176 24.0897C52.2485 24.0123 52.0611 23.9842 51.8767 24.0085L46.5433 24.6752C46.374 24.696 46.2129 24.7598 46.0752 24.8606C45.9376 24.9613 45.8281 25.0956 45.7571 25.2507C45.6861 25.4058 45.656 25.5765 45.6697 25.7465C45.6834 25.9165 45.7404 26.0801 45.8352 26.2219L46.2446 26.8352C46.2933 26.909 46.3109 26.9991 46.2934 27.0858C46.2759 27.1725 46.2248 27.2488 46.1512 27.2979L27.2601 39.8916C26.9659 40.0878 26.7617 40.3929 26.6924 40.7398C26.6231 41.0866 26.6945 41.4467 26.8907 41.741C27.087 42.0352 27.3921 42.2394 27.7389 42.3086C28.0858 42.3779 28.4459 42.3066 28.7401 42.1103L47.6313 29.5166C47.6676 29.4923 47.7083 29.4754 47.7512 29.4668C47.7941 29.4583 47.8382 29.4583 47.8811 29.4668C47.9239 29.4754 47.9647 29.4923 48.001 29.5166C48.0373 29.541 48.0684 29.5722 48.0926 29.6086Z" fill="#FFE7D1"/>
<path d="M25.3334 56H54.6675C55.0211 56 55.3603 55.8595 55.6103 55.6095C55.8604 55.3594 56.0008 55.0203 56.0008 54.6666C56.0008 54.313 55.8604 53.9739 55.6103 53.7238C55.3603 53.4737 55.0211 53.3333 54.6675 53.3333H25.3334C24.9797 53.3333 24.6406 53.4737 24.3905 53.7238C24.1405 53.9739 24 54.313 24 54.6666C24 55.0203 24.1405 55.3594 24.3905 55.6095C24.6406 55.8595 24.9797 56 25.3334 56Z" fill="#FFE7D1"/>
</svg>
