<svg height="28" viewBox="0 0 22 28" width="22" xmlns="http://www.w3.org/2000/svg"><path d="m714 89c-.442857 0-1-.5425-1-1v-3c0-.4575.557143-1 1-1h10c.442 0 1 .5425 1 1v3c0 .4575-.558 1-1 1zm-1 9h12v-2h-12zm0 4h12v-2h-12zm0 4h12v-2h-12zm14-19h.9185c1.149115 0 2.0815.9086207 2.0815 2.0284483v20.9431037c0 1.119827-.932385 2.028448-2.0815 2.028448h-17.837c-1.149115 0-2.0815-.908621-2.0815-2.028448v-20.9431037c0-1.1198276.932385-2.0284483 2.0815-2.0284483h.9185v2.7387931c0 .7724138.207385 1.2612069 1 1.2612069h14c.792615 0 1-.4887931 1-1.2612069z" fill-rule="evenodd" transform="translate(-708 -84)"/></svg>
