<svg width="70" height="70" viewBox="0 0 70 70" fill="none" xmlns="http://www.w3.org/2000/svg">
<path d="M35 70C54.33 70 70 54.33 70 35C70 15.67 54.33 0 35 0C15.67 0 0 15.67 0 35C0 54.33 15.67 70 35 70Z" fill="#FFE7D1"/>
<path d="M51.4809 48.9296L42.0594 39.5082C44.1159 36.8049 45.0688 33.4214 44.7253 30.0422C44.3818 26.663 42.7676 23.5404 40.2092 21.3062C37.6508 19.072 34.3394 17.893 30.9447 18.0076C27.55 18.1223 24.3256 19.5221 21.9239 21.9239C19.5221 24.3256 18.1223 27.55 18.0076 30.9447C17.893 34.3394 19.072 37.6508 21.3062 40.2092C23.5404 42.7676 26.663 44.3818 30.0422 44.7253C33.4214 45.0688 36.8049 44.1159 39.5082 42.0594L48.9296 51.4809C49.2708 51.8137 49.7286 52 50.2053 52C50.6819 52 51.1397 51.8137 51.4809 51.4809C51.8189 51.1424 52.0088 50.6836 52.0088 50.2053C52.0088 49.7269 51.8189 49.2681 51.4809 48.9296V48.9296ZM21.7057 31.4417C21.7057 29.5152 22.2769 27.632 23.3472 26.0302C24.4175 24.4284 25.9387 23.18 27.7186 22.4428C29.4984 21.7055 31.4568 21.5127 33.3463 21.8885C35.2357 22.2643 36.9713 23.192 38.3335 24.5542C39.6957 25.9164 40.6234 27.652 40.9992 29.5414C41.3751 31.4309 41.1822 33.3894 40.445 35.1692C39.7077 36.949 38.4593 38.4702 36.8575 39.5405C35.2557 40.6108 33.3725 41.1821 31.446 41.1821C28.8637 41.179 26.3879 40.1518 24.5619 38.3258C22.7359 36.4998 21.7087 34.0241 21.7057 31.4417V31.4417Z" fill="black"/>
</svg>
