<svg height="135" viewBox="0 0 134 135" width="134" xmlns="http://www.w3.org/2000/svg"><path d="m541 337c-37.003078 0-67-30.220779-67-67.5s29.996922-67.5 67-67.5 67 30.220779 67 67.5-29.996922 67.5-67 67.5zm16.5-97c-3.037566 0-5.5 2.462434-5.5 5.5v48c0 3.037566 2.462434 5.5 5.5 5.5s5.5-2.462434 5.5-5.5v-48c0-3.037566-2.462434-5.5-5.5-5.5zm-33 0c-3.037566 0-5.5 2.462434-5.5 5.5v48c0 3.037566 2.462434 5.5 5.5 5.5s5.5-2.462434 5.5-5.5v-48c0-3.037566-2.462434-5.5-5.5-5.5z" fill="#fff" transform="translate(-474 -202)"/></svg>
