<svg width="110" height="110" viewBox="0 0 110 110" fill="none" xmlns="http://www.w3.org/2000/svg">
<path d="M55 110C85.3757 110 110 85.3757 110 55C110 24.6243 85.3757 0 55 0C24.6243 0 0 24.6243 0 55C0 85.3757 24.6243 110 55 110Z" fill="#FFE7D1"/>
<path d="M74.663 42.8911L54.1037 70.7911C53.8609 71.1132 53.5565 71.3836 53.2081 71.5867C52.8597 71.7898 52.4744 71.9215 52.0745 71.9741C51.6747 72.0267 51.2684 71.9991 50.8793 71.8929C50.4903 71.7867 50.1263 71.6041 49.8086 71.3558L35.1272 59.6179C34.8192 59.3714 34.5627 59.0666 34.3724 58.721C34.1822 58.3753 34.0618 57.9956 34.0183 57.6035C33.9305 56.8115 34.1608 56.0171 34.6587 55.3949C35.1565 54.7728 35.8812 54.3739 36.6731 54.286C37.4651 54.1982 38.2595 54.4285 38.8817 54.9264L51.1241 64.7209L69.8272 39.3379C70.0524 39.0001 70.3437 38.7113 70.6836 38.4892C71.0235 38.2671 71.4049 38.1162 71.8048 38.0457C72.2046 37.9751 72.6146 37.9864 73.01 38.0788C73.4054 38.1711 73.7779 38.3427 74.1051 38.5831C74.4323 38.8236 74.7074 39.1278 74.9137 39.4775C75.12 39.8273 75.2532 40.2152 75.3053 40.6178C75.3575 41.0205 75.3274 41.4296 75.217 41.8203C75.1066 42.211 74.9181 42.5753 74.663 42.8911Z" fill="black"/>
</svg>
