<svg width="72" height="72" viewBox="0 0 72 72" fill="none" xmlns="http://www.w3.org/2000/svg">
<path d="M36 72C55.8823 72 72 55.8823 72 36C72 16.1177 55.8823 0 36 0C16.1177 0 0 16.1177 0 36C0 55.8823 16.1177 72 36 72Z" fill="#FFE7D1"/>
<path d="M33.0022 46.7104C32.9861 46.2716 33.0576 45.834 33.2126 45.4232C33.3676 45.0123 33.6029 44.6365 33.9048 44.3177C34.2068 43.9989 34.5692 43.7435 34.971 43.5664C35.3728 43.3894 35.8059 43.2942 36.2449 43.2865H36.3053C37.1884 43.2881 38.0365 43.6316 38.6719 44.2449C39.3073 44.8582 39.6806 45.6936 39.7135 46.5761C39.73 47.015 39.6587 47.4527 39.5038 47.8636C39.3489 48.2746 39.1136 48.6505 38.8116 48.9694C38.5097 49.2882 38.1471 49.5436 37.7451 49.7206C37.3432 49.8976 36.91 49.9926 36.4709 50H36.4105C35.5277 49.9972 34.6802 49.6533 34.0451 49.0403C33.4099 48.4272 33.0363 47.5924 33.0022 46.7104ZM34.1212 37.665V24.2379C34.1212 23.6443 34.3569 23.0751 34.7766 22.6555C35.1963 22.2358 35.7655 22 36.359 22C36.9525 22 37.5217 22.2358 37.9414 22.6555C38.3611 23.0751 38.5969 23.6443 38.5969 24.2379V37.665C38.5969 38.2585 38.3611 38.8277 37.9414 39.2474C37.5217 39.667 36.9525 39.9028 36.359 39.9028C35.7655 39.9028 35.1963 39.667 34.7766 39.2474C34.3569 38.8277 34.1212 38.2585 34.1212 37.665Z" fill="black"/>
</svg>
