<svg height="92" viewBox="0 0 92 92" width="92" xmlns="http://www.w3.org/2000/svg"><g fill="none"><circle cx="46" cy="46" fill="#f3f4f5" r="46"/><circle cx="46" cy="46" fill="#172b41" opacity=".2" r="28"/><circle cx="46" cy="46" fill="#fff" r="16"/><path d="m44.74 54.36v-1.8c-2.1-.18-3.64-.98-4.74-2.08l1.56-2.22c.74.78 1.84 1.48 3.18 1.72v-3.1c-2.06-.5-4.3-1.28-4.3-4 0-2.02 1.6-3.74 4.3-4.02v-1.86h1.88v1.9c1.62.18 3 .78 4.08 1.78l-1.58 2.12c-.72-.66-1.6-1.08-2.5-1.3v2.76c2.08.52 4.4 1.32 4.4 4.06 0 2.22-1.46 3.94-4.4 4.24v1.8zm3.38-5.76c0-.66-.62-.98-1.5-1.26v2.68c1.02-.2 1.5-.78 1.5-1.42zm-4.76-5.94c0 .58.56.88 1.38 1.14v-2.42c-.88.12-1.38.6-1.38 1.28z" fill="#d1d5d9"/></g></svg>
