<?xml version="1.0" encoding="UTF-8"?>
<svg width="33px" height="42px" viewBox="0 0 33 42" version="1.1" xmlns="http://www.w3.org/2000/svg" xmlns:xlink="http://www.w3.org/1999/xlink">
    <!-- Generator: sketchtool 63.1 (101010) - https://sketch.com -->
    <title>E127E98C-D67F-43EE-B585-486786DB07DD@1.00x</title>
    <desc>Created with sketchtool.</desc>
    <g id="🎨-Symbols" stroke="none" stroke-width="1" fill="none" fill-rule="evenodd">
        <g id="Lab-Order-Upload-/-D&amp;D-/-Large" transform="translate(-147.000000, -34.000000)" fill="#DBAF82">
            <g id="Content" transform="translate(25.000000, 34.000000)">
                <g id="large-file-plus-icon" transform="translate(122.000000, 0.000000)">
                    <path d="M5,5 L5,8 L3,8 L3,39 L25,39 L25,37 L28,37 L28,38 L28,38 C28,40.209139 26.209139,42 24,42 L4,42 C1.790861,42 0,40.209139 0,38 L0,9 C0,6.790861 1.790861,5 4,5 L5,5 Z" id="Combined-Shape" opacity="0.5"></path>
                    <path d="M33,9 C33,15 33,23 33,33 C33,35.209139 31.209139,37 29,37 L9,37 C6.790861,37 5,35.209139 5,33 L5,4 C5,1.790861 6.790861,0 9,0 C15.2222222,0 20.2222222,0 24,0 L33,9 Z M22,2 L21.9996885,3 L8,3 L8,34 L30,34 L30,11 L31,11 L22,2 Z" id="Shape"></path>
                    <path d="M19,14 L19,0 L22,0 L22,11 L33,11 L33,14 L19,14 Z" id="Combined-Shape"></path>
                    <path d="M20,17 L20,20 L23,20 L23,22 L20,22 L20,25 L18,25 L18,22 L15,22 L15,20 L18,20 L18,17 L20,17 Z" id="Combined-Shape"></path>
                </g>
            </g>
        </g>
    </g>
</svg>
