<?xml version="1.0" encoding="UTF-8"?>
<svg width="34px" height="44px" viewBox="0 0 34 44" version="1.1" xmlns="http://www.w3.org/2000/svg" xmlns:xlink="http://www.w3.org/1999/xlink">
    <!-- Generator: sketchtool 63.1 (101010) - https://sketch.com -->
    <title>CF7C5914-B69E-4211-BCAD-F5E42D2857D9@1.00x</title>
    <desc>Created with sketchtool.</desc>
    <g id="🎨-Symbols" stroke="none" stroke-width="1" fill="none" fill-rule="evenodd">
        <g id="Lab-Order-Upload-/-Text-Link-/-Large" transform="translate(-148.000000, -35.000000)" fill="#DBAF82">
            <g id="Content" transform="translate(25.000000, 35.000000)">
                <g id="large-mobile-phone-icon" transform="translate(123.000000, 0.000000)">
                    <path d="M26,0 C28.209139,-4.05812251e-16 30,1.790861 30,4 L30,11 L27,11 L27,5 C27,3.8954305 26.1045695,3 25,3 L6,3 C4.9456382,3 4.08183488,3.81587779 4.00548574,4.85073766 L4,5 L4,39 C4,40.0543618 4.81587779,40.9181651 5.85073766,40.9945143 L6,41 L25,41 C26.0543618,41 26.9181651,40.1841222 26.9945143,39.1492623 L27,39 L27,33 L30,33 L30,40 C30,42.209139 28.209139,44 26,44 L5,44 C2.790861,44 1,42.209139 1,40 L1,16 L0,16 L0,13 L1,13 L1,10 L0,10 L0,7 L1,7 L1,4 C1,1.790861 2.790861,4.05812251e-16 5,0 L26,0 Z M17,37 L17,39 L14,39 L14,37 L17,37 Z M28,15 C29.1045695,15 30,15.8954305 30,17 C30,17.6666667 30.3333333,18 31,18 L32,18 C33.1045695,18 34,18.8954305 34,20 L34,27 C34,28.1045695 33.1045695,29 32,29 L17,29 C15.8954305,29 15,28.1045695 15,27 L15,20 C15,18.8954305 15.8954305,18 17,18 L18,18 C18.6666667,18 19,17.6666667 19,17 C19,15.8954305 19.8954305,15 21,15 L28,15 Z M24.5,18 C22.0147186,18 20,20.0147186 20,22.5 C20,24.9852814 22.0147186,27 24.5,27 C26.9852814,27 29,24.9852814 29,22.5 C29,20.0147186 26.9852814,18 24.5,18 Z M24.5,20 C25.8807119,20 27,21.1192881 27,22.5 C27,23.8807119 25.8807119,25 24.5,25 C23.1192881,25 22,23.8807119 22,22.5 C22,21.1192881 23.1192881,20 24.5,20 Z M20,5 L20,7 L11,7 L11,5 L20,5 Z" id="Combined-Shape"></path>
                </g>
            </g>
        </g>
    </g>
</svg>
