<svg width="70" height="70" viewBox="0 0 70 70" fill="none" xmlns="http://www.w3.org/2000/svg">
<path d="M35 70C54.33 70 70 54.33 70 35C70 15.67 54.33 0 35 0C15.67 0 0 15.67 0 35C0 54.33 15.67 70 35 70Z" fill="#FFE7D1"/>
<path d="M35 18C31.6377 18 28.3509 18.997 25.5553 20.865C22.7597 22.733 20.5807 25.388 19.2941 28.4944C18.0074 31.6007 17.6707 35.0189 18.3267 38.3165C18.9826 41.6142 20.6017 44.6433 22.9792 47.0208C25.3567 49.3983 28.3858 51.0174 31.6835 51.6733C34.9811 52.3293 38.3993 51.9926 41.5056 50.7059C44.612 49.4193 47.267 47.2403 49.135 44.4447C51.003 41.6491 52 38.3623 52 35C51.9948 30.4929 50.202 26.172 47.015 22.985C43.828 19.798 39.5071 18.0052 35 18ZM35 49.1667C32.1981 49.1667 29.4591 48.3358 27.1294 46.7791C24.7997 45.2225 22.984 43.01 21.9117 40.4213C20.8395 37.8327 20.5589 34.9843 21.1055 32.2362C21.6522 29.4882 23.0014 26.9639 24.9827 24.9827C26.9639 23.0014 29.4882 21.6522 32.2362 21.1055C34.9843 20.5589 37.8327 20.8395 40.4214 21.9117C43.01 22.9839 45.2225 24.7997 46.7792 27.1294C48.3358 29.4591 49.1667 32.1981 49.1667 35C49.1625 38.756 47.6687 42.3569 45.0128 45.0128C42.3569 47.6687 38.756 49.1625 35 49.1667Z" fill="black"/>
<path d="M42.2732 40.3975L35.7083 34.3781V27.2083C35.7083 26.8326 35.5591 26.4723 35.2934 26.2066C35.0277 25.9409 34.6674 25.7917 34.2917 25.7917C33.916 25.7917 33.5556 25.9409 33.2899 26.2066C33.0243 26.4723 32.875 26.8326 32.875 27.2083V35C32.8748 35.1966 32.9155 35.391 32.9945 35.571C33.0735 35.751 33.1892 35.9126 33.334 36.0455L40.3593 42.4842C40.6378 42.7348 41.0035 42.866 41.3778 42.8499C41.7521 42.8337 42.1051 42.6714 42.361 42.3978C42.6144 42.1208 42.7475 41.7546 42.731 41.3795C42.7145 41.0044 42.5499 40.6512 42.2732 40.3975Z" fill="black"/>
</svg>
