<svg height="32" viewBox="0 0 27 32" width="27" xmlns="http://www.w3.org/2000/svg"><path d="m17.5496 7c.891 0 1.752.372 2.362 1.02l6.205 6.584c.569.604.883 1.395.883 2.225v18.926c0 1.789-1.455 3.245-3.244 3.245h-20.511c-1.789 0-3.245-1.456-3.245-3.245v-25.51c0-1.789 1.456-3.245 3.245-3.245zm0 2h-14.305c-.687 0-1.245.558-1.245 1.245v25.51c0 .687.558 1.245 1.245 1.245h20.511c.686 0 1.244-.558 1.244-1.245v-18.926c0-.318-.12-.621-.338-.853l-6.206-6.585c-.234-.248-.564-.391-.906-.391zm-6.5496 16 4 5 3-3 4 7h-17zm-2-12c1.657 0 3 1.343 3 3s-1.343 3-3 3-3-1.343-3-3 1.343-3 3-3z" fill-rule="evenodd" transform="translate(0 -7)"/></svg>
