<svg width="24" height="24" viewBox="0 0 24 24" fill="none" xmlns="http://www.w3.org/2000/svg">
<path d="M13.1736 19.6748C13.3387 19.4839 13.4225 19.2342 13.4066 18.9804C13.3907 18.7266 13.2765 18.4897 13.089 18.3217L7.44599 13.2673C7.42081 13.2444 7.40304 13.2142 7.39503 13.1808C7.38702 13.1474 7.38915 13.1122 7.40113 13.0801C7.41311 13.0479 7.43438 13.0202 7.46215 13.0005C7.48991 12.9809 7.52286 12.9703 7.55666 12.9701L19.0586 12.9701C19.3083 12.9701 19.5477 12.8692 19.7243 12.6895C19.9008 12.5098 20 12.266 20 12.0119C20 11.7578 19.9008 11.514 19.7243 11.3343C19.5477 11.1547 19.3083 11.0537 19.0586 11.0537L7.55666 11.0537C7.52286 11.0535 7.48991 11.0429 7.46215 11.0233C7.43438 11.0036 7.41311 10.9759 7.40113 10.9437C7.38915 10.9116 7.38702 10.8764 7.39503 10.843C7.40304 10.8096 7.42081 10.7794 7.44599 10.7565L13.089 5.70078C13.1869 5.61916 13.2677 5.51828 13.3264 5.40417C13.3852 5.29007 13.4208 5.16508 13.4311 5.03667C13.4413 4.90825 13.4261 4.77905 13.3862 4.65677C13.3463 4.53449 13.2826 4.42165 13.199 4.32498C13.1153 4.22831 13.0133 4.1498 12.8992 4.09413C12.785 4.03846 12.661 4.00678 12.5346 4.00097C12.4081 3.99517 12.2818 4.01536 12.1632 4.06035C12.0446 4.10533 11.9361 4.17418 11.8442 4.26279L4.53317 10.8128C4.36564 10.9626 4.23144 11.147 4.1395 11.3538C4.04756 11.5606 4 11.7849 4 12.0119C4 12.2389 4.04756 12.4632 4.1395 12.67C4.23144 12.8768 4.36564 13.0612 4.53317 13.211L11.8449 19.761C11.9377 19.8442 12.0457 19.9079 12.1627 19.9486C12.2797 19.9892 12.4034 20.0061 12.5268 19.9981C12.6502 19.9901 12.7708 19.9574 12.8818 19.9019C12.9928 19.8465 13.092 19.7693 13.1736 19.6748V19.6748Z" fill="black"/>
</svg>
