<svg width="24" height="24" viewBox="0 0 24 24" fill="none" xmlns="http://www.w3.org/2000/svg">
<path d="M14.3947 17.874L8.16401 12.3827C8.11216 12.3329 8.0709 12.2732 8.04272 12.2071C8.01453 12.141 8 12.0698 8 11.998C8 11.9261 8.01453 11.855 8.04272 11.7888C8.0709 11.7227 8.11216 11.663 8.16401 11.6133L14.3947 6.1244C14.4441 6.0805 14.5019 6.04699 14.5645 6.02586C14.6271 6.00473 14.6934 5.99642 14.7593 6.00141C14.8252 6.0064 14.8894 6.02459 14.9481 6.05491C15.0069 6.08523 15.0589 6.12705 15.1012 6.17789L15.8791 7.10279C15.966 7.20592 16.0089 7.33911 15.9985 7.47361C15.9881 7.60811 15.9253 7.73313 15.8236 7.8217L11.1008 11.9037C11.0871 11.9155 11.0762 11.93 11.0687 11.9463C11.0612 11.9627 11.0573 11.9805 11.0573 11.9985C11.0573 12.0165 11.0612 12.0342 11.0687 12.0506C11.0762 12.0669 11.0871 12.0815 11.1008 12.0932L15.8221 16.1767C15.8727 16.2207 15.9142 16.2743 15.9441 16.3343C15.974 16.3944 15.9918 16.4598 15.9965 16.5267C16.0024 16.5933 15.9949 16.6603 15.9745 16.724C15.9541 16.7876 15.9211 16.8465 15.8776 16.8971L15.0992 17.8225C15.0568 17.8733 15.0048 17.915 14.946 17.9452C14.8873 17.9755 14.8231 17.9936 14.7572 17.9986C14.6914 18.0036 14.6252 17.9953 14.5626 17.9742C14.5 17.9532 14.4422 17.9198 14.3927 17.876L14.3947 17.874Z" fill="currentColor"/>
</svg>
