<svg width="30" height="61" viewBox="0 0 30 61" fill="none" xmlns="http://www.w3.org/2000/svg">
<path d="M8.24414 33.7985L8.24411 33.7984C7.69065 32.4621 7.54584 30.9919 7.828 29.5734C8.11016 28.1549 8.80659 26.852 9.82928 25.8293C9.82929 25.8293 9.8293 25.8293 9.82932 25.8293M8.24414 33.7985L9.82932 25.8293M8.24414 33.7985C8.79755 35.1343 9.73464 36.2765 10.9373 37.0799C12.1398 37.8837 13.5539 38.3124 15.0001 38.3124C16.9391 38.3124 18.7994 37.542 20.1705 36.1706C20.1705 36.1706 20.1705 36.1706 20.1706 36.1706C20.1706 36.1705 20.1706 36.1705 20.1706 36.1705C21.5421 34.7994 22.3124 32.9391 22.3124 31C22.3124 29.5538 21.8837 28.1399 21.0799 26.9373C20.2765 25.7348 19.1343 24.7976 17.7985 24.2441L17.7984 24.2441M8.24414 33.7985L17.7984 24.2441M9.82932 25.8293C10.8519 24.8066 12.1549 24.1102 13.5735 23.828L9.82932 25.8293ZM17.7984 24.2441C16.4622 23.6907 14.9919 23.5458 13.5735 23.828L17.7984 24.2441ZM15.0039 60.25H15.0001C14.8076 60.25 14.6185 60.2007 14.4508 60.107C14.2832 60.0134 14.1424 59.8784 14.0418 59.715C12.0322 56.4415 8.69387 50.8302 5.86033 45.2232C4.44325 42.419 3.15888 39.6286 2.23047 37.1398C1.29442 34.6305 0.750099 32.5043 0.75 31.0004C0.754358 27.2223 2.25713 23.6002 4.92866 20.9287C7.6001 18.2572 11.222 16.7545 15.0001 16.75C18.7779 16.7545 22.3999 18.2572 25.0714 20.9286C27.7428 23.6003 29.2456 27.2225 29.2499 31.0008C29.2497 32.5066 28.7053 34.6338 27.7694 37.1432C26.841 39.6324 25.5567 42.4227 24.1397 45.2264C21.3062 50.8325 17.968 56.4414 15.9585 59.7129L15.9563 59.7165C15.857 59.8803 15.7171 60.0153 15.5505 60.1085L15.5499 60.1088C15.3829 60.2023 15.1948 60.2509 15.0039 60.25Z" fill="#FF5151" stroke="black" stroke-width="1.5"/>
<path d="M15 37C18.3137 37 21 34.3137 21 31C21 27.6863 18.3137 25 15 25C11.6863 25 9 27.6863 9 31C9 34.3137 11.6863 37 15 37Z" fill="#7C1313" stroke="white" stroke-width="2"/>
</svg>
