<svg height="24" viewBox="0 0 24 24" width="24" xmlns="http://www.w3.org/2000/svg"><path d="m13 1 .0009551 3.06201291c3.6182831.4516352 6.4859689 3.31961386 6.9371572 6.93803579l3.0618877-.0000487v2l-3.0620129.0009551c-.4515934 3.6179485-3.3190835 6.4854386-6.937032 6.937032l-.0009551 3.0620129h-2l.0000487-3.0618877c-3.61842193-.4511883-6.48640059-3.3188741-6.93803579-6.9371572l-3.06201291-.0009551v-2l3.06188768.0000487c.45123002-3.61875653 3.31940449-6.486931 6.93816102-6.93816102l-.0000487-3.06188768zm-1 5c-3.3137085 0-6 2.6862915-6 6s2.6862915 6 6 6 6-2.6862915 6-6-2.6862915-6-6-6zm0 3c1.6568542 0 3 1.3431458 3 3s-1.3431458 3-3 3-3-1.3431458-3-3 1.3431458-3 3-3z" fill-rule="evenodd"/></svg>