<svg width="29" height="37" viewBox="0 0 29 37" fill="none" xmlns="http://www.w3.org/2000/svg">
<path d="M14.5001 0C11.4511 0.00327643 8.528 1.16325 6.37207 3.22544C4.21613 5.28763 3.00343 8.08361 3 11C3 15.8263 10.1875 27.5342 13.2754 32.3454C13.404 32.5455 13.5841 32.7108 13.7985 32.8253C14.0129 32.9399 14.2544 33 14.5001 33C14.7461 33.0012 14.9881 32.9413 15.2027 32.8263C15.4173 32.7115 15.5972 32.5453 15.7249 32.344C18.8126 27.5357 26 15.8317 26 11C25.9966 8.08361 24.7839 5.28763 22.6281 3.22544C20.4721 1.16325 17.549 0.00327643 14.5001 0ZM14.5001 15.8124C13.505 15.8124 12.5321 15.5303 11.7049 15.0013C10.8774 14.4726 10.2326 13.7209 9.85175 12.8417C9.47094 11.9623 9.37131 10.9947 9.56545 10.0611C9.75959 9.12758 10.2388 8.27008 10.9424 7.59704C11.646 6.92401 12.5425 6.46566 13.5186 6.27997C14.4945 6.09427 15.506 6.18957 16.4255 6.55382C17.3447 6.91807 18.1305 7.53491 18.6833 8.32632C19.2363 9.11773 19.5312 10.0482 19.5312 11C19.5312 12.2762 19.0012 13.5005 18.0576 14.4028C17.1142 15.3054 15.8343 15.8124 14.5001 15.8124Z" fill="#FFE7D1"/>
<path d="M14.5 16.75C17.3993 16.75 19.75 14.3993 19.75 11.5C19.75 8.60066 17.3993 6.25 14.5 6.25C11.6007 6.25 9.25 8.60066 9.25 11.5C9.25 14.3993 11.6007 16.75 14.5 16.75Z" fill="#141314" stroke="white" stroke-width="1.5"/>
<path d="M24.476 24.0975C27.3025 25.4461 29 27.3614 29 29.5562C29 33.8688 22.4399 37 14.5 37C6.55959 37 0 33.8689 0 29.5562C0 27.604 1.345 25.869 3.63883 24.5589L3.89759 24.4151L4.84904 26.1743C2.97822 27.1861 2 28.3973 2 29.5562C2 32.3611 7.5284 35 14.5 35C21.471 35 27 32.361 27 29.5562C27 28.3372 25.9122 27.0611 23.8744 26.0301L23.6147 25.9025L24.476 24.0975Z" fill="black"/>
</svg>
