<svg width="30" height="62" viewBox="0 0 30 62" fill="none" xmlns="http://www.w3.org/2000/svg">
<path d="M15.0001 60.25H15.0039C15.1948 60.2509 15.3829 60.2024 15.5499 60.1088L15.5505 60.1085C15.7171 60.0153 15.857 59.8803 15.9563 59.7165L15.9585 59.7129C17.968 56.4414 21.3062 50.8325 24.1397 45.2264C25.5567 42.4227 26.841 39.6324 27.7694 37.1432C28.7053 34.6338 29.2497 32.5066 29.2499 31.0008C29.2456 27.2225 27.7429 23.6003 25.0715 20.9287C25.0714 20.9287 25.0714 20.9286 25.0714 20.9286M15.0001 60.25V16C18.9768 16.0045 22.7896 17.5862 25.6018 20.3983L25.0714 20.9286M15.0001 60.25C14.8076 60.25 14.6185 60.2007 14.4508 60.107C14.283 60.0133 14.1421 59.8782 14.0415 59.7145C12.0319 56.441 8.69374 50.83 5.86033 45.2232C4.44325 42.419 3.15888 39.6286 2.23047 37.1398C1.29442 34.6305 0.750099 32.5043 0.75 31.0004C0.754358 27.2223 2.25713 23.6002 4.92866 20.9287C7.60009 18.2572 11.222 16.7545 15.0001 16.75M15.0001 60.25V16.75M25.0714 20.9286C22.3999 18.2572 18.7779 16.7545 15.0001 16.75M25.0714 20.9286L15.0001 16.75M8.24414 33.7985L8.24411 33.7984C7.69065 32.4621 7.54584 30.9919 7.828 29.5734C8.11016 28.1549 8.80659 26.852 9.82928 25.8293C9.82929 25.8293 9.8293 25.8293 9.82931 25.8293M8.24414 33.7985L9.82931 25.8293M8.24414 33.7985C8.79755 35.1343 9.73464 36.2765 10.9373 37.0799C12.1398 37.8837 13.5539 38.3124 15.0001 38.3124C16.9391 38.3124 18.7994 37.542 20.1705 36.1706C20.1705 36.1706 20.1705 36.1706 20.1706 36.1706C20.1706 36.1705 20.1706 36.1705 20.1706 36.1705C21.5421 34.7994 22.3124 32.9391 22.3124 31C22.3124 29.5538 21.8837 28.1399 21.0799 26.9373C20.2765 25.7348 19.1343 24.7976 17.7985 24.2441L17.7984 24.2441M8.24414 33.7985L17.7984 24.2441M9.82931 25.8293C10.8519 24.8066 12.1549 24.1102 13.5735 23.828L9.82931 25.8293ZM17.7984 24.2441C16.4622 23.6907 14.9919 23.5458 13.5735 23.828L17.7984 24.2441Z" fill="#643BC8" stroke="black" stroke-width="1.5"/>
</svg>
