<svg width="30" height="62" viewBox="0 0 30 62" fill="none" xmlns="http://www.w3.org/2000/svg">
<path d="M15.0051 60H15.0001C14.8502 60 14.7031 59.9617 14.5727 59.8888C14.4423 59.8159 14.3327 59.7108 14.2545 59.5836C12.2463 56.3123 8.91228 50.7081 6.08346 45.1104C4.66854 42.3105 3.38864 39.5292 2.46471 37.0524C1.53058 34.5483 1.00013 32.4573 1 31.0005C1.00433 27.2887 2.48076 23.7301 5.10544 21.1054C7.72999 18.4809 11.2883 17.0045 15.0001 17C18.7116 17.0045 22.27 18.4809 24.8947 21.1054C27.5193 23.7303 28.9957 27.289 28.9999 31.001C28.9996 32.4598 28.4691 34.5517 27.5352 37.0558C26.6113 39.533 25.3314 42.3142 23.9166 45.1136C21.0877 50.7107 17.7536 56.3129 15.7455 59.582L15.7426 59.5868C15.6656 59.7138 15.5573 59.8182 15.4285 59.8903L15.4277 59.8907C15.2984 59.9632 15.1528 60.0007 15.0051 60Z" fill="#3A5CE9" stroke="black" stroke-width="2"/>
</svg>
