<svg height="36" viewBox="0 0 26 36" width="26" xmlns="http://www.w3.org/2000/svg"><path d="m32 12.9996727c4.0847711 0 7.4126425 3.2477778 7.5415767 7.3012961l.0038778.2441585.0004069 4.8677862c3.3016773 2.3574643 5.4541386 6.2209083 5.4541386 10.5870865 0 7.1797017-5.8202983 13-13 13s-13-5.8202983-13-13c0-4.3661782 2.1524613-8.2296222 5.4541386-10.5870865l.0004069-4.8677862c0-4.1664666 3.3789879-7.5454546 7.5454545-7.5454546zm0 17.0003273c-3.3137085 0-6 2.6862915-6 6s2.6862915 6 6 6 6-2.6862915 6-6-2.6862915-6-6-6zm0 3c1.6568542 0 3 1.3431458 3 3s-1.3431458 3-3 3-3-1.3431458-3-3 1.3431458-3 3-3zm0-18.0003273c-2.9889948 0-5.426862 2.3667008-5.5412565 5.3277569l-.004198.2176977-.0003672 3.6937719c1.6820984-.794568 3.5620705-1.2388992 5.5458217-1.2388992s3.8637233.4443312 5.5458217 1.2388992l-.0003672-3.6937719c0-3.0618971-2.4835574-5.5454546-5.5454545-5.5454546z" fill-rule="evenodd" transform="translate(-19 -13)"/></svg>