<svg height="29" viewBox="0 0 33 29" width="33" xmlns="http://www.w3.org/2000/svg"><path d="m41 18v5h1c4.8815297 0 8.8557817 3.8870818 8.9961626 8.7346521l.0038374.2653479c0 4.9702847-4.0297153 9-9 9h-1v3c0 1.6568542-1.3431458 3-3 3h-17c-1.6568542 0-3-1.3431458-3-3v-26zm1 7h-1v14h1c3.7851795 0 6.8690873-3.0050499 6.9959406-6.7593669l.0040594-.2406331c0-3.8657153-3.1342847-7-7-7zm-12.5 2c-3.0375661 0-5.5 2.4624339-5.5 5.5s2.4624339 5.5 5.5 5.5 5.5-2.4624339 5.5-5.5-2.4624339-5.5-5.5-5.5zm0 3c1.3807119 0 2.5 1.1192881 2.5 2.5s-1.1192881 2.5-2.5 2.5-2.5-1.1192881-2.5-2.5 1.1192881-2.5 2.5-2.5z" fill-rule="evenodd" transform="translate(-18 -18)"/></svg>