<svg width="32" height="32" viewBox="0 0 32 32" fill="none" xmlns="http://www.w3.org/2000/svg">
<path d="M16 1C13.0333 1 10.1332 1.87973 7.66645 3.52796C5.19971 5.17618 3.27713 7.51886 2.14181 10.2597C1.0065 13.0006 0.709449 16.0166 1.28823 18.9264C1.86701 21.8361 3.29562 24.5088 5.3934 26.6066C7.49119 28.7044 10.1639 30.133 13.0737 30.7118C15.9834 31.2906 18.9994 30.9935 21.7403 29.8582C24.4811 28.7229 26.8238 26.8003 28.472 24.3335C30.1203 21.8668 31 18.9667 31 16C30.9954 12.0232 29.4135 8.21055 26.6015 5.39851C23.7894 2.58647 19.9768 1.00463 16 1V1ZM16 28.5C13.5277 28.5 11.111 27.7669 9.05538 26.3934C6.99976 25.0198 5.39761 23.0676 4.45151 20.7835C3.50542 18.4995 3.25788 15.9861 3.74019 13.5614C4.22251 11.1366 5.41301 8.90932 7.16117 7.16116C8.90933 5.41301 11.1366 4.2225 13.5614 3.74018C15.9861 3.25787 18.4995 3.50541 20.7835 4.45151C23.0676 5.3976 25.0199 6.99976 26.3934 9.05537C27.7669 11.111 28.5 13.5277 28.5 16C28.4964 19.3141 27.1782 22.4914 24.8348 24.8348C22.4914 27.1782 19.3141 28.4964 16 28.5V28.5Z" fill="black"/>
<path d="M22.4175 20.7625L16.625 15.4512V9.125C16.625 8.79348 16.4933 8.47554 16.2589 8.24112C16.0245 8.0067 15.7065 7.875 15.375 7.875C15.0435 7.875 14.7255 8.0067 14.4911 8.24112C14.2567 8.47554 14.125 8.79348 14.125 9.125V16C14.1248 16.1734 14.1607 16.345 14.2304 16.5039C14.3002 16.6627 14.4022 16.8052 14.53 16.9225L20.7287 22.6037C20.9745 22.8248 21.2972 22.9406 21.6274 22.9264C21.9577 22.9121 22.2692 22.7689 22.495 22.5275C22.7186 22.2831 22.836 21.9599 22.8215 21.629C22.807 21.298 22.6617 20.9864 22.4175 20.7625Z" fill="black"/>
</svg>
