<svg width="32" height="32" viewBox="0 0 32 32" fill="none" xmlns="http://www.w3.org/2000/svg">
<path d="M16 18C12.8184 18.0034 9.76816 19.2688 7.51846 21.5185C5.26876 23.7682 4.00339 26.8184 4 30C4 30.2122 4.08429 30.4157 4.23431 30.5657C4.38434 30.7157 4.58783 30.8 4.8 30.8H27.2C27.4122 30.8 27.6157 30.7157 27.7657 30.5657C27.9157 30.4157 28 30.2122 28 30C27.9966 26.8184 26.7312 23.7682 24.4815 21.5185C22.2318 19.2688 19.1816 18.0034 16 18Z" fill="black"/>
<path d="M16 17.2C20.1974 17.2 23.6 13.7974 23.6 9.6C23.6 5.40264 20.1974 2 16 2C11.8026 2 8.4 5.40264 8.4 9.6C8.4 13.7974 11.8026 17.2 16 17.2Z" fill="black"/>
</svg>
