<svg width="28" height="28" viewBox="0 0 28 28" fill="none" xmlns="http://www.w3.org/2000/svg">
<path fill-rule="evenodd" clip-rule="evenodd" d="M14 28C6.26785 28 0 21.7321 0 14C0 6.26785 6.26785 0 14 0C21.7321 0 28 6.26785 28 14C28 21.7321 21.7321 28 14 28ZM17.8 10.6944C17.8 12.7348 16.0987 14.3889 14 14.3889C11.9013 14.3889 10.2 12.7348 10.2 10.6944C10.2 8.65406 11.9013 7 14 7C16.0987 7 17.8 8.65406 17.8 10.6944ZM9.75923 16.4881C10.8841 15.3945 12.4092 14.7794 14 14.7778C15.5908 14.7794 17.1159 15.3945 18.2408 16.4881C19.3656 17.5817 19.9983 19.0645 20 20.6111C20 20.7143 19.9579 20.8132 19.8828 20.8861C19.8078 20.959 19.7061 21 19.6 21H8.4C8.29391 21 8.19217 20.959 8.11716 20.8861C8.04214 20.8132 8 20.7143 8 20.6111C8.00169 19.0645 8.63438 17.5817 9.75923 16.4881Z" fill="black"/>
</svg>
