<svg width="80" height="80" viewBox="0 0 80 80" fill="none" xmlns="http://www.w3.org/2000/svg">
<path d="M40 80C62.0914 80 80 62.0914 80 40C80 17.9086 62.0914 0 40 0C17.9086 0 0 17.9086 0 40C0 62.0914 17.9086 80 40 80Z" fill="black"/>
<path d="M47.5 22H32.5C31.3065 22 30.1619 22.4741 29.318 23.318C28.4741 24.1619 28 25.3065 28 26.5V53.5C28 54.6935 28.4741 55.8381 29.318 56.682C30.1619 57.5259 31.3065 58 32.5 58H47.5C48.6935 58 49.8381 57.5259 50.682 56.682C51.5259 55.8381 52 54.6935 52 53.5V26.5C52 25.3065 51.5259 24.1619 50.682 23.318C49.8381 22.4741 48.6935 22 47.5 22V22ZM31 50.5V27.25C31 27.0511 31.079 26.8603 31.2197 26.7197C31.3603 26.579 31.5511 26.5 31.75 26.5H48.25C48.4489 26.5 48.6397 26.579 48.7803 26.7197C48.921 26.8603 49 27.0511 49 27.25V50.5C49 50.6989 48.921 50.8897 48.7803 51.0303C48.6397 51.171 48.4489 51.25 48.25 51.25H31.75C31.5511 51.25 31.3603 51.171 31.2197 51.0303C31.079 50.8897 31 50.6989 31 50.5Z" fill="#FFE7D1"/>
</svg>
