<svg width="16" height="16" viewBox="0 0 16 16" fill="none" xmlns="http://www.w3.org/2000/svg">
<path d="M13.0102 9.52131C12.6768 9.2034 12.2338 9.02605 11.7732 9.02605C11.3125 9.02605 10.8695 9.2034 10.5361 9.52131L10.2667 9.7907C8.8015 8.56037 7.44619 7.20482 6.21611 5.73941L6.4855 5.47003C6.81343 5.142 6.99766 4.69714 6.99766 4.2333C6.99766 3.76946 6.81343 3.32461 6.4855 2.99658L5.00143 1.51251C4.83899 1.35003 4.64613 1.22114 4.43387 1.1332C4.22161 1.04526 3.99411 1 3.76435 1C3.5346 1 3.30709 1.04526 3.09483 1.1332C2.88257 1.22114 2.68972 1.35003 2.52728 1.51251L1.71352 2.32626C1.31623 2.72586 1.06861 3.25004 1.01229 3.8107C0.955967 4.37137 1.09438 4.93433 1.40425 5.40496C3.82479 9.05362 6.95112 12.1809 10.5991 14.6026C11.0712 14.908 11.6331 15.0438 12.1926 14.9876C12.7521 14.9314 13.2758 14.6865 13.6777 14.2933L14.4922 13.4795C14.6547 13.3171 14.7836 13.1242 14.8715 12.912C14.9594 12.6997 15.0047 12.4722 15.0047 12.2425C15.0047 12.0127 14.9594 11.7852 14.8715 11.5729C14.7836 11.3607 14.6547 11.1678 14.4922 11.0054L13.0102 9.52131Z" fill="black"/>
</svg>
