<svg width="80" height="80" viewBox="0 0 80 80" fill="none" xmlns="http://www.w3.org/2000/svg">
<path d="M40 80C62.0914 80 80 62.0914 80 40C80 17.9086 62.0914 0 40 0C17.9086 0 0 17.9086 0 40C0 62.0914 17.9086 80 40 80Z" fill="black"/>
<path d="M50.6879 39.32C50.334 39.32 49.9946 39.4606 49.7444 39.7109C49.4941 39.9611 49.3536 40.3005 49.3536 40.6544V51.9968C49.3536 52.3507 49.213 52.6901 48.9627 52.9404C48.7125 53.1906 48.3731 53.3312 48.0192 53.3312H28.0032C27.6493 53.3312 27.3099 53.1906 27.0596 52.9404C26.8094 52.6901 26.6688 52.3507 26.6688 51.9968V29.312C26.6688 28.9581 26.8094 28.6187 27.0596 28.3685C27.3099 28.1182 27.6493 27.9777 28.0032 27.9777H41.3472C41.7011 27.9777 42.0405 27.8371 42.2907 27.5868C42.541 27.3366 42.6816 26.9972 42.6816 26.6433C42.6816 26.2894 42.541 25.9499 42.2907 25.6997C42.0405 25.4494 41.7011 25.3089 41.3472 25.3089H28.0032C26.9415 25.3089 25.9233 25.7306 25.1725 26.4814C24.4218 27.2321 24 28.2503 24 29.312V51.9968C24 53.0585 24.4218 54.0767 25.1725 54.8275C25.9233 55.5782 26.9415 56 28.0032 56H48.0192C49.0809 56 50.0991 55.5782 50.8498 54.8275C51.6006 54.0767 52.0223 53.0585 52.0223 51.9968V40.6544C52.0223 40.3005 51.8818 39.9611 51.6315 39.7109C51.3813 39.4606 51.0419 39.32 50.6879 39.32Z" fill="#FFE7D1"/>
<path d="M49.1107 28.0577C48.983 27.9376 48.8143 27.8708 48.639 27.8708C48.4637 27.8708 48.295 27.9376 48.1673 28.0577L37.7443 38.4847C37.6802 38.5486 37.6298 38.6249 37.5962 38.7089L35.7067 43.426C35.6583 43.5472 35.6466 43.68 35.6729 43.8078C35.6992 43.9356 35.7625 44.053 35.8548 44.1452C35.9489 44.2346 36.0662 44.2958 36.1934 44.3217C36.3205 44.3477 36.4524 44.3374 36.574 44.292L41.2911 42.4012C41.3751 42.3675 41.4514 42.3171 41.5153 42.253L51.9423 31.8327C52.0674 31.7076 52.1376 31.5379 52.1376 31.361C52.1376 31.1841 52.0674 31.0144 51.9423 30.8893L49.1107 28.0577Z" fill="#FFE7D1"/>
<path d="M55.2449 24.7564C54.7367 24.2709 54.0609 24 53.3581 24C52.6552 24 51.9794 24.2709 51.4712 24.7564L50.0554 26.1709C49.9304 26.296 49.8601 26.4657 49.8601 26.6426C49.8601 26.8195 49.9304 26.9892 50.0554 27.1143L52.8844 29.9446C53.0095 30.0696 53.1792 30.1399 53.3561 30.1399C53.533 30.1399 53.7027 30.0696 53.8278 29.9446L55.2436 28.5301C55.7439 28.0296 56.025 27.3509 56.025 26.6433C56.025 25.9356 55.7439 25.2569 55.2436 24.7564H55.2449Z" fill="#FFE7D1"/>
</svg>
