<svg width="24" height="24" viewBox="0 0 24 24" fill="none" xmlns="http://www.w3.org/2000/svg">
<path d="M20.4725 10.7498L19.1593 7.458C19.0768 7.24858 18.933 7.06894 18.7467 6.94261C18.5604 6.81628 18.3403 6.74915 18.1153 6.75H16.5605C16.5359 6.7501 16.5114 6.74532 16.4886 6.73593C16.4658 6.72654 16.4451 6.71273 16.4277 6.6953C16.4103 6.67787 16.3965 6.65716 16.3871 6.63437C16.3777 6.61158 16.3729 6.58715 16.373 6.5625V5.1435C16.3729 5.04041 16.3515 4.93845 16.3102 4.84399C16.2689 4.74953 16.2086 4.6646 16.133 4.5945L14.633 3.201C14.4943 3.07187 14.3118 3.00006 14.1223 3H8.87226C8.67335 3 8.48259 3.07902 8.34193 3.21967C8.20128 3.36032 8.12226 3.55109 8.12226 3.75V6.5625C8.12226 6.61223 8.10251 6.65992 8.06735 6.69508C8.03218 6.73025 7.98449 6.75 7.93476 6.75H6.38001C6.15511 6.74903 5.93515 6.81605 5.74899 6.94225C5.56283 7.06846 5.41914 7.24797 5.33676 7.45725L4.02276 10.7498C4.00604 10.8057 3.99844 10.8639 4.00026 10.9222L4.67226 16.2653C4.70635 16.5365 4.83804 16.7861 5.04274 16.9673C5.24743 17.1485 5.51112 17.249 5.78451 17.25H6.77751C6.8063 17.2498 6.83474 17.2563 6.86061 17.2689C6.88648 17.2815 6.90909 17.2999 6.92666 17.3227C6.94423 17.3455 6.95629 17.3721 6.96191 17.4003C6.96752 17.4286 6.96653 17.4577 6.95901 17.4855L6.27351 20.0565C6.24387 20.1675 6.24013 20.2839 6.26258 20.3966C6.28504 20.5093 6.3331 20.6153 6.40304 20.7065C6.47298 20.7977 6.56294 20.8715 6.66597 20.9224C6.769 20.9733 6.88235 20.9999 6.99726 21H17.1223C17.2372 20.9999 17.3505 20.9733 17.4536 20.9224C17.5566 20.8715 17.6465 20.7977 17.7165 20.7065C17.7864 20.6153 17.8345 20.5093 17.8569 20.3966C17.8794 20.2839 17.8757 20.1675 17.846 20.0565L17.1605 17.4855C17.1531 17.4577 17.1523 17.4285 17.158 17.4003C17.1637 17.372 17.1759 17.3455 17.1935 17.3227C17.2111 17.3 17.2337 17.2816 17.2596 17.2689C17.2855 17.2563 17.314 17.2498 17.3428 17.25H18.7108C18.9849 17.2499 19.2496 17.1497 19.4551 16.9683C19.6606 16.7868 19.7928 16.5365 19.8268 16.2645L20.4973 10.9185C20.4954 10.8615 20.4871 10.8049 20.4725 10.7498V10.7498ZM14.6855 8.25H9.81051C9.78586 8.2501 9.76144 8.24532 9.73864 8.23593C9.71585 8.22654 9.69514 8.21273 9.67771 8.1953C9.66028 8.17787 9.64647 8.15716 9.63708 8.13437C9.6277 8.11158 9.62291 8.08715 9.62301 8.0625V4.6875C9.62291 4.66285 9.6277 4.63842 9.63708 4.61563C9.64647 4.59284 9.66028 4.57213 9.67771 4.5547C9.69514 4.53727 9.71585 4.52346 9.73864 4.51407C9.76144 4.50468 9.78586 4.4999 9.81051 4.5H13.7548C13.8019 4.50008 13.8474 4.51772 13.8823 4.5495L14.813 5.4135C14.8319 5.43117 14.847 5.45253 14.8573 5.47627C14.8677 5.50001 14.873 5.52561 14.873 5.5515V8.06325C14.8728 8.11285 14.853 8.16035 14.8178 8.19535C14.7827 8.23035 14.7351 8.25 14.6855 8.25V8.25ZM18.623 12.75C18.623 12.8983 18.579 13.0433 18.4966 13.1667C18.4142 13.29 18.2971 13.3861 18.16 13.4429C18.023 13.4997 17.8722 13.5145 17.7267 13.4856C17.5812 13.4567 17.4476 13.3852 17.3427 13.2803C17.2378 13.1754 17.1664 13.0418 17.1374 12.8963C17.1085 12.7508 17.1233 12.6 17.1801 12.463C17.2369 12.3259 17.333 12.2088 17.4563 12.1264C17.5797 12.044 17.7247 12 17.873 12C18.0718 12.0002 18.2624 12.0793 18.4029 12.2199C18.5433 12.3606 18.6223 12.5512 18.6223 12.75H18.623ZM9.03726 15.5145C9.04786 15.4747 9.07133 15.4395 9.10402 15.4144C9.13672 15.3893 9.1768 15.3757 9.21801 15.3757H14.9023C14.9435 15.3757 14.9836 15.3893 15.0163 15.4144C15.0489 15.4395 15.0724 15.4747 15.083 15.5145L16.0835 19.2645C16.091 19.2923 16.092 19.3215 16.0864 19.3498C16.0808 19.378 16.0687 19.4046 16.0511 19.4275C16.0336 19.4503 16.011 19.4688 15.9851 19.4815C15.9593 19.4942 15.9308 19.5008 15.902 19.5007H8.21826C8.18945 19.5008 8.161 19.4942 8.13514 19.4815C8.10927 19.4688 8.08668 19.4503 8.06913 19.4275C8.05157 19.4046 8.03952 19.378 8.03391 19.3498C8.02829 19.3215 8.02927 19.2923 8.03676 19.2645L9.03726 15.5145Z" fill="black"/>
</svg>
