<svg width="80" height="80" viewBox="0 0 80 80" fill="none" xmlns="http://www.w3.org/2000/svg">
<path d="M40 80C62.0914 80 80 62.0914 80 40C80 17.9086 62.0914 0 40 0C17.9086 0 0 17.9086 0 40C0 62.0914 17.9086 80 40 80Z" fill="black"/>
<path d="M49.276 44.3067C49.0747 44.324 48.876 44.3333 48.6667 44.3333C48.4573 44.3333 48.2587 44.324 48.0573 44.3067C47.9651 44.2987 47.8722 44.31 47.7846 44.34C47.697 44.3699 47.6165 44.4177 47.5484 44.4804C47.4803 44.5432 47.426 44.6194 47.389 44.7042C47.3519 44.7891 47.333 44.8807 47.3333 44.9733V46.3333C47.3333 48.1898 46.5958 49.9703 45.2831 51.2831C43.9703 52.5958 42.1898 53.3333 40.3333 53.3333C38.4768 53.3333 36.6963 52.5958 35.3836 51.2831C34.0708 49.9703 33.3333 48.1898 33.3333 46.3333V42.5467C35.1954 42.2303 36.8857 41.266 38.1056 39.824C39.3255 38.3821 39.9965 36.5554 40 34.6667V30.6667C39.997 29.5141 39.6201 28.3937 38.926 27.4736C38.2319 26.5535 37.258 25.8834 36.1507 25.564C36.1072 25.5515 36.069 25.5253 36.0419 25.4892C36.0147 25.4531 36 25.4092 36 25.364V25.3333C36 24.9797 35.8595 24.6406 35.6095 24.3905C35.3594 24.1405 35.0203 24 34.6667 24C34.313 24 33.9739 24.1405 33.7239 24.3905C33.4738 24.6406 33.3333 24.9797 33.3333 25.3333V28.6667C33.3333 29.0203 33.4738 29.3594 33.7239 29.6095C33.9739 29.8595 34.313 30 34.6667 30C35.0203 30 35.3594 29.8595 35.6095 29.6095C35.8595 29.3594 36 29.0203 36 28.6667C35.9999 28.637 36.0081 28.608 36.0236 28.5828C36.0392 28.5576 36.0615 28.5372 36.088 28.524C36.1144 28.5108 36.144 28.5052 36.1734 28.5078C36.2028 28.5104 36.2309 28.5211 36.2547 28.5387C36.5884 28.7842 36.8599 29.1047 37.0472 29.4743C37.2346 29.8439 37.3326 30.2523 37.3333 30.6667V34.6667C37.3333 36.0812 36.7714 37.4377 35.7712 38.4379C34.771 39.4381 33.4145 40 32 40C30.5855 40 29.229 39.4381 28.2288 38.4379C27.2286 37.4377 26.6667 36.0812 26.6667 34.6667V30.6667C26.6666 30.2514 26.7642 29.8419 26.9516 29.4714C27.1389 29.1008 27.4109 28.7794 27.7453 28.5333C27.7691 28.5157 27.7972 28.5051 27.8266 28.5025C27.856 28.4999 27.8856 28.5055 27.912 28.5187C27.9394 28.5322 27.9622 28.5534 27.9778 28.5797C27.9934 28.6059 28.0011 28.6361 28 28.6667C28 29.0203 28.1405 29.3594 28.3905 29.6095C28.6406 29.8595 28.9797 30 29.3333 30C29.687 30 30.0261 29.8595 30.2761 29.6095C30.5262 29.3594 30.6667 29.0203 30.6667 28.6667V25.3333C30.6667 24.9797 30.5262 24.6406 30.2761 24.3905C30.0261 24.1405 29.687 24 29.3333 24C28.9797 24 28.6406 24.1405 28.3905 24.3905C28.1405 24.6406 28 24.9797 28 25.3333V25.364C28.0002 25.4092 27.9856 25.4533 27.9584 25.4894C27.9312 25.5255 27.8929 25.5517 27.8493 25.564C26.742 25.8834 25.7681 26.5535 25.074 27.4736C24.3799 28.3937 24.003 29.5141 24 30.6667V34.6667C24.0035 36.5554 24.6745 38.3821 25.8944 39.824C27.1143 41.266 28.8046 42.2303 30.6667 42.5467V46.3333C30.6667 48.8971 31.6851 51.3558 33.498 53.1687C35.3108 54.9816 37.7696 56 40.3333 56C42.8971 56 45.3558 54.9816 47.1687 53.1687C48.9816 51.3558 50 48.8971 50 46.3333V44.972C50.0003 44.8794 49.9814 44.7878 49.9444 44.7029C49.9073 44.618 49.853 44.5418 49.7849 44.4791C49.7168 44.4164 49.6364 44.3685 49.5488 44.3386C49.4611 44.3087 49.3682 44.2987 49.276 44.3067Z" fill="#FFE7D1"/>
<path d="M48.6667 29.6667C47.3481 29.6667 46.0592 30.0577 44.9629 30.7902C43.8665 31.5227 43.0121 32.5639 42.5075 33.7821C42.0029 35.0003 41.8709 36.3407 42.1281 37.6339C42.3853 38.9271 43.0203 40.115 43.9526 41.0474C44.885 41.9797 46.0729 42.6147 47.3661 42.8719C48.6593 43.1291 49.9997 42.9971 51.2179 42.4925C52.4361 41.9879 53.4773 41.1335 54.2098 40.0371C54.9423 38.9408 55.3333 37.6519 55.3333 36.3333C55.3312 34.5659 54.6282 32.8714 53.3784 31.6216C52.1286 30.3718 50.4341 29.6688 48.6667 29.6667ZM48.6667 40.3333C47.8755 40.3333 47.1022 40.0987 46.4444 39.6592C45.7866 39.2197 45.2739 38.595 44.9711 37.8641C44.6684 37.1332 44.5892 36.3289 44.7435 35.553C44.8979 34.777 45.2788 34.0643 45.8382 33.5049C46.3976 32.9455 47.1104 32.5645 47.8863 32.4102C48.6622 32.2559 49.4665 32.3351 50.1974 32.6378C50.9283 32.9406 51.553 33.4533 51.9925 34.1111C52.4321 34.7688 52.6667 35.5422 52.6667 36.3333C52.6667 37.3942 52.2452 38.4116 51.4951 39.1618C50.7449 39.9119 49.7275 40.3333 48.6667 40.3333Z" fill="#FFE7D1"/>
<path d="M48.6667 38.3333C49.7712 38.3333 50.6667 37.4379 50.6667 36.3333C50.6667 35.2288 49.7712 34.3333 48.6667 34.3333C47.5621 34.3333 46.6667 35.2288 46.6667 36.3333C46.6667 37.4379 47.5621 38.3333 48.6667 38.3333Z" fill="#FFE7D1"/>
</svg>
