<svg width="92" height="92" viewBox="0 0 92 92" fill="none" xmlns="http://www.w3.org/2000/svg">
<path d="M46 92C71.4051 92 92 71.4051 92 46C92 20.5949 71.4051 0 46 0C20.5949 0 0 20.5949 0 46C0 71.4051 20.5949 92 46 92Z" fill="#FFE7D1"/>
<path d="M46.3118 62C48.2403 62 49.8037 60.4366 49.8037 58.5081C49.8037 56.5795 48.2403 55.0162 46.3118 55.0162C44.3833 55.0162 42.8199 56.5795 42.8199 58.5081C42.8199 60.4366 44.3833 62 46.3118 62Z" fill="black"/>
<path d="M46.3118 30C43.8422 30 41.4737 30.9811 39.7274 32.7274C37.9811 34.4737 37 36.8422 37 39.3118C37 39.9292 37.2453 40.5213 37.6818 40.9579C38.1184 41.3945 38.7105 41.6397 39.3279 41.6397C39.9454 41.6397 40.5375 41.3945 40.9741 40.9579C41.4106 40.5213 41.6559 39.9292 41.6559 39.3118C41.6559 38.4724 41.8828 37.6486 42.3126 36.9276C42.7425 36.2066 43.3593 35.6152 44.0977 35.216C44.8361 34.8168 45.6687 34.6247 46.5074 34.6599C47.3461 34.6952 48.1596 34.9565 48.8619 35.4163C49.5642 35.8761 50.1292 36.5171 50.497 37.2717C50.8648 38.0262 51.0217 38.8662 50.9513 39.7026C50.8808 40.5391 50.5855 41.3409 50.0966 42.0233C49.6077 42.7057 48.9435 43.2432 48.1742 43.5789C46.9285 44.1226 45.8686 45.0178 45.1243 46.155C44.38 47.2921 43.9836 48.6217 43.9838 49.9808C43.9838 50.5982 44.2291 51.1903 44.6657 51.6269C45.1023 52.0635 45.6944 52.3087 46.3118 52.3087C46.9292 52.3087 47.5213 52.0635 47.9579 51.6269C48.3945 51.1903 48.6397 50.5982 48.6397 49.9808C48.6395 49.5276 48.7716 49.0843 49.0197 48.7051C49.2678 48.3259 49.6212 48.0273 50.0365 47.8461C51.9971 46.9903 53.6033 45.4856 54.585 43.5849C55.5666 41.6841 55.8639 39.5034 55.4269 37.4093C54.9898 35.3152 53.845 33.4354 52.185 32.0861C50.525 30.7367 48.451 30.0001 46.3118 30Z" fill="black"/>
</svg>
