<svg width="24" height="24" viewBox="0 0 24 24" fill="none" xmlns="http://www.w3.org/2000/svg">
<path d="M9.60529 17.874L15.836 12.3827C15.8878 12.3329 15.9291 12.2732 15.9573 12.2071C15.9855 12.141 16 12.0698 16 11.998C16 11.9261 15.9855 11.855 15.9573 11.7888C15.9291 11.7227 15.8878 11.663 15.836 11.6133L9.60529 6.1244C9.55586 6.0805 9.49812 6.04699 9.43549 6.02586C9.37287 6.00473 9.30664 5.99642 9.24074 6.00141C9.17483 6.0064 9.11061 6.02459 9.05187 6.05491C8.99314 6.08523 8.94109 6.12705 8.89883 6.17789L8.12093 7.10279C8.03404 7.20592 7.99115 7.33911 8.00152 7.47361C8.0119 7.60811 8.07471 7.73313 8.17639 7.8217L12.8992 11.9037C12.9129 11.9155 12.9238 11.93 12.9313 11.9463C12.9388 11.9627 12.9427 11.9805 12.9427 11.9985C12.9427 12.0165 12.9388 12.0342 12.9313 12.0506C12.9238 12.0669 12.9129 12.0815 12.8992 12.0932L8.17789 16.1767C8.12726 16.2207 8.08581 16.2743 8.05589 16.3343C8.02597 16.3944 8.00817 16.4598 8.00352 16.5267C7.99759 16.5933 8.00506 16.6603 8.02548 16.724C8.04591 16.7876 8.07887 16.8465 8.12243 16.8971L8.90083 17.8225C8.94317 17.8733 8.99525 17.915 9.05398 17.9452C9.11271 17.9755 9.17691 17.9936 9.24277 17.9986C9.30863 18.0036 9.37482 17.9953 9.43743 17.9742C9.50004 17.9532 9.5578 17.9198 9.60729 17.876L9.60529 17.874Z" fill="currentColor"/>
</svg>
