<svg width="24" height="24" viewBox="0 0 24 24" fill="none" xmlns="http://www.w3.org/2000/svg">
<path d="M10.8264 19.6748C10.6613 19.4839 10.5775 19.2342 10.5934 18.9804C10.6093 18.7266 10.7235 18.4897 10.911 18.3217L16.554 13.2673C16.5792 13.2444 16.597 13.2142 16.605 13.1808C16.613 13.1474 16.6108 13.1122 16.5989 13.0801C16.5869 13.0479 16.5656 13.0202 16.5379 13.0005C16.5101 12.9809 16.4771 12.9703 16.4433 12.9701L4.94138 12.9701C4.69171 12.9701 4.45227 12.8692 4.27573 12.6895C4.09918 12.5098 4 12.266 4 12.0119C4 11.7578 4.09918 11.514 4.27573 11.3343C4.45227 11.1547 4.69171 11.0537 4.94138 11.0537L16.4433 11.0537C16.4771 11.0535 16.5101 11.0429 16.5379 11.0233C16.5656 11.0036 16.5869 10.9759 16.5989 10.9437C16.6108 10.9116 16.613 10.8764 16.605 10.843C16.597 10.8096 16.5792 10.7794 16.554 10.7565L10.911 5.70078C10.8131 5.61916 10.7323 5.51828 10.6736 5.40417C10.6148 5.29007 10.5792 5.16508 10.5689 5.03667C10.5587 4.90825 10.5739 4.77905 10.6138 4.65677C10.6537 4.53449 10.7174 4.42165 10.801 4.32498C10.8847 4.22831 10.9867 4.1498 11.1008 4.09413C11.215 4.03846 11.339 4.00678 11.4654 4.00097C11.5919 3.99517 11.7182 4.01536 11.8368 4.06035C11.9554 4.10533 12.0639 4.17418 12.1558 4.26279L19.4668 10.8128C19.6344 10.9626 19.7686 11.147 19.8605 11.3538C19.9524 11.5606 20 11.7849 20 12.0119C20 12.2389 19.9524 12.4632 19.8605 12.67C19.7686 12.8768 19.6344 13.0612 19.4668 13.211L12.1551 19.761C12.0623 19.8442 11.9543 19.9079 11.8373 19.9486C11.7203 19.9892 11.5966 20.0061 11.4732 19.9981C11.3498 19.9901 11.2292 19.9574 11.1182 19.9019C11.0072 19.8465 10.908 19.7693 10.8264 19.6748V19.6748Z" fill="currentColor"/>
</svg>
