<svg height="128" viewBox="0 0 128 128" width="128" xmlns="http://www.w3.org/2000/svg"><g fill="none" fill-rule="evenodd"><circle cx="64" cy="64" fill="#000" r="64"/><g transform="translate(32 30)"><g fill="#f4c78f" fill-rule="nonzero"><path d="m32.3992813 1.1274601c18.5350055 0 33.5960914 14.8757358 33.8954596 33.3394094l.0045417.5605919h-3c0-17.0653736-13.8346277-30.9000013-30.9000013-30.9000013-8.5463412 0-16.5296826 3.48532761-22.3167667 9.5281954l-.3314219.3514578-2.19842471-2.0413056c6.37353261-6.86410273 15.29289501-10.8383476 24.84661331-10.8383476z"/><path d="m8.21522314.03147979 2.98291446.31972043-1.1831376 11.03579978 11.0385183 1.1836809-.319675 2.9829193-14.02128286-1.50264z"/><path d="m1.50072 35.0260214c0 17.0653736 13.8346277 30.9000013 30.9000013 30.9000013 8.5463411 0 16.5296826-3.4853276 22.3167666-9.5281954l.331422-.3514579 2.1984247 2.0413057c-6.3735327 6.8641027-15.292895 10.8383476-24.8466133 10.8383476-18.5350056 0-33.59609139-14.8757358-33.8954596-33.3394094l-.0045417-.5605919z"/><path d="m43.7464842 57.4828019.3196751-2.9829194 14.0212828 1.50264-1.5026627 14.0194805-2.9829145-.3197204 1.1821351-11.0372826z"/></g><path d="m33.6295813 35.8106414v8.6544004c3.6054002-.3798 4.8204002-2.5416001 4.8204002-4.3650002 0-2.4678001-2.1636001-3.4920001-4.8204002-4.2894002zm-2.3148001-4.0608001v-7.7436003c-2.6964001.189-4.5936001 1.7838-4.5936001 3.9852001 0 2.0880001 2.0124 2.9988001 4.5936001 3.7584002zm0 15.5250006c-3.8340001-.2286-6.7572002-1.8234001-8.6544003-3.9870002l1.8972001-2.4282001c1.4436 1.7082001 3.7584001 3.2256002 6.7572002 3.5676002v-9.2232004c-3.8718001-1.0638-7.8570003-2.3544001-7.8570003-7.0218003 0-3.9114001 3.3012002-6.6816002 7.8570003-7.0236003v-3.4542001h2.3148001v3.4920001c3.1500002.2664001 5.6556003 1.5570001 7.5150003 3.4920002l-1.8972 2.3166001c-1.5174001-1.6704001-3.4920002-2.6190001-5.6178003-2.9232001v8.2746003c3.9096002 1.1016 8.0856004 2.5434001 8.0856004 7.5168003 0 3.4146001-2.2014001 6.9840003-8.0856004 7.4016003v3.3786001h-2.3148001z" fill="#fff"/></g></g></svg>