<svg width="5" height="5" viewBox="0 0 5 5" fill="none" xmlns="http://www.w3.org/2000/svg">
<path d="M3.95157 1.60964L2.45925 3.66111C2.44163 3.68479 2.41953 3.70468 2.39424 3.71961C2.36895 3.73455 2.34098 3.74423 2.31196 3.74809C2.28294 3.75196 2.25345 3.74993 2.22521 3.74212C2.19697 3.73432 2.17055 3.72089 2.14748 3.70263L1.08182 2.83955C1.05946 2.82143 1.04084 2.79902 1.02703 2.7736C1.01322 2.74819 1.00449 2.72026 1.00133 2.69143C0.994953 2.6332 1.01167 2.57478 1.04781 2.52904C1.08395 2.48329 1.13655 2.45396 1.19403 2.4475C1.25152 2.44104 1.30918 2.45798 1.35434 2.49459L2.24297 3.21478L3.60056 1.34838C3.6169 1.32353 3.63805 1.3023 3.66272 1.28597C3.68739 1.26964 3.71508 1.25855 3.7441 1.25336C3.77313 1.24817 3.80289 1.249 3.83159 1.25579C3.86028 1.26258 3.88733 1.2752 3.91108 1.29288C3.93483 1.31056 3.95479 1.33293 3.96976 1.35864C3.98474 1.38436 3.99441 1.41288 3.99819 1.44249C4.00198 1.4721 3.9998 1.50217 3.99178 1.5309C3.98377 1.55963 3.97009 1.58642 3.95157 1.60964Z" fill="black"/>
</svg>
