<svg width="24" height="24" viewBox="0 0 24 24" fill="none" xmlns="http://www.w3.org/2000/svg">
<path d="M11.6667 5C10.4294 5.00139 9.24324 5.4935 8.36837 6.36837C7.4935 7.24324 7.00139 8.42941 7 9.66666C7 11.7142 9.91667 16.6812 11.1697 18.7223C11.2219 18.8072 11.295 18.8773 11.382 18.9259C11.469 18.9745 11.567 19 11.6667 19C11.7665 19.0005 11.8647 18.9751 11.9518 18.9263C12.0389 18.8776 12.1119 18.8071 12.1637 18.7217C13.4167 16.6818 16.3333 11.7165 16.3333 9.66666C16.3319 8.42941 15.8398 7.24324 14.965 6.36837C14.0901 5.4935 12.9039 5.00139 11.6667 5V5ZM11.6667 11.7083C11.2629 11.7083 10.8681 11.5886 10.5324 11.3642C10.1966 11.1399 9.93494 10.821 9.78041 10.448C9.62588 10.0749 9.58545 9.6644 9.66423 9.26836C9.74301 8.87231 9.93746 8.50852 10.223 8.22299C10.5085 7.93746 10.8723 7.74301 11.2684 7.66423C11.6644 7.58545 12.0749 7.62588 12.448 7.78041C12.821 7.93494 13.1399 8.19663 13.3642 8.53238C13.5886 8.86813 13.7083 9.26286 13.7083 9.66666C13.7083 10.2081 13.4932 10.7275 13.1103 11.1103C12.7275 11.4932 12.2081 11.7083 11.6667 11.7083V11.7083Z" fill="black"/>
</svg>
