<svg width="24" height="24" viewBox="0 0 24 24" fill="none" xmlns="http://www.w3.org/2000/svg">
<path d="M14.4834 9.2C14.4674 9.1864 14.4544 9.1691 14.4455 9.14941C14.4366 9.12971 14.432 9.10812 14.432 9.08625C14.432 9.06438 14.4366 9.04279 14.4455 9.02309C14.4544 9.0034 14.4674 8.9861 14.4834 8.9725L17.7515 6.17892C18.0358 5.93508 18.0162 5.71225 17.979 5.59558C17.9419 5.47892 17.8257 5.29167 17.4611 5.29167H8.72174C8.64937 5.29167 8.57996 5.3224 8.52878 5.37709C8.47761 5.43179 8.44886 5.50598 8.44886 5.58333V12.5833C8.44886 12.6607 8.47761 12.7349 8.52878 12.7896C8.57996 12.8443 8.64937 12.875 8.72174 12.875H17.4611C17.8257 12.875 17.9425 12.6854 17.979 12.5723C18.0156 12.4591 18.0336 12.2339 17.7515 11.9889L14.4834 9.2Z" fill="black"/>
<path d="M6.81865 5C6.60153 5 6.3933 5.09219 6.23978 5.25628C6.08625 5.42038 6 5.64294 6 5.875V18.125C6 18.3571 6.08625 18.5796 6.23978 18.7437C6.3933 18.9078 6.60153 19 6.81865 19C7.03577 19 7.244 18.9078 7.39752 18.7437C7.55105 18.5796 7.6373 18.3571 7.6373 18.125V5.875C7.6373 5.64294 7.55105 5.42038 7.39752 5.25628C7.244 5.09219 7.03577 5 6.81865 5Z" fill="black"/>
</svg>
