<svg width="24" height="24" viewBox="0 0 24 24" fill="none" xmlns="http://www.w3.org/2000/svg">
<path d="M10.0011 17.3552C9.99305 17.1358 10.0288 16.917 10.1063 16.7116C10.1838 16.5062 10.3015 16.3183 10.4524 16.1589C10.6034 15.9995 10.7846 15.8718 10.9855 15.7832C11.1864 15.6947 11.4029 15.6471 11.6224 15.6432H11.6526C12.0942 15.6441 12.5183 15.8158 12.8359 16.1225C13.1536 16.4291 13.3403 16.8468 13.3568 17.288C13.365 17.5075 13.3293 17.7263 13.2519 17.9318C13.1745 18.1373 13.0568 18.3253 12.9058 18.4847C12.7548 18.6441 12.5735 18.7718 12.3726 18.8603C12.1716 18.9488 11.955 18.9963 11.7355 19H11.7052C11.2639 18.9986 10.8401 18.8267 10.5225 18.5201C10.205 18.2136 10.0181 17.7962 10.0011 17.3552ZM10.5606 12.8325V6.11893C10.5606 5.82217 10.6785 5.53757 10.8883 5.32773C11.0981 5.11789 11.3827 5 11.6795 5C11.9763 5 12.2609 5.11789 12.4707 5.32773C12.6805 5.53757 12.7984 5.82217 12.7984 6.11893V12.8325C12.7984 13.1292 12.6805 13.4138 12.4707 13.6237C12.2609 13.8335 11.9763 13.9514 11.6795 13.9514C11.3827 13.9514 11.0981 13.8335 10.8883 13.6237C10.6785 13.4138 10.5606 13.1292 10.5606 12.8325Z" fill="black"/>
</svg>
