<svg width="34" height="34" viewBox="0 0 34 34" fill="none" xmlns="http://www.w3.org/2000/svg">
<path d="M17 34C26.3888 34 34 26.3888 34 17C34 7.61116 26.3888 0 17 0C7.61116 0 0 7.61116 0 17C0 26.3888 7.61116 34 17 34Z" fill="#FFE7D1"/>
<path d="M21.5678 14.1509L16.7303 20.7156C16.6732 20.7913 16.6015 20.855 16.5196 20.9028C16.4376 20.9506 16.3469 20.9815 16.2528 20.9939C16.1588 21.0063 16.0632 20.9998 15.9716 20.9748C15.8801 20.9498 15.7944 20.9069 15.7197 20.8484L12.2652 18.0866C12.1927 18.0286 12.1324 17.9568 12.0876 17.8755C12.0429 17.7942 12.0146 17.7048 12.0043 17.6126C11.9836 17.4262 12.0378 17.2393 12.155 17.0929C12.2721 16.9465 12.4426 16.8527 12.629 16.832C12.8153 16.8113 13.0022 16.8655 13.1486 16.9827L16.0292 19.2873L20.4299 13.3148C20.4829 13.2353 20.5515 13.1674 20.6314 13.1151C20.7114 13.0629 20.8012 13.0274 20.8952 13.0108C20.9893 12.9942 21.0858 12.9968 21.1788 13.0185C21.2719 13.0403 21.3595 13.0806 21.4365 13.1372C21.5135 13.1938 21.5782 13.2654 21.6267 13.3477C21.6753 13.4299 21.7066 13.5212 21.7189 13.616C21.7312 13.7107 21.7241 13.807 21.6981 13.8989C21.6721 13.9908 21.6278 14.0765 21.5678 14.1509Z" fill="black"/>
</svg>
