<svg width="24" height="24" viewBox="0 0 24 24" fill="none" xmlns="http://www.w3.org/2000/svg">
<path d="M12.7665 12.0589C12.7588 12.0512 12.7526 12.042 12.7484 12.0319C12.7442 12.0218 12.742 12.0109 12.742 12C12.742 11.989 12.7442 11.9781 12.7484 11.968C12.7526 11.9579 12.7588 11.9487 12.7665 11.941L15.8541 8.85374C15.9478 8.75986 16.0004 8.63258 16.0003 8.4999C16.0002 8.36723 15.9474 8.24002 15.8536 8.14627C15.7597 8.05252 15.6324 7.99991 15.4997 8C15.367 8.00009 15.2398 8.05289 15.1461 8.14677L12.0589 11.2326C12.0511 11.2404 12.0419 11.2466 12.0318 11.2508C12.0217 11.255 12.0108 11.2571 11.9999 11.2571C11.9889 11.2571 11.9781 11.255 11.9679 11.2508C11.9578 11.2466 11.9486 11.2404 11.9409 11.2326L8.85367 8.14677C8.80725 8.10033 8.75214 8.06349 8.69148 8.03834C8.63082 8.0132 8.5658 8.00025 8.50014 8.00024C8.36753 8.0002 8.24033 8.05286 8.14654 8.14661C8.05274 8.24036 8.00003 8.36753 8 8.50014C7.99997 8.63275 8.05262 8.75995 8.14637 8.85374L11.2332 11.941C11.241 11.9487 11.2472 11.9579 11.2514 11.968C11.2556 11.9781 11.2577 11.989 11.2577 12C11.2577 12.0109 11.2556 12.0218 11.2514 12.0319C11.2472 12.042 11.241 12.0512 11.2332 12.0589L8.14637 15.1465C8.09995 15.1929 8.06313 15.2481 8.03802 15.3087C8.0129 15.3694 7.99998 15.4344 8 15.5001C8.00003 15.6327 8.05274 15.7599 8.14654 15.8536C8.19298 15.9001 8.24811 15.9369 8.30878 15.962C8.36945 15.9871 8.43448 16 8.50014 16C8.63275 16 8.75992 15.9473 8.85367 15.8535L11.9409 12.7659C11.9486 12.7582 11.9578 12.752 11.9679 12.7478C11.9781 12.7436 11.9889 12.7414 11.9999 12.7414C12.0108 12.7414 12.0217 12.7436 12.0318 12.7478C12.0419 12.752 12.0511 12.7582 12.0589 12.7659L15.1461 15.8535C15.2398 15.9473 15.367 16 15.4996 16C15.6322 16 15.7594 15.9474 15.8532 15.8536C15.947 15.7599 15.9997 15.6327 15.9998 15.5001C15.9998 15.3675 15.9471 15.2403 15.8534 15.1465L12.7665 12.0589Z" fill="black"/>
</svg>
