<svg width="24" height="24" viewBox="0 0 24 24" fill="none" xmlns="http://www.w3.org/2000/svg">
<path fill-rule="evenodd" clip-rule="evenodd" d="M12 24C18.6274 24 24 18.6274 24 12C24 5.37258 18.6274 0 12 0C5.37258 0 0 5.37258 0 12C0 18.6274 5.37258 24 12 24ZM11.9935 12.8289C9.4939 12.8026 7.28216 10.6974 7.28216 7.86842C7.26914 5.21053 9.50692 3 11.9935 3C14.4931 3 16.7048 5.21053 16.7048 7.86842C16.7048 10.6974 14.5061 12.8553 11.9935 12.8289ZM11.9935 22C9.01221 22 5.99186 20.7632 4 18.6184C5.40602 16.3816 8.46542 15.0658 11.9935 15.0658C15.4955 15.0658 18.581 16.3553 20 18.6184C17.9951 20.7632 14.9878 22 11.9935 22Z" fill="black"/>
</svg>
