<svg width="24" height="24" viewBox="0 0 24 24" fill="none" xmlns="http://www.w3.org/2000/svg">
<g clip-path="url(#clip0)">
<path d="M12 0C9.62663 0 7.30655 0.703788 5.33316 2.02236C3.35977 3.34094 1.8217 5.21509 0.913451 7.4078C0.00519943 9.60051 -0.232441 12.0133 0.230582 14.3411C0.693605 16.6689 1.83649 18.8071 3.51472 20.4853C5.19295 22.1635 7.33115 23.3064 9.65892 23.7694C11.9867 24.2324 14.3995 23.9948 16.5922 23.0866C18.7849 22.1783 20.6591 20.6402 21.9776 18.6668C23.2962 16.6935 24 14.3734 24 12C23.9963 8.81854 22.7308 5.76844 20.4812 3.51881C18.2316 1.26918 15.1815 0.00370522 12 0Z" fill="#FFE7D1"/>
<path d="M12 7.09667C11.0302 7.09667 10.0822 7.38424 9.27585 7.92303C8.46951 8.46181 7.84103 9.22761 7.46991 10.1236C7.09879 11.0195 7.00169 12.0054 7.19088 12.9566C7.38008 13.9077 7.84708 14.7814 8.53282 15.4672C9.21856 16.1529 10.0923 16.6199 11.0434 16.8091C11.9946 16.9983 12.9805 16.9012 13.8764 16.5301C14.7724 16.159 15.5382 15.5305 16.077 14.7241C16.6158 13.9178 16.9033 12.9698 16.9033 12C16.9019 10.7 16.3849 9.45363 15.4656 8.53438C14.5464 7.61513 13.3 7.09808 12 7.09667ZM12 15.57C11.2939 15.57 10.6037 15.3606 10.0166 14.9683C9.42953 14.5761 8.97195 14.0185 8.70175 13.3662C8.43155 12.7138 8.36085 11.996 8.4986 11.3035C8.63635 10.611 8.97636 9.9749 9.47563 9.47563C9.9749 8.97636 10.611 8.63635 11.3035 8.4986C11.996 8.36085 12.7138 8.43155 13.3662 8.70175C14.0185 8.97196 14.5761 9.42953 14.9683 10.0166C15.3606 10.6037 15.57 11.2939 15.57 12C15.5689 12.9465 15.1925 13.8539 14.5232 14.5232C13.8539 15.1925 12.9465 15.5689 12 15.57Z" fill="black"/>
<path d="M12 6.31133C12.1768 6.31133 12.3464 6.2411 12.4714 6.11607C12.5964 5.99105 12.6667 5.82148 12.6667 5.64467V4.66667C12.6667 4.48986 12.5964 4.32029 12.4714 4.19526C12.3464 4.07024 12.1768 4 12 4C11.8232 4 11.6536 4.07024 11.5286 4.19526C11.4036 4.32029 11.3333 4.48986 11.3333 4.66667V5.64467C11.3333 5.82148 11.4036 5.99105 11.5286 6.11607C11.6536 6.2411 11.8232 6.31133 12 6.31133Z" fill="black"/>
<path d="M7.03467 7.97733C7.09616 8.04101 7.16973 8.0918 7.25106 8.12673C7.3324 8.16167 7.41988 8.18006 7.5084 8.18083C7.59692 8.1816 7.68471 8.16474 7.76664 8.13121C7.84857 8.09769 7.923 8.04819 7.9856 7.9856C8.04819 7.923 8.09769 7.84857 8.13121 7.76664C8.16474 7.68471 8.1816 7.59692 8.18083 7.5084C8.18006 7.41988 8.16167 7.3324 8.12673 7.25106C8.0918 7.16973 8.04101 7.09616 7.97733 7.03467L7.286 6.34333C7.16027 6.22189 6.99186 6.1547 6.81707 6.15622C6.64227 6.15774 6.47506 6.22785 6.35145 6.35145C6.22785 6.47506 6.15774 6.64227 6.15622 6.81707C6.1547 6.99186 6.22189 7.16027 6.34333 7.286L7.03467 7.97733Z" fill="black"/>
<path d="M5.64467 11.3333H4.66667C4.48986 11.3333 4.32029 11.4036 4.19526 11.5286C4.07024 11.6536 4 11.8232 4 12C4 12.1768 4.07024 12.3464 4.19526 12.4714C4.32029 12.5964 4.48986 12.6667 4.66667 12.6667H5.64467C5.82148 12.6667 5.99105 12.5964 6.11607 12.4714C6.2411 12.3464 6.31133 12.1768 6.31133 12C6.31133 11.8232 6.2411 11.6536 6.11607 11.5286C5.99105 11.4036 5.82148 11.3333 5.64467 11.3333Z" fill="black"/>
<path d="M7.03467 16.0227L6.34333 16.714C6.27966 16.7755 6.22887 16.8491 6.19393 16.9304C6.15899 17.0117 6.1406 17.0992 6.13983 17.1877C6.13906 17.2763 6.15593 17.364 6.18945 17.446C6.22297 17.5279 6.27247 17.6023 6.33507 17.6649C6.39767 17.7275 6.4721 17.777 6.55403 17.8105C6.63596 17.8441 6.72375 17.8609 6.81227 17.8602C6.90079 17.8594 6.98827 17.841 7.0696 17.8061C7.15094 17.7711 7.2245 17.7203 7.286 17.6567L7.97733 16.9653C8.04101 16.9038 8.0918 16.8303 8.12673 16.7489C8.16167 16.6676 8.18006 16.5801 8.18083 16.4916C8.1816 16.4031 8.16474 16.3153 8.13121 16.2334C8.09769 16.1514 8.04819 16.077 7.9856 16.0144C7.923 15.9518 7.84857 15.9023 7.76664 15.8688C7.68471 15.8353 7.59692 15.8184 7.5084 15.8192C7.41988 15.8199 7.3324 15.8383 7.25106 15.8733C7.16973 15.9082 7.09616 15.959 7.03467 16.0227Z" fill="black"/>
<path d="M12 17.6887C11.8232 17.6887 11.6536 17.7589 11.5286 17.8839C11.4036 18.009 11.3333 18.1785 11.3333 18.3553V19.3333C11.3333 19.5101 11.4036 19.6797 11.5286 19.8047C11.6536 19.9298 11.8232 20 12 20C12.1768 20 12.3464 19.9298 12.4714 19.8047C12.5964 19.6797 12.6667 19.5101 12.6667 19.3333V18.3553C12.6667 18.1785 12.5964 18.009 12.4714 17.8839C12.3464 17.7589 12.1768 17.6887 12 17.6887Z" fill="black"/>
<path d="M16.9653 16.0227C16.8396 15.9012 16.6712 15.834 16.4964 15.8356C16.3216 15.8371 16.1544 15.9072 16.0308 16.0308C15.9072 16.1544 15.8371 16.3216 15.8356 16.4964C15.834 16.6712 15.9012 16.8396 16.0227 16.9653L16.714 17.6567C16.8397 17.7781 17.0081 17.8453 17.1829 17.8438C17.3577 17.8423 17.5249 17.7722 17.6485 17.6485C17.7722 17.5249 17.8423 17.3577 17.8438 17.1829C17.8453 17.0081 17.7781 16.8397 17.6567 16.714L16.9653 16.0227Z" fill="black"/>
<path d="M19.3333 11.3333H18.3553C18.1785 11.3333 18.009 11.4036 17.8839 11.5286C17.7589 11.6536 17.6887 11.8232 17.6887 12C17.6887 12.1768 17.7589 12.3464 17.8839 12.4714C18.009 12.5964 18.1785 12.6667 18.3553 12.6667H19.3333C19.5101 12.6667 19.6797 12.5964 19.8047 12.4714C19.9298 12.3464 20 12.1768 20 12C20 11.8232 19.9298 11.6536 19.8047 11.5286C19.6797 11.4036 19.5101 11.3333 19.3333 11.3333Z" fill="black"/>
<path d="M16.494 8.17267C16.6708 8.17263 16.8403 8.10237 16.9653 7.97733L17.6567 7.286C17.7781 7.16027 17.8453 6.99186 17.8438 6.81707C17.8423 6.64227 17.7722 6.47506 17.6485 6.35145C17.5249 6.22785 17.3577 6.15774 17.1829 6.15622C17.0081 6.1547 16.8397 6.22189 16.714 6.34333L16.0227 7.03467C15.9295 7.1279 15.866 7.24668 15.8403 7.37598C15.8146 7.50528 15.8278 7.6393 15.8782 7.7611C15.9287 7.8829 16.0141 7.98701 16.1237 8.06027C16.2333 8.13352 16.3622 8.17264 16.494 8.17267Z" fill="black"/>
</g>
<defs>
<clipPath id="clip0">
<rect width="24" height="24" fill="white"/>
</clipPath>
</defs>
</svg>
