<svg width="80" height="80" viewBox="0 0 80 80" fill="none" xmlns="http://www.w3.org/2000/svg">
<path d="M40 80C62.0914 80 80 62.0914 80 40C80 17.9086 62.0914 0 40 0C17.9086 0 0 17.9086 0 40C0 62.0914 17.9086 80 40 80Z" fill="black"/>
<path d="M47.3322 38.6675C45.6182 38.6675 43.9427 39.1757 42.5175 40.128C41.0924 41.0803 39.9816 42.4337 39.3257 44.0173C38.6697 45.6009 38.4981 47.3433 38.8325 49.0244C39.1669 50.7055 39.9923 52.2497 41.2043 53.4617C42.4163 54.6737 43.9604 55.4991 45.6415 55.8335C47.3226 56.1679 49.0651 55.9962 50.6487 55.3403C52.2322 54.6844 53.5857 53.5736 54.538 52.1485C55.4902 50.7233 55.9985 49.0478 55.9985 47.3337C55.9957 45.0362 55.0817 42.8335 53.4571 41.2089C51.8325 39.5842 49.6298 38.6703 47.3322 38.6675ZM51.3321 44.7685L47.4656 49.9336C47.2934 50.1629 47.0739 50.3525 46.822 50.4895C46.5702 50.6265 46.2918 50.7077 46.0058 50.7277C45.7197 50.7477 45.4327 50.7059 45.1643 50.6053C44.8958 50.5046 44.6521 50.3474 44.4497 50.1443L42.4498 48.1444C42.3516 48.0528 42.2728 47.9424 42.2181 47.8198C42.1635 47.6971 42.1341 47.5647 42.1317 47.4304C42.1293 47.2962 42.154 47.1628 42.2043 47.0383C42.2546 46.9138 42.3295 46.8007 42.4244 46.7057C42.5194 46.6108 42.6325 46.5359 42.757 46.4856C42.8815 46.4353 43.0149 46.4106 43.1491 46.413C43.2834 46.4154 43.4158 46.4447 43.5385 46.4994C43.6611 46.5541 43.7715 46.6329 43.8631 46.7311L45.5963 48.4643C45.6299 48.4983 45.6704 48.5246 45.7151 48.5415C45.7598 48.5583 45.8076 48.5652 45.8553 48.5618C45.9029 48.5584 45.9492 48.5447 45.9911 48.5216C46.0329 48.4986 46.0693 48.4668 46.0976 48.4283L49.7401 43.5712C49.8189 43.4662 49.9176 43.3777 50.0306 43.3108C50.1436 43.2439 50.2687 43.1999 50.3987 43.1813C50.5287 43.1627 50.6611 43.17 50.7883 43.2025C50.9155 43.2351 51.035 43.2925 51.1401 43.3713C51.2451 43.45 51.3336 43.5487 51.4005 43.6617C51.4674 43.7747 51.5114 43.8998 51.53 44.0298C51.5486 44.1598 51.5414 44.2922 51.5088 44.4194C51.4762 44.5466 51.4188 44.6661 51.3401 44.7712L51.3321 44.7685Z" fill="#FFE7D1"/>
<path d="M30.6664 37.6662H39.3326C39.5978 37.6662 39.8522 37.5608 40.0397 37.3733C40.2272 37.1858 40.3326 36.9314 40.3326 36.6662C40.3326 36.401 40.2272 36.1467 40.0397 35.9592C39.8522 35.7716 39.5978 35.6663 39.3326 35.6663H30.6664C30.4012 35.6663 30.1468 35.7716 29.9593 35.9592C29.7718 36.1467 29.6664 36.401 29.6664 36.6662C29.6664 36.9314 29.7718 37.1858 29.9593 37.3733C30.1468 37.5608 30.4012 37.6662 30.6664 37.6662Z" fill="#FFE7D1"/>
<path d="M30.6664 42.3326H34.6662C34.9314 42.3326 35.1857 42.2273 35.3732 42.0398C35.5608 41.8522 35.6661 41.5979 35.6661 41.3327C35.6661 41.0675 35.5608 40.8131 35.3732 40.6256C35.1857 40.4381 34.9314 40.3327 34.6662 40.3327H30.6664C30.4012 40.3327 30.1468 40.4381 29.9593 40.6256C29.7718 40.8131 29.6664 41.0675 29.6664 41.3327C29.6664 41.5979 29.7718 41.8522 29.9593 42.0398C30.1468 42.2273 30.4012 42.3326 30.6664 42.3326Z" fill="#FFE7D1"/>
<path d="M30.6664 47.0004H34.3329C34.5981 47.0004 34.8524 46.8951 35.0399 46.7075C35.2275 46.52 35.3328 46.2657 35.3328 46.0005C35.3328 45.7353 35.2275 45.4809 35.0399 45.2934C34.8524 45.1059 34.5981 45.0005 34.3329 45.0005H30.6664C30.4012 45.0005 30.1468 45.1059 29.9593 45.2934C29.7718 45.4809 29.6664 45.7353 29.6664 46.0005C29.6664 46.2657 29.7718 46.52 29.9593 46.7075C30.1468 46.8951 30.4012 47.0004 30.6664 47.0004Z" fill="#FFE7D1"/>
<path d="M30.9997 32.3331H42.3325C42.4206 32.3331 42.5052 32.2982 42.5677 32.2359C42.6302 32.1737 42.6654 32.0893 42.6658 32.0011V28.0013C42.6654 27.913 42.6302 27.8284 42.5678 27.766C42.5053 27.7036 42.4208 27.6683 42.3325 27.668H39.9993V27.3347C39.9976 26.82 39.8773 26.3127 39.6476 25.8522C39.4179 25.3917 39.0851 24.9903 38.675 24.6794C38.2649 24.3685 37.7886 24.1564 37.2831 24.0597C36.7777 23.9629 36.2567 23.9841 35.7608 24.1215C35.0485 24.3359 34.4258 24.7772 33.9875 25.3782C33.5492 25.9792 33.3194 26.7069 33.3329 27.4507V27.6667H30.9997C30.9111 27.667 30.8264 27.7024 30.7639 27.7651C30.7014 27.8279 30.6664 27.9128 30.6664 28.0013V32.0011C30.6667 32.0893 30.702 32.1737 30.7645 32.2359C30.8269 32.2982 30.9115 32.3331 30.9997 32.3331ZM36.6661 26.0014C36.8638 26.0014 37.0572 26.06 37.2216 26.1699C37.3861 26.2798 37.5142 26.436 37.5899 26.6187C37.6656 26.8014 37.6854 27.0025 37.6468 27.1964C37.6082 27.3904 37.513 27.5686 37.3731 27.7084C37.2333 27.8483 37.0551 27.9435 36.8612 27.9821C36.6672 28.0207 36.4661 28.0009 36.2834 27.9252C36.1007 27.8495 35.9445 27.7213 35.8346 27.5569C35.7248 27.3925 35.6661 27.1991 35.6661 27.0013C35.6661 26.7361 35.7715 26.4818 35.959 26.2943C36.1465 26.1067 36.4009 26.0014 36.6661 26.0014Z" fill="#FFE7D1"/>
<path d="M38.6127 53.4734C38.5824 53.4307 38.5425 53.3956 38.4962 53.371C38.4498 53.3465 38.3984 53.3331 38.346 53.3321H27.3332C27.1564 53.3321 26.9868 53.2619 26.8618 53.1369C26.7368 53.0119 26.6665 52.8423 26.6665 52.6655V30.9998C26.6665 30.823 26.7368 30.6535 26.8618 30.5284C26.9868 30.4034 27.1564 30.3332 27.3332 30.3332H28.3331C28.4213 30.3332 28.5059 30.2983 28.5684 30.236C28.6308 30.1738 28.6661 30.0894 28.6664 30.0012V28.0013C28.6661 27.913 28.6309 27.8284 28.5684 27.766C28.506 27.7036 28.4214 27.6683 28.3331 27.668H26.6665C25.9593 27.668 25.2811 27.9489 24.781 28.449C24.2809 28.9491 24 29.6273 24 30.3345V53.3335C24 54.0407 24.2809 54.7189 24.781 55.219C25.2811 55.7191 25.9593 56 26.6665 56H40.1659C40.234 55.9999 40.3004 55.9789 40.3562 55.9399C40.412 55.9009 40.4545 55.8457 40.4781 55.7818C40.5016 55.718 40.505 55.6484 40.4878 55.5825C40.4706 55.5166 40.4336 55.4576 40.3819 55.4134C39.7145 54.842 39.1203 54.1905 38.6127 53.4734Z" fill="#FFE7D1"/>
<path d="M48.9468 36.8009C48.9949 36.8083 49.0441 36.8051 49.0908 36.7915C49.1376 36.7779 49.1808 36.7543 49.2175 36.7223C49.2542 36.6903 49.2834 36.6507 49.3032 36.6063C49.323 36.5618 49.3329 36.5136 49.3322 36.4649V30.3319C49.3322 29.6246 49.0512 28.9464 48.5511 28.4463C48.0511 27.9463 47.3728 27.6653 46.6656 27.6653H44.999C44.9551 27.6655 44.9116 27.6743 44.8711 27.6913C44.8305 27.7083 44.7937 27.7331 44.7628 27.7643C44.7318 27.7955 44.7073 27.8325 44.6907 27.8731C44.674 27.9138 44.6655 27.9574 44.6657 28.0013V30.0012C44.6657 30.0896 44.7008 30.1744 44.7633 30.2369C44.8258 30.2994 44.9106 30.3345 44.999 30.3345H45.999C46.1758 30.3345 46.3453 30.4048 46.4704 30.5298C46.5954 30.6548 46.6656 30.8244 46.6656 31.0012V36.3436C46.6655 36.389 46.6747 36.4339 46.6926 36.4756C46.7106 36.5173 46.7368 36.5549 46.7697 36.5861C46.8027 36.6173 46.8417 36.6415 46.8843 36.6571C46.9269 36.6727 46.9723 36.6794 47.0176 36.6769C47.1229 36.6769 47.2269 36.6662 47.3322 36.6662C47.8731 36.6691 48.413 36.7141 48.9468 36.8009Z" fill="#FFE7D1"/>
</svg>
