<svg width="40" height="40" viewBox="0 0 40 40" fill="none" xmlns="http://www.w3.org/2000/svg">
  <path fill-rule="evenodd" clip-rule="evenodd" d="M36 0H4C1.8 0 0 1.8 0 4V36C0 38.2 1.8 40 4 40H36C38.2 40 40 38.2 40 36V4C40 1.8 38.2 0 36 0ZM31.3993 14.6C31.1993 23.8 25.3993 30.2 16.5993 30.6C12.9993 30.8 10.3993 29.6 7.99927 28.2C10.5993 28.6 13.9993 27.6 15.7993 26C13.1993 25.8 11.5993 24.4 10.7993 22.2C11.5993 22.4 12.3993 22.2 12.9993 22.2C10.5993 21.4 8.99927 20 8.79927 16.8C9.39927 17.2 10.1993 17.4 10.9993 17.4C9.19927 16.4 7.99927 12.6 9.39927 10.2C11.9993 13 15.1993 15.4 20.3993 15.8C18.9993 10.2 26.5993 7.19997 29.5993 11C30.9993 10.8 31.9993 10.2 32.9993 9.79997C32.5993 11.2 31.7993 12 30.7993 12.8C31.7993 12.6 32.7993 12.4 33.5993 12C33.3993 13 32.3993 13.8 31.3993 14.6Z" fill="black"/>
</svg>
