<svg width="24" height="24" viewBox="0 0 24 24" fill="none" xmlns="http://www.w3.org/2000/svg">
<path d="M19.6748 13.1736C19.4839 13.3387 19.2342 13.4225 18.9804 13.4066C18.7266 13.3907 18.4897 13.2765 18.3217 13.089L13.2673 7.44599C13.2444 7.42081 13.2142 7.40304 13.1808 7.39503C13.1474 7.38702 13.1122 7.38915 13.0801 7.40113C13.0479 7.41311 13.0202 7.43438 13.0005 7.46215C12.9809 7.48991 12.9703 7.52286 12.9701 7.55666V19.0586C12.9701 19.3083 12.8692 19.5477 12.6895 19.7243C12.5098 19.9008 12.266 20 12.0119 20C11.7578 20 11.514 19.9008 11.3343 19.7243C11.1547 19.5477 11.0537 19.3083 11.0537 19.0586V7.55666C11.0535 7.52286 11.0429 7.48991 11.0233 7.46215C11.0036 7.43438 10.9759 7.41311 10.9437 7.40113C10.9116 7.38915 10.8764 7.38702 10.843 7.39503C10.8096 7.40304 10.7794 7.42081 10.7565 7.44599L5.70078 13.089C5.61916 13.1869 5.51828 13.2677 5.40418 13.3264C5.29007 13.3852 5.16508 13.4208 5.03667 13.4311C4.90825 13.4413 4.77905 13.4261 4.65677 13.3862C4.53449 13.3463 4.42165 13.2826 4.32498 13.199C4.22831 13.1153 4.1498 13.0133 4.09413 12.8992C4.03846 12.785 4.00678 12.661 4.00097 12.5346C3.99517 12.4081 4.01536 12.2818 4.06035 12.1632C4.10533 12.0446 4.17418 11.9361 4.26279 11.8442L10.8128 4.53317C10.9626 4.36564 11.147 4.23144 11.3538 4.1395C11.5606 4.04756 11.7849 4 12.0119 4C12.2389 4 12.4632 4.04756 12.67 4.1395C12.8768 4.23144 13.0612 4.36564 13.211 4.53317L19.761 11.8449C19.8442 11.9377 19.9079 12.0457 19.9486 12.1627C19.9892 12.2797 20.0061 12.4034 19.9981 12.5268C19.9901 12.6502 19.9574 12.7708 19.9019 12.8818C19.8465 12.9928 19.7693 13.092 19.6748 13.1736V13.1736Z" fill="black"/>
</svg>
