<svg width="24" height="24" viewBox="0 0 24 24" fill="none" xmlns="http://www.w3.org/2000/svg">
<path d="M17.874 14.3947L12.3827 8.16401C12.3329 8.11216 12.2732 8.0709 12.2071 8.04272C12.141 8.01453 12.0698 8 11.998 8C11.9261 8 11.855 8.01453 11.7888 8.04272C11.7227 8.0709 11.663 8.11216 11.6133 8.16401L6.1244 14.3947C6.0805 14.4441 6.04699 14.5019 6.02586 14.5645C6.00473 14.6271 5.99642 14.6934 6.00141 14.7593C6.0064 14.8252 6.02459 14.8894 6.05491 14.9481C6.08523 15.0069 6.12705 15.0589 6.17789 15.1012L7.10279 15.8791C7.20592 15.966 7.33911 16.0089 7.47361 15.9985C7.60811 15.9881 7.73313 15.9253 7.8217 15.8236L11.9037 11.1008C11.9155 11.0871 11.93 11.0762 11.9463 11.0687C11.9627 11.0612 11.9805 11.0573 11.9985 11.0573C12.0165 11.0573 12.0342 11.0612 12.0506 11.0687C12.0669 11.0762 12.0815 11.0871 12.0932 11.1008L16.1767 15.8221C16.2207 15.8727 16.2743 15.9142 16.3343 15.9441C16.3944 15.974 16.4598 15.9918 16.5267 15.9965C16.5933 16.0024 16.6603 15.9949 16.724 15.9745C16.7876 15.9541 16.8465 15.9211 16.8971 15.8776L17.8225 15.0992C17.8733 15.0568 17.915 15.0047 17.9452 14.946C17.9755 14.8873 17.9936 14.8231 17.9986 14.7572C18.0036 14.6914 17.9953 14.6252 17.9742 14.5626C17.9532 14.5 17.9198 14.4422 17.876 14.3927L17.874 14.3947Z" fill="currentColor"/>
</svg>
