<svg height="38" viewBox="0 0 38 38" width="38" xmlns="http://www.w3.org/2000/svg"><g fill="none" fill-rule="evenodd"><path d="m38 19c0 2.305-4.306 3.737-5.137 5.741-.862 2.078 1.138 6.128-.428 7.694s-5.616-.434-7.694.428c-2.004.831-3.436 5.137-5.741 5.137s-3.737-4.306-5.741-5.137c-2.078-.862-6.128 1.138-7.694-.428s.434-5.616-.428-7.694c-.831-2.004-5.137-3.436-5.137-5.741s4.306-3.737 5.137-5.741c.862-2.078-1.138-6.128.428-7.694s5.616.434 7.694-.428c2.004-.831 3.436-5.137 5.741-5.137s3.737 4.306 5.741 5.137c2.078.862 6.128-1.138 7.694.428s-.434 5.616.428 7.694c.831 2.004 5.137 3.436 5.137 5.741z" fill="#ffe7d1"/><path d="m25.1150932 14.1150932 1.4142136 1.4142136-10.2071068 10.2071068-4.8511068-4.8511068 1.4142136-1.4142136 3.4366932 3.4369068z" fill="#000" fill-rule="nonzero"/></g></svg>