<svg height="38" viewBox="0 0 22 38" width="22" xmlns="http://www.w3.org/2000/svg"><path d="m37.718 21-1.4262425-5.7094644c-.0305276-.1221105-.1173682-.2180099-.2286417-.2628413l-.0694411-.0205719-.0737747-.0071224h-7.84c-.150863 0-.2849053.0878553-.3470384.2206135l-.0248191.0699221-1.4270425 5.7094644zm0 22h-11.437l1.4270425 5.7094644c.0305276.1221105.1173682.2180099.2286417.2628413l.0694411.0205719.0737747.0071224h7.84c.150863 0 .2849053-.0878553.3470384-.2206135l.0248191-.0699221zm-4.718-16h-2v5.5l4.4 3.3 1.2-1.6-3.6-2.7zm-7.2322425-12.1945356c.2513312-1.005325 1.1198747-1.7262405 2.1406784-1.7993415l.1714641-.0061229h7.84c1.0362866 0 1.9461434.6680036 2.2646188 1.6406059l.0475237.1648585 1.7679575 6.1945356h.2109c1.5402847 0 2.789 1.2487153 2.789 2.789v16.422c0 1.5402847-1.2487153 2.789-2.789 2.789h-.2109l-1.7679575 6.1945356c-.2513312 1.005325-1.1198747 1.7262405-2.1406784 1.7993415l-.1714641.0061229h-7.84c-1.0362866 0-1.9461434-.6680036-2.2646188-1.6406059l-.0475237-.1648585-1.7677575-6.1945356h-.2111c-1.5402847 0-2.789-1.2487153-2.789-2.789v-16.422c0-1.5402847 1.2487153-2.789 2.789-2.789h.2111z" transform="translate(-21 -13)"/></svg>