<svg width="80" height="80" viewBox="0 0 80 80" fill="none" xmlns="http://www.w3.org/2000/svg">
<path d="M40 80C62.0914 80 80 62.0914 80 40C80 17.9086 62.0914 0 40 0C17.9086 0 0 17.9086 0 40C0 62.0914 17.9086 80 40 80Z" fill="black"/>
<path d="M50.6676 47.9997C50.314 47.9997 49.9749 48.1402 49.7248 48.3902C49.4747 48.6403 49.3343 48.9795 49.3343 49.3331V51.3332C49.3341 51.377 49.3426 51.4204 49.3593 51.4609C49.376 51.5015 49.4005 51.5383 49.4315 51.5693C49.4625 51.6003 49.4993 51.6248 49.5398 51.6415C49.5804 51.6582 49.6238 51.6667 49.6676 51.6665H54.3344C54.3783 51.6667 54.4217 51.6582 54.4622 51.6415C54.5027 51.6248 54.5396 51.6003 54.5705 51.5693C54.6015 51.5383 54.6261 51.5015 54.6428 51.4609C54.6595 51.4204 54.668 51.377 54.6678 51.3332V49.3331C54.6678 48.9795 54.5273 48.6403 54.2773 48.3902C54.0272 48.1402 53.688 47.9997 53.3344 47.9997H50.6676Z" fill="#FFE7D1"/>
<path d="M45.3341 43.9996H42.6674C42.3137 43.9996 41.9746 44.14 41.7245 44.3901C41.4744 44.6402 41.334 44.9793 41.334 45.3329V51.3332C41.3338 51.377 41.3423 51.4204 41.359 51.4609C41.3757 51.5015 41.4002 51.5383 41.4312 51.5693C41.4622 51.6003 41.499 51.6248 41.5395 51.6415C41.5801 51.6582 41.6235 51.6667 41.6673 51.6665H46.3342C46.378 51.6667 46.4214 51.6582 46.4619 51.6415C46.5024 51.6248 46.5393 51.6003 46.5703 51.5693C46.6012 51.5383 46.6258 51.5015 46.6425 51.4609C46.6592 51.4204 46.6677 51.377 46.6675 51.3332V45.3329C46.6675 44.9793 46.527 44.6402 46.277 44.3901C46.0269 44.14 45.6877 43.9996 45.3341 43.9996Z" fill="#FFE7D1"/>
<path d="M34.6671 39.3327C34.3134 39.3327 33.9743 39.4732 33.7242 39.7233C33.4742 39.9733 33.3337 40.3125 33.3337 40.6661V51.3332C33.3335 51.377 33.342 51.4204 33.3587 51.4609C33.3754 51.5015 33.3999 51.5383 33.4309 51.5693C33.4619 51.6003 33.4987 51.6248 33.5392 51.6415C33.5798 51.6582 33.6232 51.6667 33.667 51.6665H38.3339C38.3777 51.6667 38.4211 51.6582 38.4616 51.6415C38.5022 51.6248 38.539 51.6003 38.57 51.5693C38.601 51.5383 38.6255 51.5015 38.6422 51.4609C38.6589 51.4204 38.6674 51.377 38.6672 51.3332V40.6661C38.6672 40.3125 38.5267 39.9733 38.2767 39.7233C38.0266 39.4732 37.6875 39.3327 37.3338 39.3327H34.6671Z" fill="#FFE7D1"/>
<path d="M25.6667 51.6665H30.3336C30.3774 51.6667 30.4208 51.6582 30.4613 51.6415C30.5019 51.6248 30.5387 51.6003 30.5697 51.5693C30.6007 51.5383 30.6252 51.5015 30.6419 51.4609C30.6586 51.4204 30.6671 51.377 30.6669 51.3332V35.3326C30.6669 34.9789 30.5264 34.6398 30.2764 34.3897C30.0263 34.1397 29.6872 33.9992 29.3335 33.9992H26.6668C26.3131 33.9992 25.974 34.1397 25.7239 34.3897C25.4739 34.6398 25.3334 34.9789 25.3334 35.3326V51.3332C25.3332 51.377 25.3417 51.4204 25.3584 51.4609C25.3751 51.5015 25.3996 51.5383 25.4306 51.5693C25.4616 51.6003 25.4984 51.6248 25.539 51.6415C25.5795 51.6582 25.6229 51.6667 25.6667 51.6665Z" fill="#FFE7D1"/>
<path d="M52.001 42.3342C52.1761 42.3341 52.3482 42.2881 52.4999 42.2006C52.6517 42.1132 52.7778 41.9875 52.8657 41.836C52.9536 41.6845 53.0001 41.5126 53.0007 41.3375C53.0013 41.1624 52.9559 40.9902 52.8691 40.8381L50.2023 36.1713C50.1178 36.0231 49.9966 35.8991 49.8505 35.8111C49.7044 35.7231 49.5381 35.674 49.3676 35.6686C49.1978 35.6649 49.0298 35.7036 48.8787 35.7811C48.7277 35.8587 48.5983 35.9726 48.5022 36.1126L48.0929 36.726C48.0689 36.7626 48.0377 36.794 48.0013 36.8183C47.9649 36.8425 47.9239 36.8592 47.8809 36.8673C47.8381 36.876 47.7941 36.8761 47.7512 36.8677C47.7084 36.8592 47.6677 36.8423 47.6315 36.818L28.7402 24.2242C28.5945 24.127 28.4311 24.0595 28.2593 24.0254C28.0875 23.9914 27.9107 23.9915 27.739 24.0258C27.3921 24.0951 27.087 24.2993 26.8908 24.5935C26.6945 24.8877 26.6232 25.2479 26.6924 25.5947C26.7617 25.9415 26.9659 26.2467 27.2601 26.4429L46.1515 39.0367C46.1883 39.061 46.2199 39.0923 46.2444 39.129C46.2689 39.1656 46.2858 39.2068 46.2941 39.2501C46.311 39.3364 46.2933 39.426 46.2448 39.4994L45.8355 40.1128C45.741 40.2546 45.6843 40.4182 45.6708 40.5881C45.6573 40.758 45.6875 40.9285 45.7584 41.0834C45.8294 41.2384 45.9387 41.3726 46.0761 41.4735C46.2135 41.5743 46.3744 41.6383 46.5435 41.6595L51.877 42.3262C51.9181 42.3315 51.9596 42.3342 52.001 42.3342Z" fill="#FFE7D1"/>
<path d="M25.3334 56H54.6678C55.0214 56 55.3606 55.8595 55.6106 55.6095C55.8607 55.3594 56.0012 55.0203 56.0012 54.6666C56.0012 54.313 55.8607 53.9738 55.6106 53.7238C55.3606 53.4737 55.0214 53.3332 54.6678 53.3332H25.3334C24.9797 53.3332 24.6406 53.4737 24.3905 53.7238C24.1405 53.9738 24 54.313 24 54.6666C24 55.0203 24.1405 55.3594 24.3905 55.6095C24.6406 55.8595 24.9797 56 25.3334 56Z" fill="#FFE7D1"/>
</svg>
