<svg height="41" viewBox="0 0 28 41" width="28" xmlns="http://www.w3.org/2000/svg"><path d="m12-1c3.5945155 0 6.852045 1.52620352 9.2092143 4.00123125 2.339629 2.45661044 3.7907857 5.84922968 3.7907857 9.59876875 0 9.4826462-11.7210239 23.4366121-12.225154 24.0323971l-.0167414.0197359s-.2690691.3156473-.7588131.857011c-.4887712-.5418835-.7573973-.8570125-.7573973-.8570125s-12.2418942-14.3611315-12.2418942-24.0521315c0-3.74953907 1.45115672-7.14215831 3.7907857-9.59876875 2.35716927-2.47502773 5.61469879-4.00123125 9.2092143-4.00123125zm0 7c-1.6568542 0-3.15685425.67157288-4.24264069 1.75735931-1.08578643 1.08578644-1.75735931 2.58578649-1.75735931 4.24264069s.67157288 3.1568542 1.75735931 4.2426407c1.08578644 1.0857864 2.58578649 1.7573593 4.24264069 1.7573593s3.1568542-.6715729 4.2426407-1.7573593c1.0857864-1.0857865 1.7573593-2.5857865 1.7573593-4.2426407s-.6715729-3.15685425-1.7573593-4.24264069c-1.0857865-1.08578643-2.5857865-1.75735931-4.2426407-1.75735931z" fill="#842b37" fill-rule="evenodd" stroke="#000" stroke-width="2" transform="translate(2 2)"/></svg>